<?xml version="1.0" encoding="UTF-8" standalone="no"?>
<!-- Created with Inkscape (http://www.inkscape.org/) -->

<svg
   xmlns:dc="http://purl.org/dc/elements/1.1/"
   xmlns:cc="http://creativecommons.org/ns#"
   xmlns:rdf="http://www.w3.org/1999/02/22-rdf-syntax-ns#"
   xmlns:svg="http://www.w3.org/2000/svg"
   xmlns="http://www.w3.org/2000/svg"
   xmlns:sodipodi="http://sodipodi.sourceforge.net/DTD/sodipodi-0.dtd"
   xmlns:inkscape="http://www.inkscape.org/namespaces/inkscape"
   id="svg2"
   version="1.1"
   inkscape:version="0.92.1 r15371"
   width="500"
   height="500"
   sodipodi:docname="drive-harddisk-deepin.svg">
  <metadata
     id="metadata8">
    <rdf:RDF>
      <cc:Work
         rdf:about="">
        <dc:format>image/svg+xml</dc:format>
        <dc:type
           rdf:resource="http://purl.org/dc/dcmitype/StillImage" />
        <dc:title></dc:title>
      </cc:Work>
    </rdf:RDF>
  </metadata>
  <defs
     id="defs6" />
  <sodipodi:namedview
     pagecolor="#ffffff"
     bordercolor="#666666"
     borderopacity="1"
     objecttolerance="10"
     gridtolerance="10"
     guidetolerance="10"
     inkscape:pageopacity="0"
     inkscape:pageshadow="2"
     inkscape:window-width="1366"
     inkscape:window-height="714"
     id="namedview4"
     showgrid="false"
     inkscape:zoom="0.68208092"
     inkscape:cx="234.99798"
     inkscape:cy="299.07607"
     inkscape:window-x="0"
     inkscape:window-y="26"
     inkscape:window-maximized="1"
     inkscape:current-layer="svg2" />
  <g
     id="Calque.__202"
     transform="matrix(0.46702559,0,0,0.4763699,5.63116,-2.8228282)">
    <g
       id="shape">
      <path
         id="path"
         d="M 919.15,109.8 Q 918.7,89.9 904.5,75.7 C 894.75,65.95 882.95,61.05 869.15,61.05 l -674.2,0 c -13.8,0 -25.6,4.9 -35.35,14.65 -9.45,9.45 -14.35,20.85 -14.65,34.1 l 0,843.25 c 0,13.8 4.9,25.6 14.65,35.35 9.75,9.75 21.55,14.65 35.35,14.65 l 674.2,0 c 13.8,0 25.6,-4.9 35.35,-14.65 9.75,-9.75 14.65,-21.55 14.65,-35.35 l 0,-843.25 z"
         inkscape:connector-curvature="0"
         style="fill:#000000;fill-opacity:0.09803922" />
    </g>
  </g>
  <path
     id="path1"
     d="m 431.82676,31.978822 c -4.64461,-4.64461 -10.26577,-6.97882 -16.83968,-6.97882 l -321.16858,0 c -6.57391,0 -12.19507,2.33421 -16.83968,6.97882 -4.5017,4.50169 -6.83591,9.93231 -6.97882,16.24421 l 0,-0.0119 0,345.165758 q 0.21818,9.4597 6.97882,16.2204 c 4.64461,4.6445 10.26577,6.9787 16.83968,6.9787 l 321.16858,0 c 6.57391,0 12.19507,-2.3342 16.83968,-6.9787 4.5017,-4.5017 6.83591,-9.9085 6.97882,-16.2204 l 0,-345.165758 0,0.0119 c -0.14291,-6.3119 -2.47712,-11.74252 -6.97882,-16.24421 z"
     inkscape:connector-curvature="0"
     style="fill:#ebebeb;fill-opacity:1" />
  <path
     id="path2"
     d="M 76.97882,409.59729 Q 70.21818,402.83659 70,393.37689 l 0,56.545 c 0,6.5739 2.33421,12.1951 6.97882,16.8397 4.64461,4.6446 10.26577,6.9788 16.83968,6.9788 l 321.16858,0 c 6.57391,0 12.19507,-2.3342 16.83968,-6.9788 4.64461,-4.6446 6.97882,-10.2658 6.97882,-16.8397 l 0,-56.545 c -0.14291,6.3119 -2.47712,11.7187 -6.97882,16.2204 -4.64461,4.6445 -10.26577,6.9787 -16.83968,6.9787 l -321.16858,0 c -6.57391,0 -12.19507,-2.3342 -16.83968,-6.9787 z"
     inkscape:connector-curvature="0"
     style="fill:#5d6a7b;fill-opacity:0.98823529" />
  <g
     transform="matrix(0.4763699,0,0,0.4763699,4.2767,-2.8228282)"
     id="Calque.__204"
     style="fill:#394050">
    <g
       id="Symbole.__2026_1"
       overflow="visible"
       style="fill:#394050;overflow:visible">
      <g
         id="Calque.__208"
         style="fill:#394050">
        <g
           id="shape17"
           style="fill:#394050">
          <path
             inkscape:connector-curvature="0"
             id="path11"
             d="m 518,918 q 0,-8.3 -5.85,-14.15 C 508.25,899.95 503.55,898 498,898 l -302,0 c -5.55,0 -10.25,1.95 -14.15,5.85 -3.9,3.9 -5.85,8.6 -5.85,14.15 l 0,8.2 c 0,5.55 1.95,10.25 5.85,14.15 3.9,3.9 8.6,5.85 14.15,5.85 l 302,0 c 5.55,0 10.25,-1.95 14.15,-5.85 3.9,-3.9 5.85,-8.6 5.85,-14.15 l 0,-8.2 z"
             style="fill:#394050;fill-opacity:1" />
        </g>
      </g>
    </g>
  </g>
  <g
     transform="matrix(0.4763699,0,0,0.4763699,4.2767,-2.8228282)"
     id="Calque.__205">
    <g
       id="shape6">
      <path
         style="fill:#000000;fill-opacity:0.2"
         inkscape:connector-curvature="0"
         id="path3"
         d="M 849.65,912.15 Q 843.1,905.6 833.8,905.6 c -6.2,0 -11.5,2.2 -15.9,6.55 -4.35,4.4 -6.55,9.7 -6.55,15.9 0,6.2 2.2,11.5 6.55,15.85 4.4,4.4 9.7,6.6 15.9,6.6 6.2,0 11.5,-2.2 15.85,-6.6 4.4,-4.35 6.6,-9.65 6.6,-15.85 0,-6.2 -2.2,-11.5 -6.6,-15.9 z m -64.85,15.9 c 0,-6.2 -2.2,-11.5 -6.6,-15.9 -4.35,-4.35 -9.65,-6.55 -15.85,-6.55 -6.2,0 -11.5,2.2 -15.9,6.55 -4.35,4.4 -6.55,9.7 -6.55,15.9 0,6.2 2.2,11.5 6.55,15.85 4.4,4.4 9.7,6.6 15.9,6.6 6.2,0 11.5,-2.2 15.85,-6.6 4.4,-4.35 6.6,-9.65 6.6,-15.85 z" />
    </g>
  </g>
  <path
     id="path6"
     d="m 339.35529,303.00665 q 37.75231,-37.75231 37.75231,-91.15338 c 0,-35.60865 -12.57616,-65.97723 -37.75231,-91.15338 -25.17615,-25.176148 -55.54473,-37.752318 -91.15338,-37.752318 -35.60865,0 -65.97724,12.57617 -91.15338,37.752318 -25.17615,25.17615 -37.75232,55.54473 -37.75232,91.15338 0,35.60865 12.57617,65.97723 37.75232,91.15338 25.17614,25.17615 55.54473,37.75232 91.15338,37.75232 35.60865,0 65.97723,-12.57617 91.15338,-37.75232 z"
     inkscape:connector-curvature="0"
     style="fill:#ffffff;fill-opacity:0.09803922" />
  <path
     id="path7"
     d="m 399.21117,445.20309 c 2.95349,0 5.47825,-1.048 7.55046,-3.1441 2.09603,-2.0722 3.14404,-4.5969 3.14404,-7.5504 0,-2.9535 -1.04801,-5.4783 -3.14404,-7.5743 -2.07221,-2.0722 -4.59697,-3.1202 -7.55046,-3.1202 -2.9535,0 -5.47826,1.048 -7.57429,3.1202 -2.0722,2.096 -3.12022,4.6208 -3.12022,7.5743 0,2.9535 1.04802,5.4782 3.12022,7.5504 2.09603,2.0961 4.62079,3.1441 7.57429,3.1441 z m -23.34213,-10.6945 c 0,-2.9535 -1.04801,-5.4783 -3.14404,-7.5743 -2.07221,-2.0722 -4.59697,-3.1202 -7.55046,-3.1202 -2.9535,0 -5.47826,1.048 -7.57429,3.1202 -2.0722,2.096 -3.12022,4.6208 -3.12022,7.5743 0,2.9535 1.04802,5.4782 3.12022,7.5504 2.09603,2.0961 4.62079,3.1441 7.57429,3.1441 2.95349,0 5.47825,-1.048 7.55046,-3.1441 2.09603,-2.0722 3.14404,-4.5969 3.14404,-7.5504 z"
     inkscape:connector-curvature="0"
     style="fill:#ffcc00;fill-opacity:1" />
  <path
     inkscape:connector-curvature="0"
     style="fill:#394050;stroke-width:2.83329105;fill-opacity:1"
     d="m 254.07795,317.34432 c -6.79206,0 -13.43996,-0.65686 -19.86358,-1.90622 27.00805,-7.56101 59.09407,-26.23909 74.34428,-56.22667 0,0 31.26891,-51.24479 -21.64186,-97.36346 0,0 13.60015,21.40127 14.01681,42.93087 0,0 3.23591,28.30555 -21.80185,45.99053 -36.92391,26.063 -94.44813,14.321 -118.9252,7.56101 -6.56773,-13.64822 -10.25219,-28.94645 -10.25219,-45.10948 0,-24.18876 8.2498,-46.43912 22.09024,-64.12409 6.82411,32.95102 20.92084,60.47169 30.40407,70.69187 12.63898,13.60011 31.25312,28.04931 55.15349,22.09016 23.88436,-5.97516 28.75423,-32.10207 28.75423,-32.10207 5.2862,-22.21839 -2.24276,-48.61772 -2.6429,-49.17837 -0.40019,-0.56069 -3.98899,-1.16932 -3.98899,-1.16932 3.74836,35.00148 -5.46274,50.4918 -5.46274,50.4918 -13.39176,27.44059 -33.06308,18.95051 -33.06308,18.95051 -21.86592,-11.1493 -20.84076,-42.56245 -20.84076,-42.56245 -0.64055,-21.06499 7.3848,-55.37772 22.85912,-76.65094 3.57224,-0.36842 7.19254,-0.56069 10.86091,-0.56069 13.93661,0 27.2327,2.73934 39.39077,7.72126 -12.91131,10.84486 -32.80695,31.14093 -32.80695,31.14093 -32.23021,29.8754 -25.98284,55.00925 -25.98284,55.00925 5.12608,26.39934 21.11306,8.61819 21.11306,8.61819 16.80396,-17.36457 15.55452,-51.94959 15.55452,-51.94959 -6.80814,1.10524 -11.11728,4.85373 -11.11728,4.85373 -0.83295,23.06739 -14.4492,37.37243 -14.4492,37.37243 -5.27018,5.83083 -9.01859,0.2723 -9.01859,0.2723 -2.7713,-4.16499 2.77127,-7.08036 2.77127,-7.08036 7.78524,-6.80815 10.108,-18.42192 10.01186,-22.77912 -0.11222,-4.37326 2.21066,-5.55862 2.21066,-5.55862 10.98901,-8.47404 21.96189,-13.47197 21.96189,-13.47197 14.72149,-7.51294 40.97684,-8.76239 40.97684,-8.76239 6.21532,0.20836 12.17425,-0.0212 17.22029,-0.41628 16.35545,18.38986 26.28699,42.61055 26.28699,69.15413 0,57.50813 -46.61517,104.12355 -104.12329,104.12355 M 135.07965,213.22078 c 0,65.72108 53.27721,118.99829 118.9983,118.99829 65.72091,0 118.99833,-53.27721 118.99833,-118.99829 0,-65.72105 -53.27742,-118.9983 -118.99833,-118.9983 -65.72109,0 -118.9983,53.27725 -118.9983,118.9983 z"
     id="Page-1" />
</svg>
