<?xml version="1.0" encoding="UTF-8" standalone="no"?>
<!-- Created with Inkscape (http://www.inkscape.org/) -->

<svg
   xmlns:dc="http://purl.org/dc/elements/1.1/"
   xmlns:cc="http://creativecommons.org/ns#"
   xmlns:rdf="http://www.w3.org/1999/02/22-rdf-syntax-ns#"
   xmlns:svg="http://www.w3.org/2000/svg"
   xmlns="http://www.w3.org/2000/svg"
   xmlns:sodipodi="http://sodipodi.sourceforge.net/DTD/sodipodi-0.dtd"
   xmlns:inkscape="http://www.inkscape.org/namespaces/inkscape"
   id="svg2"
   version="1.1"
   inkscape:version="0.92.1 r15371"
   width="500"
   height="500"
   sodipodi:docname="drive-harddisk-linux.svg">
  <metadata
     id="metadata8">
    <rdf:RDF>
      <cc:Work
         rdf:about="">
        <dc:format>image/svg+xml</dc:format>
        <dc:type
           rdf:resource="http://purl.org/dc/dcmitype/StillImage" />
        <dc:title />
      </cc:Work>
    </rdf:RDF>
  </metadata>
  <defs
     id="defs6" />
  <sodipodi:namedview
     pagecolor="#ffffff"
     bordercolor="#666666"
     borderopacity="1"
     objecttolerance="10"
     gridtolerance="10"
     guidetolerance="10"
     inkscape:pageopacity="0"
     inkscape:pageshadow="2"
     inkscape:window-width="842"
     inkscape:window-height="441"
     id="namedview4"
     showgrid="false"
     inkscape:zoom="0.34104046"
     inkscape:cx="-183.88252"
     inkscape:cy="207.87093"
     inkscape:window-x="63"
     inkscape:window-y="88"
     inkscape:window-maximized="0"
     inkscape:current-layer="svg2" />
  <g
     id="Calque.__202"
     transform="matrix(0.46702559,0,0,0.4763699,5.63116,-2.8228282)">
    <g
       id="shape">
      <path
         id="path"
         d="M 919.15,109.8 Q 918.7,89.9 904.5,75.7 C 894.75,65.95 882.95,61.05 869.15,61.05 l -674.2,0 c -13.8,0 -25.6,4.9 -35.35,14.65 -9.45,9.45 -14.35,20.85 -14.65,34.1 l 0,843.25 c 0,13.8 4.9,25.6 14.65,35.35 9.75,9.75 21.55,14.65 35.35,14.65 l 674.2,0 c 13.8,0 25.6,-4.9 35.35,-14.65 9.75,-9.75 14.65,-21.55 14.65,-35.35 l 0,-843.25 z"
         inkscape:connector-curvature="0"
         style="fill:#000000;fill-opacity:0.09803922" />
    </g>
  </g>
  <path
     id="path1"
     d="m 431.82676,31.978822 c -4.64461,-4.64461 -10.26577,-6.97882 -16.83968,-6.97882 l -321.16858,0 c -6.57391,0 -12.19507,2.33421 -16.83968,6.97882 -4.5017,4.50169 -6.83591,9.93231 -6.97882,16.24421 l 0,-0.0119 0,345.165758 q 0.21818,9.4597 6.97882,16.2204 c 4.64461,4.6445 10.26577,6.9787 16.83968,6.9787 l 321.16858,0 c 6.57391,0 12.19507,-2.3342 16.83968,-6.9787 4.5017,-4.5017 6.83591,-9.9085 6.97882,-16.2204 l 0,-345.165758 0,0.0119 c -0.14291,-6.3119 -2.47712,-11.74252 -6.97882,-16.24421 z"
     inkscape:connector-curvature="0"
     style="fill:#ebebeb;fill-opacity:1" />
  <path
     id="path2"
     d="M 76.97882,409.59729 Q 70.21818,402.83659 70,393.37689 l 0,56.545 c 0,6.5739 2.33421,12.1951 6.97882,16.8397 4.64461,4.6446 10.26577,6.9788 16.83968,6.9788 l 321.16858,0 c 6.57391,0 12.19507,-2.3342 16.83968,-6.9788 4.64461,-4.6446 6.97882,-10.2658 6.97882,-16.8397 l 0,-56.545 c -0.14291,6.3119 -2.47712,11.7187 -6.97882,16.2204 -4.64461,4.6445 -10.26577,6.9787 -16.83968,6.9787 l -321.16858,0 c -6.57391,0 -12.19507,-2.3342 -16.83968,-6.9787 z"
     inkscape:connector-curvature="0"
     style="fill:#5d6a7b;fill-opacity:0.98823529" />
  <g
     transform="matrix(0.4763699,0,0,0.4763699,4.2767,-2.8228282)"
     id="Calque.__204"
     style="fill:#394050">
    <g
       id="Symbole.__2026_1"
       overflow="visible"
       style="fill:#394050;overflow:visible">
      <g
         id="Calque.__208"
         style="fill:#394050">
        <g
           id="shape17"
           style="fill:#394050">
          <path
             inkscape:connector-curvature="0"
             id="path11"
             d="m 518,918 q 0,-8.3 -5.85,-14.15 C 508.25,899.95 503.55,898 498,898 l -302,0 c -5.55,0 -10.25,1.95 -14.15,5.85 -3.9,3.9 -5.85,8.6 -5.85,14.15 l 0,8.2 c 0,5.55 1.95,10.25 5.85,14.15 3.9,3.9 8.6,5.85 14.15,5.85 l 302,0 c 5.55,0 10.25,-1.95 14.15,-5.85 3.9,-3.9 5.85,-8.6 5.85,-14.15 l 0,-8.2 z"
             style="fill:#394050;fill-opacity:1" />
        </g>
      </g>
    </g>
  </g>
  <g
     transform="matrix(0.4763699,0,0,0.4763699,4.2767,-2.8228282)"
     id="Calque.__205">
    <g
       id="shape6">
      <path
         style="fill:#000000;fill-opacity:0.2"
         inkscape:connector-curvature="0"
         id="path3"
         d="M 849.65,912.15 Q 843.1,905.6 833.8,905.6 c -6.2,0 -11.5,2.2 -15.9,6.55 -4.35,4.4 -6.55,9.7 -6.55,15.9 0,6.2 2.2,11.5 6.55,15.85 4.4,4.4 9.7,6.6 15.9,6.6 6.2,0 11.5,-2.2 15.85,-6.6 4.4,-4.35 6.6,-9.65 6.6,-15.85 0,-6.2 -2.2,-11.5 -6.6,-15.9 z m -64.85,15.9 c 0,-6.2 -2.2,-11.5 -6.6,-15.9 -4.35,-4.35 -9.65,-6.55 -15.85,-6.55 -6.2,0 -11.5,2.2 -15.9,6.55 -4.35,4.4 -6.55,9.7 -6.55,15.9 0,6.2 2.2,11.5 6.55,15.85 4.4,4.4 9.7,6.6 15.9,6.6 6.2,0 11.5,-2.2 15.85,-6.6 4.4,-4.35 6.6,-9.65 6.6,-15.85 z" />
    </g>
  </g>
  <path
     id="path6"
     d="m 339.35529,303.00665 q 37.75231,-37.75231 37.75231,-91.15338 c 0,-35.60865 -12.57616,-65.97723 -37.75231,-91.15338 -25.17615,-25.176148 -55.54473,-37.752318 -91.15338,-37.752318 -35.60865,0 -65.97724,12.57617 -91.15338,37.752318 -25.17615,25.17615 -37.75232,55.54473 -37.75232,91.15338 0,35.60865 12.57617,65.97723 37.75232,91.15338 25.17614,25.17615 55.54473,37.75232 91.15338,37.75232 35.60865,0 65.97723,-12.57617 91.15338,-37.75232 z"
     inkscape:connector-curvature="0"
     style="fill:#ffffff;fill-opacity:0.09803922" />
  <path
     id="path7"
     d="m 399.21117,445.20309 c 2.95349,0 5.47825,-1.048 7.55046,-3.1441 2.09603,-2.0722 3.14404,-4.5969 3.14404,-7.5504 0,-2.9535 -1.04801,-5.4783 -3.14404,-7.5743 -2.07221,-2.0722 -4.59697,-3.1202 -7.55046,-3.1202 -2.9535,0 -5.47826,1.048 -7.57429,3.1202 -2.0722,2.096 -3.12022,4.6208 -3.12022,7.5743 0,2.9535 1.04802,5.4782 3.12022,7.5504 2.09603,2.0961 4.62079,3.1441 7.57429,3.1441 z m -23.34213,-10.6945 c 0,-2.9535 -1.04801,-5.4783 -3.14404,-7.5743 -2.07221,-2.0722 -4.59697,-3.1202 -7.55046,-3.1202 -2.9535,0 -5.47826,1.048 -7.57429,3.1202 -2.0722,2.096 -3.12022,4.6208 -3.12022,7.5743 0,2.9535 1.04802,5.4782 3.12022,7.5504 2.09603,2.0961 4.62079,3.1441 7.57429,3.1441 2.95349,0 5.47825,-1.048 7.55046,-3.1441 2.09603,-2.0722 3.14404,-4.5969 3.14404,-7.5504 z"
     inkscape:connector-curvature="0"
     style="fill:#ffcc00;fill-opacity:1" />
  <path
     inkscape:connector-curvature="0"
     style="fill:#394050;stroke-width:2.4269383;fill-opacity:1"
     d="m 305.80389,266.15432 c 0,-1.52756 -2.33879,-3.3097 -7.01651,-5.34644 0.34072,-1.27297 0.65915,-2.43984 0.95683,-3.50064 0.29771,-1.06084 0.51026,-2.16405 0.63787,-3.30971 0.12753,-1.1457 0.25545,-2.05798 0.38298,-2.73688 0.12754,-0.67894 0.14923,-1.63363 0.064,-2.86419 -0.0849,-1.23052 -0.12754,-2.05794 -0.12754,-2.48225 0,-0.42432 -0.14923,-1.35784 -0.44683,-2.80054 -0.29771,-1.4427 -0.46777,-2.31253 -0.51018,-2.60957 -0.0449,-0.29696 -0.25545,-1.35783 -0.63783,-3.18243 -0.38299,-1.82456 -0.61659,-2.94902 -0.70168,-3.37333 -0.85046,-4.07351 -2.84908,-8.44394 -5.99591,-13.11152 -3.14675,-4.66755 -6.20846,-7.84995 -9.18511,-9.54723 2.04111,1.69728 4.46494,5.21913 7.27153,10.56558 7.3993,13.74808 9.69549,25.54407 6.88893,35.38841 -0.93554,3.39457 -3.0617,5.17672 -6.37855,5.34645 -2.63657,0.3396 -4.27372,-0.44552 -4.91159,-2.35498 -0.63791,-1.9095 -0.97799,-5.45252 -1.02056,-10.62924 -0.0449,-5.17675 -0.53146,-9.71695 -1.46704,-13.62073 -0.76548,-3.30975 -1.59474,-6.23748 -2.48764,-8.78343 -0.89306,-2.54595 -1.72223,-4.47658 -2.48768,-5.792 -0.76544,-1.31539 -1.42456,-2.35494 -1.97738,-3.11878 -0.55271,-0.76376 -1.10568,-1.40025 -1.65846,-1.90942 -0.55264,-0.50925 -0.87174,-0.80622 -0.95675,-0.89108 -1.1907,-5.26162 -2.50892,-9.63209 -3.95476,-13.11152 -1.44585,-3.47948 -2.70031,-5.85562 -3.76335,-7.1286 -1.06312,-1.27297 -2.06243,-2.67322 -2.99793,-4.20078 -0.93555,-1.52756 -1.57342,-3.22481 -1.91362,-5.09186 -0.33997,-1.78215 -0.0853,-4.05226 0.76541,-6.81035 0.85049,-2.75812 1.04184,-4.85848 0.5741,-6.30117 -0.46781,-1.4427 -2.36003,-2.5035 -5.67695,-3.1824 -1.27571,-0.2547 -3.168,-1.01839 -5.67692,-2.29136 -2.50896,-1.27298 -4.01853,-1.95188 -4.52883,-2.03674 -0.68039,-0.0849 -1.14817,-1.18807 -1.40328,-3.30971 -0.25507,-2.12163 0.0849,-4.28561 1.02056,-6.4921 0.93554,-2.20646 2.46636,-3.35216 4.59259,-3.43703 3.1468,-0.2547 5.31552,1.01839 6.50617,3.81889 1.1907,2.80053 1.36076,5.26158 0.5103,7.38322 -0.93554,1.61242 -1.02056,2.73684 -0.25507,3.37332 0.7654,0.63649 2.04115,0.65774 3.82715,0.0636 1.1056,-0.3396 1.65842,-1.86701 1.65842,-4.58264 v -4.71 c -0.42536,-2.54591 -0.99931,-4.66751 -1.72223,-6.36483 -0.72292,-1.69725 -1.6159,-2.99146 -2.67898,-3.88254 -1.06312,-0.89107 -2.06239,-1.52752 -2.99798,-1.90942 -0.9355,-0.38186 -2.08363,-0.70015 -3.44442,-0.95473 -9.10018,0.6789 -12.88477,6.36475 -11.35391,17.05772 0,1.27297 -0.0423,1.90942 -0.12754,1.90942 -0.76545,-0.76376 -2.01987,-1.20928 -3.76338,-1.33659 -1.74348,-0.12716 -3.14676,-0.10622 -4.20987,0.0636 -1.06312,0.16942 -1.72224,-0.0423 -1.97735,-0.63645 0.0849,-4.83731 -0.59534,-8.65615 -2.04118,-11.45669 -1.44581,-2.80053 -3.35938,-4.2432 -5.74073,-4.32806 -2.2963,-0.0849 -4.06105,1.08201 -5.29427,3.5006 -1.23318,2.41868 -1.93482,4.94334 -2.10492,7.57415 -0.0853,1.27298 0.064,2.84295 0.44649,4.71 0.38273,1.86701 0.93555,3.45819 1.65843,4.77361 0.72288,1.31539 1.382,1.88822 1.97734,1.7185 0.85054,-0.2547 1.53089,-0.84867 2.04119,-1.78215 0.34035,-0.76376 0.0423,-1.10325 -0.89302,-1.01839 -0.59535,0 -1.25446,-0.61528 -1.97738,-1.8458 -0.72288,-1.23053 -1.12689,-2.65202 -1.21194,-4.26441 -0.0849,-1.86701 0.29771,-3.43702 1.14817,-4.70999 0.8505,-1.27298 2.29626,-1.86697 4.33745,-1.78215 1.44584,0 2.59393,0.89107 3.44443,2.67326 0.85049,1.78211 1.25446,3.43699 1.21197,4.96451 -0.0423,1.5276 -0.10622,2.46108 -0.19149,2.80053 -1.87105,1.27298 -3.18932,2.5035 -3.95473,3.69161 -0.68039,1.01839 -1.84977,2.01553 -3.50823,2.99143 -1.65843,0.97601 -2.53016,1.50639 -2.61521,1.59126 -1.10565,1.18807 -1.76476,2.33377 -1.97738,3.43698 -0.21244,1.10321 0.10621,1.86705 0.95682,2.29136 1.19062,0.67894 2.25373,1.50632 3.18928,2.48225 0.93554,0.97598 1.6159,1.78215 2.04115,2.41864 0.42521,0.63649 1.21193,1.18811 2.3601,1.65487 1.14813,0.46676 2.6577,0.74256 4.52879,0.82742 3.99725,0.1698 8.33466,-0.46672 13.01234,-1.90946 0.17017,-0.0849 1.14813,-0.3819 2.93413,-0.89107 1.78604,-0.50918 3.25312,-0.95473 4.40125,-1.3366 1.14813,-0.3819 2.40259,-0.93352 3.76338,-1.65491 1.36075,-0.72131 2.25377,-1.46386 2.67902,-2.22766 0.76541,-1.18808 1.61587,-1.52753 2.55141,-1.01835 0.42521,0.2547 0.70164,0.61524 0.82921,1.08204 0.12754,0.46676 0,0.97594 -0.38272,1.52752 -0.38269,0.55159 -1.08432,0.95473 -2.10492,1.20932 -1.70095,0.50925 -4.10358,1.42149 -7.20781,2.73688 -3.10426,1.31539 -5.03908,2.14284 -5.80453,2.48229 -3.74213,1.61242 -6.71875,2.58836 -8.93,2.92781 -2.12627,0.42431 -5.48561,0.3396 -10.07821,-0.2547 -0.85049,-0.16942 -1.23321,-0.0849 -1.14816,0.2547 0.0849,0.3396 0.80793,1.14566 2.16872,2.41864 2.1262,1.95187 4.97532,2.88539 8.54732,2.80049 1.44584,-0.0849 2.97669,-0.38186 4.59263,-0.89107 1.6159,-0.50921 3.14675,-1.10325 4.59256,-1.78215 1.4458,-0.6789 2.87036,-1.42145 4.27367,-2.22767 1.40328,-0.80621 2.67895,-1.52756 3.82715,-2.16404 1.14813,-0.63649 2.18997,-1.14567 3.12551,-1.5276 0.93551,-0.38183 1.67967,-0.48793 2.2325,-0.31791 0.55282,0.1698 0.91426,0.63649 1.08436,1.40029 0,0.16942 -0.0423,0.36054 -0.12754,0.57283 -0.0849,0.21243 -0.25507,0.42431 -0.51026,0.63648 -0.25507,0.21244 -0.5103,0.40304 -0.76544,0.57284 -0.25508,0.16942 -0.61659,0.38189 -1.08437,0.63648 -0.46773,0.2547 -0.85045,0.44552 -1.14816,0.57287 -0.29771,0.12716 -0.72289,0.33923 -1.27571,0.63645 -0.55282,0.29696 -0.95678,0.48797 -1.21193,0.57283 -2.38135,1.18811 -5.25167,3.05509 -8.61109,5.60103 -3.35941,2.54595 -6.18721,4.37047 -8.48351,5.47372 -2.29634,1.10325 -4.38001,1.1457 -6.25106,0.12717 -1.78604,-0.93349 -4.46502,-4.03099 -8.03702,-9.29261 -1.87109,-2.63081 -2.93417,-3.56433 -3.18932,-2.80053 -0.0853,0.2547 -0.12753,0.67893 -0.12753,1.27297 0,2.1216 -0.63784,4.51899 -1.91358,7.19221 -1.27574,2.67326 -2.5302,5.0282 -3.76338,7.06498 -1.23322,2.03673 -2.12616,4.49782 -2.67902,7.38318 -0.55282,2.8854 -0.064,5.55862 1.46708,8.01971 -1.9561,0.50917 -4.61383,4.32802 -7.97325,11.45665 -3.35941,7.12867 -5.37928,13.11153 -6.05964,17.94883 -0.17017,1.52749 -0.23413,4.45534 -0.19112,8.7834 0.0423,4.32813 -0.19149,6.83163 -0.70171,7.51049 -0.68036,2.03677 -1.91354,2.16405 -3.69958,0.38186 -2.72154,-2.63081 -4.25236,-6.61934 -4.59255,-11.96586 -0.17018,-2.37619 0,-4.75234 0.51029,-7.1286 0.34035,-1.61242 0.29771,-2.37618 -0.12754,-2.29132 l -0.51029,0.63649 c -3.06171,5.5162 -2.63646,12.55986 1.27574,21.13119 0.42525,1.01835 1.48833,2.2065 3.18932,3.5643 1.70098,1.35783 2.7215,2.20649 3.0617,2.54598 1.70099,1.95184 6.12345,5.79193 13.26749,11.52027 7.14407,5.72835 11.09876,8.97444 11.86421,9.73816 1.36075,1.27298 2.10491,2.8854 2.23249,4.83727 0.12753,1.95191 -0.46774,3.77647 -1.786,5.47376 -1.31827,1.69732 -3.25305,2.67322 -5.8045,2.92781 0.68036,1.27297 1.91354,3.16119 3.69958,5.66469 1.786,2.5035 2.97665,4.79482 3.572,6.87404 0.59535,2.07915 0.89298,5.07058 0.89298,8.97436 3.91224,-2.03677 4.20991,-5.94048 0.89302,-11.71127 -0.34035,-0.6789 -0.78669,-1.35784 -1.33951,-2.03674 -0.55278,-0.6789 -0.95679,-1.18807 -1.21193,-1.52756 -0.25508,-0.3396 -0.34035,-0.59404 -0.25508,-0.76376 0.25508,-0.42435 0.80793,-0.82742 1.65843,-1.20932 0.85046,-0.38186 1.70095,-0.27564 2.55144,0.31791 3.9122,4.41299 10.97116,5.94052 21.17694,4.58268 11.31142,-1.27294 18.83811,-4.96451 22.58025,-11.07479 1.95606,-3.22485 3.40186,-4.49778 4.33744,-3.81892 1.02056,0.50925 1.44577,2.71567 1.27571,6.61942 -0.0849,2.12163 -1.06308,6.02534 -2.93417,11.71127 -0.76544,1.95191 -1.02059,3.54313 -0.76544,4.77366 0.25544,1.23048 1.27574,1.88821 3.0617,1.97308 0.25545,-1.61243 0.87181,-4.87965 1.84981,-9.80182 0.9781,-4.92217 1.55213,-8.74102 1.72223,-11.45669 0.17017,-1.78215 -0.10622,-4.90089 -0.82921,-9.3563 -0.72292,-4.45541 -1.04184,-8.57125 -0.95675,-12.34772 0.0849,-3.77648 1.06308,-6.76794 2.93413,-8.9744 1.27574,-1.5276 3.44439,-2.29132 6.50613,-2.29132 0.0849,-3.14003 1.55213,-5.38886 4.40129,-6.7467 2.84908,-1.35783 5.9321,-1.80339 9.24895,-1.33663 3.3169,0.46676 5.8683,1.42149 7.6543,2.86416 z m -80.11518,-105.2741 c 0.25507,-1.44273 0.14885,-2.71567 -0.31903,-3.81888 -0.46777,-1.10321 -0.95679,-1.73974 -1.46705,-1.90946 -0.76544,-0.16943 -1.14817,0.12716 -1.14817,0.89107 0.17018,0.42435 0.38273,0.67894 0.63784,0.7638 0.85049,0 1.14816,0.63645 0.89298,1.90942 -0.25508,1.69733 0.0849,2.54595 1.02063,2.54595 0.25507,0 0.38272,-0.12716 0.38272,-0.3819 z m 30.7448,-2.03673 c 0,-0.93353 -0.21243,-1.76095 -0.63783,-2.4823 -0.42528,-0.72135 -0.89302,-1.25173 -1.40331,-1.59121 -0.5103,-0.3396 -0.89299,-0.46676 -1.14817,-0.38183 -1.19066,0.0849 -1.48829,0.38183 -0.89298,0.89108 0.17017,0.0849 0.34034,0.1698 0.51029,0.2547 1.19069,0.3396 1.9561,1.65479 2.29634,3.94616 0,0.2547 0.34034,0.16979 1.02052,-0.2547 z m 82.92178,144.16316 c 0.93554,1.0608 1.44584,2.07911 1.53089,3.05512 0.0849,0.9759 -0.0187,1.93063 -0.31903,2.86412 -0.29771,0.93352 -0.95679,1.86704 -1.97746,2.80053 -1.02048,0.93352 -2.01979,1.76094 -2.99782,2.48229 -0.97811,0.72135 -2.25385,1.50636 -3.82715,2.35498 -1.57349,0.84862 -2.91292,1.54877 -4.0186,2.10039 -1.10557,0.55159 -2.46636,1.20932 -4.08223,1.97308 -1.61597,0.7638 -2.7641,1.31543 -3.4445,1.65484 -3.23184,1.61246 -6.86761,3.98861 -10.90738,7.12863 -4.03978,3.13998 -7.2503,5.85562 -9.63168,8.14694 -1.44584,1.35787 -4.33745,2.18526 -8.6749,2.48229 -4.33744,0.29696 -8.12207,-0.3179 -11.35391,-1.8458 -1.53081,-0.76376 -2.78531,-1.76091 -3.76334,-2.99143 -0.97807,-1.23056 -1.67971,-2.3126 -2.10492,-3.24609 -0.4254,-0.93349 -1.36079,-1.76091 -2.80663,-2.48229 -1.44577,-0.72131 -3.44443,-1.12442 -5.99584,-1.20928 -3.74213,-0.0849 -9.2702,-0.12717 -16.58441,-0.12717 -1.61586,0 -4.03974,0.0636 -7.27158,0.19112 -3.23161,0.12754 -5.69797,0.23338 -7.39892,0.31791 -3.74214,0.0853 -7.12276,0.72131 -10.14198,1.90946 -3.01922,1.18811 -5.29423,2.46105 -6.82508,3.81888 -1.53089,1.35784 -3.3807,2.56712 -5.54942,3.62792 -2.16873,1.06084 -4.44371,1.5488 -6.82509,1.46394 -2.4664,-0.0849 -7.18653,-1.40025 -14.16051,-3.94619 -6.97397,-2.54595 -13.1824,-4.37048 -18.62548,-5.47369 -1.61594,-0.3396 -3.78463,-0.74259 -6.50617,-1.20935 -2.72155,-0.46676 -4.84775,-0.84863 -6.3786,-1.14566 -1.53089,-0.29697 -3.21056,-0.70015 -5.03912,-1.20928 -1.82853,-0.50925 -3.25305,-1.12446 -4.27364,-1.84585 -1.0206,-0.72131 -1.74348,-1.54876 -2.16872,-2.48229 -0.8505,-1.95187 -0.55283,-4.77357 0.89301,-8.46518 1.44581,-3.69161 2.21125,-6.0041 2.2963,-6.93767 0.0849,-1.35783 -0.0849,-3.05508 -0.5103,-5.09185 -0.42528,-2.03674 -0.85049,-3.84009 -1.27574,-5.41007 -0.42521,-1.57001 -0.61659,-3.11878 -0.57406,-4.64634 0.0423,-1.52756 0.48901,-2.67322 1.33951,-3.43698 1.19065,-1.01839 3.61452,-1.61246 7.27161,-1.78215 3.65705,-0.16942 6.20846,-0.67894 7.6543,-1.52756 2.55145,-1.52756 4.33745,-3.01267 5.35804,-4.45541 1.02056,-1.4427 1.53085,-3.60667 1.53085,-6.49207 0,2.4186 2.25378,-3.81892 1.91358,-5.85565 -0.25508,-1.35784 -0.34035,-2.97026 -0.25508,-4.83724 0.0849,-2.46108 0.5103,-4.66758 1.27575,-6.61945 0.76544,-1.95188 1.78596,-3.9462 3.06174,-5.9829 1.2757,-2.03677 2.21121,-3.81892 2.80655,-5.34648 0.6804,-1.78211 1.80725,-4.83723 3.38066,-9.16533 1.57342,-4.3281 2.82784,-7.63777 3.76338,-9.92913 0.93555,-2.29132 2.21125,-4.87964 3.82715,-7.76504 1.61594,-2.88544 3.27437,-5.17672 4.97532,-6.87401 9.35533,-12.13566 14.62824,-20.40984 15.8189,-24.8228 -1.02056,-9.50485 -1.70092,-22.65868 -2.04112,-39.46189 -0.17017,-7.6378 0.85046,-14.06618 3.06171,-19.28542 2.21125,-5.21917 6.71875,-9.65326 13.52263,-13.30246 3.31689,-1.78215 7.73931,-2.67322 13.26749,-2.67322 4.50758,-0.0849 9.01505,0.48797 13.5226,1.71853 4.50758,1.23052 8.29217,2.99142 11.35391,5.28279 4.84771,3.56429 8.73866,8.71977 11.67287,15.46654 2.93416,6.74673 4.18855,13.00542 3.7633,18.77617 -0.42536,8.06212 0.8505,17.14255 3.82715,27.24144 2.89168,9.58968 8.54736,18.8398 16.9671,27.75057 4.67765,5.00704 8.90872,11.92342 12.69339,20.74934 3.78466,8.82595 6.31486,16.93037 7.59056,24.31359 0.68036,4.15837 0.89295,7.74387 0.63784,10.75654 -0.25545,3.01271 -0.76537,5.36769 -1.53085,7.06494 -0.76541,1.69732 1.10556,8.52892 2.29629,7.51049 0.0849,2.63085 0.4254,5.0282 1.0206,7.19225 0.59534,2.16409 1.21193,3.88258 1.8498,5.15552 0.63787,1.27297 1.50961,2.48225 2.61522,3.62799 1.10556,1.14562 1.99858,1.95183 2.67898,2.41856 0.68039,0.46683 1.59462,1.01842 2.74282,1.65491 1.14817,0.63645 1.84981,1.03955 2.10492,1.20928 1.70095,1.01838 3.01922,2.05794 3.95472,3.11878 z"
     id="Page-1" />
</svg>
