<?xml version="1.0" encoding="UTF-8" standalone="no"?>
<!-- Created with Inkscape (http://www.inkscape.org/) -->

<svg
   xmlns:osb="http://www.openswatchbook.org/uri/2009/osb"
   xmlns:dc="http://purl.org/dc/elements/1.1/"
   xmlns:cc="http://creativecommons.org/ns#"
   xmlns:rdf="http://www.w3.org/1999/02/22-rdf-syntax-ns#"
   xmlns:svg="http://www.w3.org/2000/svg"
   xmlns="http://www.w3.org/2000/svg"
   xmlns:xlink="http://www.w3.org/1999/xlink"
   xmlns:sodipodi="http://sodipodi.sourceforge.net/DTD/sodipodi-0.dtd"
   xmlns:inkscape="http://www.inkscape.org/namespaces/inkscape"
   id="svg2"
   version="1.1"
   inkscape:version="0.92.1 r15371"
   width="500"
   height="500"
   sodipodi:docname="drive-network.svg">
  <metadata
     id="metadata8">
    <rdf:RDF>
      <cc:Work
         rdf:about="">
        <dc:format>image/svg+xml</dc:format>
        <dc:type
           rdf:resource="http://purl.org/dc/dcmitype/StillImage" />
        <dc:title></dc:title>
      </cc:Work>
    </rdf:RDF>
  </metadata>
  <defs
     id="defs6">
    <linearGradient
       id="linearGradient6238"
       osb:paint="solid">
      <stop
         style="stop-color:#394050;stop-opacity:1;"
         offset="0"
         id="stop6236" />
    </linearGradient>
    <linearGradient
       id="linearGradient5996"
       osb:paint="solid">
      <stop
         style="stop-color:#000000;stop-opacity:1;"
         offset="0"
         id="stop5994" />
    </linearGradient>
    <radialGradient
       fx="0"
       fy="0"
       cx="0"
       cy="0"
       r="1"
       gradientUnits="userSpaceOnUse"
       gradientTransform="matrix(152.56515,-152.56515,-152.56515,-152.56515,34,181)"
       spreadMethod="pad"
       id="radialGradient250">
      <stop
         style="stop-opacity:1;stop-color:#ffffff"
         offset="0"
         id="stop244" />
      <stop
         style="stop-opacity:1;stop-color:#ffffff"
         offset="0.57776751"
         id="stop246" />
      <stop
         style="stop-opacity:1;stop-color:#ffffff"
         offset="1"
         id="stop248" />
    </radialGradient>
    <radialGradient
       fx="0"
       fy="0"
       cx="0"
       cy="0"
       r="1"
       gradientUnits="userSpaceOnUse"
       gradientTransform="matrix(152.56515,-152.56515,-152.56515,-152.56515,34,181)"
       spreadMethod="pad"
       id="radialGradient4652">
      <stop
         style="stop-opacity:1;stop-color:#ffffff"
         offset="0"
         id="stop4646" />
      <stop
         style="stop-opacity:1;stop-color:#ffffff"
         offset="0.57776751"
         id="stop4648" />
      <stop
         style="stop-opacity:1;stop-color:#ffffff"
         offset="1"
         id="stop4650" />
    </radialGradient>
    <linearGradient
       id="linearGradient4714"
       osb:paint="solid">
      <stop
         style="stop-color:#ffffff;stop-opacity:0;"
         offset="0"
         id="stop4712" />
    </linearGradient>
    <linearGradient
       id="linearGradient4694"
       osb:paint="solid">
      <stop
         style="stop-color:#ffffff;stop-opacity:1;"
         offset="0"
         id="stop4692" />
    </linearGradient>
    <linearGradient
       inkscape:collect="always"
       xlink:href="#linearGradient4714"
       id="linearGradient6240"
       x1="235.18552"
       y1="198.29346"
       x2="326.16946"
       y2="198.29346"
       gradientUnits="userSpaceOnUse"
       gradientTransform="matrix(1.1502874,0,0,1.1502874,-64.170776,-24.043988)" />
  </defs>
  <sodipodi:namedview
     pagecolor="#ffffff"
     bordercolor="#666666"
     borderopacity="1"
     objecttolerance="10"
     gridtolerance="10"
     guidetolerance="10"
     inkscape:pageopacity="0"
     inkscape:pageshadow="2"
     inkscape:window-width="1366"
     inkscape:window-height="740"
     id="namedview4"
     showgrid="false"
     inkscape:zoom="0.96460809"
     inkscape:cx="33.357819"
     inkscape:cy="231.3657"
     inkscape:window-x="0"
     inkscape:window-y="0"
     inkscape:window-maximized="1"
     inkscape:current-layer="svg2" />
  <g
     id="Calque.__202"
     transform="matrix(0.46702559,0,0,0.4763699,5.63116,-2.8228282)">
    <g
       id="shape">
      <path
         id="path"
         d="M 919.15,109.8 Q 918.7,89.9 904.5,75.7 C 894.75,65.95 882.95,61.05 869.15,61.05 l -674.2,0 c -13.8,0 -25.6,4.9 -35.35,14.65 -9.45,9.45 -14.35,20.85 -14.65,34.1 l 0,843.25 c 0,13.8 4.9,25.6 14.65,35.35 9.75,9.75 21.55,14.65 35.35,14.65 l 674.2,0 c 13.8,0 25.6,-4.9 35.35,-14.65 9.75,-9.75 14.65,-21.55 14.65,-35.35 l 0,-843.25 z"
         inkscape:connector-curvature="0"
         style="fill:#000000;fill-opacity:0.09803922" />
    </g>
  </g>
  <path
     id="path1"
     d="m 431.82676,31.978822 c -4.64461,-4.64461 -10.26577,-6.97882 -16.83968,-6.97882 l -321.16858,0 c -6.57391,0 -12.19507,2.33421 -16.83968,6.97882 -4.5017,4.50169 -6.83591,9.93231 -6.97882,16.24421 l 0,-0.0119 0,345.165758 q 0.21818,9.4597 6.97882,16.2204 c 4.64461,4.6445 10.26577,6.9787 16.83968,6.9787 l 321.16858,0 c 6.57391,0 12.19507,-2.3342 16.83968,-6.9787 4.5017,-4.5017 6.83591,-9.9085 6.97882,-16.2204 l 0,-345.165758 0,0.0119 c -0.14291,-6.3119 -2.47712,-11.74252 -6.97882,-16.24421 z"
     inkscape:connector-curvature="0"
     style="fill:#ebebeb;fill-opacity:1" />
  <path
     id="path2"
     d="M 76.97882,409.59729 Q 70.21818,402.83659 70,393.37689 l 0,56.545 c 0,6.5739 2.33421,12.1951 6.97882,16.8397 4.64461,4.6446 10.26577,6.9788 16.83968,6.9788 l 321.16858,0 c 6.57391,0 12.19507,-2.3342 16.83968,-6.9788 4.64461,-4.6446 6.97882,-10.2658 6.97882,-16.8397 l 0,-56.545 c -0.14291,6.3119 -2.47712,11.7187 -6.97882,16.2204 -4.64461,4.6445 -10.26577,6.9787 -16.83968,6.9787 l -321.16858,0 c -6.57391,0 -12.19507,-2.3342 -16.83968,-6.9787 z"
     inkscape:connector-curvature="0"
     style="fill:#5d6a7b;fill-opacity:0.98823529" />
  <g
     transform="matrix(0.4763699,0,0,0.4763699,4.2767,-2.8228282)"
     id="Calque.__204"
     style="fill:#394050">
    <g
       id="Symbole.__2026_1"
       overflow="visible"
       style="fill:#394050;overflow:visible">
      <g
         id="Calque.__208"
         style="fill:#394050">
        <g
           id="shape17"
           style="fill:#394050">
          <path
             inkscape:connector-curvature="0"
             id="path11"
             d="m 518,918 q 0,-8.3 -5.85,-14.15 C 508.25,899.95 503.55,898 498,898 l -302,0 c -5.55,0 -10.25,1.95 -14.15,5.85 -3.9,3.9 -5.85,8.6 -5.85,14.15 l 0,8.2 c 0,5.55 1.95,10.25 5.85,14.15 3.9,3.9 8.6,5.85 14.15,5.85 l 302,0 c 5.55,0 10.25,-1.95 14.15,-5.85 3.9,-3.9 5.85,-8.6 5.85,-14.15 l 0,-8.2 z"
             style="fill:#394050;fill-opacity:1" />
        </g>
      </g>
    </g>
  </g>
  <g
     transform="matrix(0.4763699,0,0,0.4763699,4.2767,-2.8228282)"
     id="Calque.__205">
    <g
       id="shape6">
      <path
         style="fill:#000000;fill-opacity:0.2"
         inkscape:connector-curvature="0"
         id="path3"
         d="M 849.65,912.15 Q 843.1,905.6 833.8,905.6 c -6.2,0 -11.5,2.2 -15.9,6.55 -4.35,4.4 -6.55,9.7 -6.55,15.9 0,6.2 2.2,11.5 6.55,15.85 4.4,4.4 9.7,6.6 15.9,6.6 6.2,0 11.5,-2.2 15.85,-6.6 4.4,-4.35 6.6,-9.65 6.6,-15.85 0,-6.2 -2.2,-11.5 -6.6,-15.9 z m -64.85,15.9 c 0,-6.2 -2.2,-11.5 -6.6,-15.9 -4.35,-4.35 -9.65,-6.55 -15.85,-6.55 -6.2,0 -11.5,2.2 -15.9,6.55 -4.35,4.4 -6.55,9.7 -6.55,15.9 0,6.2 2.2,11.5 6.55,15.85 4.4,4.4 9.7,6.6 15.9,6.6 6.2,0 11.5,-2.2 15.85,-6.6 4.4,-4.35 6.6,-9.65 6.6,-15.85 z" />
    </g>
  </g>
  <path
     id="path6"
     d="m 339.35529,303.00665 q 37.75231,-37.75231 37.75231,-91.15338 c 0,-35.60865 -12.57616,-65.97723 -37.75231,-91.15338 -25.17615,-25.176148 -55.54473,-37.752318 -91.15338,-37.752318 -35.60865,0 -65.97724,12.57617 -91.15338,37.752318 -25.17615,25.17615 -37.75232,55.54473 -37.75232,91.15338 0,35.60865 12.57617,65.97723 37.75232,91.15338 25.17614,25.17615 55.54473,37.75232 91.15338,37.75232 35.60865,0 65.97723,-12.57617 91.15338,-37.75232 z"
     inkscape:connector-curvature="0"
     style="fill:#ffffff;fill-opacity:0.09803922" />
  <path
     id="path7"
     d="m 399.21117,445.20309 c 2.95349,0 5.47825,-1.048 7.55046,-3.1441 2.09603,-2.0722 3.14404,-4.5969 3.14404,-7.5504 0,-2.9535 -1.04801,-5.4783 -3.14404,-7.5743 -2.07221,-2.0722 -4.59697,-3.1202 -7.55046,-3.1202 -2.9535,0 -5.47826,1.048 -7.57429,3.1202 -2.0722,2.096 -3.12022,4.6208 -3.12022,7.5743 0,2.9535 1.04802,5.4782 3.12022,7.5504 2.09603,2.0961 4.62079,3.1441 7.57429,3.1441 z m -23.34213,-10.6945 c 0,-2.9535 -1.04801,-5.4783 -3.14404,-7.5743 -2.07221,-2.0722 -4.59697,-3.1202 -7.55046,-3.1202 -2.9535,0 -5.47826,1.048 -7.57429,3.1202 -2.0722,2.096 -3.12022,4.6208 -3.12022,7.5743 0,2.9535 1.04802,5.4782 3.12022,7.5504 2.09603,2.0961 4.62079,3.1441 7.57429,3.1441 2.95349,0 5.47825,-1.048 7.55046,-3.1441 2.09603,-2.0722 3.14404,-4.5969 3.14404,-7.5504 z"
     inkscape:connector-curvature="0"
     style="fill:#ffcc00;fill-opacity:1" />
  <path
     inkscape:connector-curvature="0"
     style="fill:#394050;fill-opacity:0;stroke:#394050;stroke-width:12.43587685;stroke-opacity:1"
     d="m 350.40781,210.4391 c 0,55.72119 -45.17995,100.90114 -100.9008,100.90114 -55.72119,0 -100.90115,-45.17995 -100.90115,-100.90114 0,-55.72102 45.17996,-100.90099 100.90115,-100.90099 55.72085,0 100.9008,45.17997 100.9008,100.90099 z"
     id="Stroke-1" />
  <path
     inkscape:connector-curvature="0"
     style="fill:#394050;fill-opacity:0;stroke:#394050;stroke-width:13.17359734;stroke-opacity:1"
     d="M 347.13617,235.96239 C 228.13249,257.82822 174.7144,182.29492 161.89411,160.31035"
     id="Stroke-3" />
  <path
     inkscape:connector-curvature="0"
     style="fill:#394050;fill-opacity:0;stroke:#394050;stroke-width:13.17359734;stroke-opacity:1"
     d="M 164.48881,264.7667 C 169.36775,239.209 193.85714,153.05142 304.69355,125.97433"
     id="Stroke-5" />
  <path
     inkscape:connector-curvature="0"
     style="fill:url(#linearGradient6240);fill-opacity:1;stroke:#394050;stroke-width:13.17359734;stroke-opacity:1"
     d="M 303.67876,295.56407 C 313.03313,180.16892 233.21423,130.14569 209.37797,117.85952"
     id="Stroke-7" />
  <path
     inkscape:connector-curvature="0"
     style="fill:#394050;fill-opacity:1;stroke:#394050;stroke-width:13.17359734;stroke-opacity:1"
     d="m 300.97616,239.82753 c 0,0 -53.13373,27.68243 -82.20471,66.72524"
     id="Stroke-9" />
  <path
     inkscape:connector-curvature="0"
     style="fill:#394050;fill-opacity:1;stroke-width:2.53338456"
     d="m 267.08029,147.41281 c 0,9.82898 -7.977,17.80608 -17.80598,17.80608 -9.82898,0 -17.80599,-7.9771 -17.80599,-17.80608 0,-9.82897 7.97701,-17.80607 17.80599,-17.80607 9.82898,0 17.80598,7.9771 17.80598,17.80607"
     id="Fill-11" />
  <path
     inkscape:connector-curvature="0"
     style="fill:#394050;fill-opacity:1;stroke-width:2.53338456"
     d="m 211.76746,197.18905 c 0,9.82898 -7.97712,17.80607 -17.80611,17.80607 -9.82885,0 -17.80599,-7.97709 -17.80599,-17.80607 0,-9.82889 7.97714,-17.806 17.80599,-17.806 9.82899,0 17.80611,7.97711 17.80611,17.806"
     id="Fill-13" />
  <path
     inkscape:connector-curvature="0"
     style="fill:#394050;fill-opacity:1;stroke-width:2.53338456"
     d="m 318.78215,239.89159 c 0,9.82894 -7.97747,17.80608 -17.80599,17.80608 -9.82897,0 -17.8061,-7.97714 -17.8061,-17.80608 0,-9.8289 7.97713,-17.80603 17.8061,-17.80603 9.82852,0 17.80599,7.97713 17.80599,17.80603"
     id="Fill-15" />
</svg>
