<?xml version="1.0" encoding="UTF-8" standalone="no"?>
<svg
   xmlns:dc="http://purl.org/dc/elements/1.1/"
   xmlns:cc="http://creativecommons.org/ns#"
   xmlns:rdf="http://www.w3.org/1999/02/22-rdf-syntax-ns#"
   xmlns:svg="http://www.w3.org/2000/svg"
   xmlns="http://www.w3.org/2000/svg"
   xmlns:sodipodi="http://sodipodi.sourceforge.net/DTD/sodipodi-0.dtd"
   xmlns:inkscape="http://www.inkscape.org/namespaces/inkscape"
   width="48px"
   height="48px"
   viewBox="0 0 48 48"
   version="1.1"
   id="svg2"
   inkscape:version="0.91 r13725"
   sodipodi:docname="deepin-launcher.svg">
  <metadata
     id="metadata40">
    <rdf:RDF>
      <cc:Work
         rdf:about="">
        <dc:format>image/svg+xml</dc:format>
        <dc:type
           rdf:resource="http://purl.org/dc/dcmitype/StillImage" />
      </cc:Work>
    </rdf:RDF>
  </metadata>
  <sodipodi:namedview
     pagecolor="#ffffff"
     bordercolor="#666666"
     borderopacity="1"
     objecttolerance="10"
     gridtolerance="10"
     guidetolerance="10"
     inkscape:pageopacity="0"
     inkscape:pageshadow="2"
     inkscape:window-width="1360"
     inkscape:window-height="740"
     id="namedview38"
     showgrid="false"
     inkscape:zoom="4.9166667"
     inkscape:cx="80.417979"
     inkscape:cy="24"
     inkscape:window-x="0"
     inkscape:window-y="0"
     inkscape:window-maximized="1"
     inkscape:current-layer="svg2" />
  <!-- Generator: Sketch 3.8.1 (29687) - http://www.bohemiancoding.com/sketch -->
  <title
     id="title4">启动器－2</title>
  <desc
     id="desc6">Created with Sketch.</desc>
  <defs
     id="defs8">
    <filter
       x="-50%"
       y="-50%"
       width="200%"
       height="200%"
       filterUnits="objectBoundingBox"
       id="filter-1">
      <feOffset
         dx="0"
         dy="1"
         in="SourceAlpha"
         result="shadowOffsetOuter1"
         id="feOffset11" />
      <feGaussianBlur
         stdDeviation="0.5"
         in="shadowOffsetOuter1"
         result="shadowBlurOuter1"
         id="feGaussianBlur13" />
      <feColorMatrix
         values="0 0 0 0 0   0 0 0 0 0   0 0 0 0 0  0 0 0 0.2 0"
         type="matrix"
         in="shadowBlurOuter1"
         result="shadowMatrixOuter1"
         id="feColorMatrix15" />
      <feMerge
         id="feMerge17">
        <feMergeNode
           in="shadowMatrixOuter1"
           id="feMergeNode19" />
        <feMergeNode
           in="SourceGraphic"
           id="feMergeNode21" />
      </feMerge>
    </filter>
    <linearGradient
       x1="21"
       y1="-4.935409"
       x2="21"
       y2="40"
       id="linearGradient-2"
       gradientUnits="userSpaceOnUse">
      <stop
         stop-color="#9228C8"
         offset="0%"
         id="stop24" />
      <stop
         stop-color="#5418F3"
         offset="100%"
         id="stop26" />
    </linearGradient>
  </defs>
  <circle
     id="Oval-183"
     cx="21"
     cy="21"
     r="21"
     style="fill:#ffffff;fill-rule:evenodd;stroke:none;stroke-width:1;filter:url(#filter-1)"
     transform="matrix(-0.8660254,-0.5,-0.5,0.8660254,52.686533,16.313467)" />
  <circle
     id="circle33"
     cx="21"
     cy="21"
     r="19"
     style="fill:#63bae9;fill-rule:evenodd;stroke:none;stroke-width:1;filter:url(#filter-1);fill-opacity:1"
     transform="matrix(-0.8660254,-0.5,-0.5,0.8660254,52.686533,16.313467)" />
  <path
     d="m 15.0625,17.459375 c 0,-1.938363 0.292717,-3.780307 0.755108,-5.442708 l 10.364784,0 c 0.462391,1.662401 0.755108,3.504345 0.755108,5.442708 0,1.038776 -0.05269,2.11049 -0.152393,3.172335 1.123625,0.307142 4.052872,1.327853 3.682795,3.548319 -0.504697,3.028187 -3.068863,5.5843 -3.068863,5.5843 0,0 -0.103924,0.205795 -0.400257,0.252267 -0.379229,0.05916 -0.245913,-0.151251 -0.245913,-0.151251 0,0 0.483168,-1.274053 0.887783,-3.166138 0.18771,-0.877857 -0.790794,-1.279781 -1.611841,-1.461246 C 25.679329,26.66315 25.008142,28.074827 24.5,29 l -7,0 c -0.508142,-0.925173 -1.179329,-2.33685 -1.528811,-3.762039 -0.821047,0.181465 -1.799551,0.583389 -1.611841,1.461246 0.404615,1.892085 0.887783,3.166138 0.887783,3.166138 0,0 0.133316,0.210408 -0.245913,0.151251 -0.296333,-0.04647 -0.400257,-0.252267 -0.400257,-0.252267 0,0 -2.564166,-2.556113 -3.068863,-5.5843 -0.370077,-2.220466 2.55917,-3.241177 3.682795,-3.548319 C 15.115193,19.569865 15.0625,18.498151 15.0625,17.459375 Z M 25.880825,11.027083 C 24.510891,6.8979219 22.160271,4.0999999 21,4.0999999 c -1.160271,0 -3.510891,2.797922 -4.880825,6.9270831 l 9.76165,0 0,0 0,0 z"
     id="Combined-Shape"
     inkscape:connector-curvature="0"
     style="fill:#ffffff;fill-rule:evenodd;stroke:none;stroke-width:1;filter:url(#filter-1)"
     transform="matrix(-0.8660254,-0.5,-0.5,0.8660254,52.68653,16.313467)" />
  <path
     d="m 23,31 1,0 c -1e-6,3.667045 1.5,6 5,6 2,0 4.5,-1.5 6,-3 0.08161,-0.451916 -2.997654,7 -13.998827,7 C 10,41 6.9207376,33.548084 7.0023463,34 c 1.5,1.5 3.9999997,3 5.9999997,3 3.5,0 5.000001,-2.332955 5,-6 l 1,0 c 0,1.72e-4 0,2.943617 1.998827,4.499144 C 23,33.943617 23,31.000172 23,31 Z"
     id="path36"
     inkscape:connector-curvature="0"
     style="fill:#ffffff;fill-rule:evenodd;stroke:none;stroke-width:1;filter:url(#filter-1)"
     transform="matrix(-0.8660254,-0.5,-0.5,0.8660254,52.68653,16.313467)" />
</svg>
