<?xml version="1.0" encoding="UTF-8" standalone="no"?>
<svg
   xmlns:dc="http://purl.org/dc/elements/1.1/"
   xmlns:cc="http://creativecommons.org/ns#"
   xmlns:rdf="http://www.w3.org/1999/02/22-rdf-syntax-ns#"
   xmlns:svg="http://www.w3.org/2000/svg"
   xmlns="http://www.w3.org/2000/svg"
   xmlns:sodipodi="http://sodipodi.sourceforge.net/DTD/sodipodi-0.dtd"
   xmlns:inkscape="http://www.inkscape.org/namespaces/inkscape"
   width="48px"
   height="48px"
   viewBox="0 0 48 48"
   version="1.1"
   id="svg25"
   sodipodi:docname="apps.de.danoeh.antennapod.svg"
   inkscape:version="0.92.0 r15299">
  <metadata
     id="metadata29">
    <rdf:RDF>
      <cc:Work
         rdf:about="">
        <dc:format>image/svg+xml</dc:format>
        <dc:type
           rdf:resource="http://purl.org/dc/dcmitype/StillImage" />
      </cc:Work>
    </rdf:RDF>
  </metadata>
  <sodipodi:namedview
     pagecolor="#ffffff"
     bordercolor="#666666"
     borderopacity="1"
     objecttolerance="10"
     gridtolerance="10"
     guidetolerance="10"
     inkscape:pageopacity="0"
     inkscape:pageshadow="2"
     inkscape:window-width="1600"
     inkscape:window-height="872"
     id="namedview27"
     showgrid="false"
     inkscape:zoom="4.9166667"
     inkscape:cx="24.40678"
     inkscape:cy="24"
     inkscape:window-x="0"
     inkscape:window-y="0"
     inkscape:window-maximized="1"
     inkscape:current-layer="svg25" />
  <!-- Generator: Sketch 3.6.1 (26313) - http://www.bohemiancoding.com/sketch -->
  <title
     id="title2">AntennaPod</title>
  <desc
     id="desc4">Created with Sketch.</desc>
  <defs
     id="defs19">
    <filter
       x="-50%"
       y="-50%"
       width="200%"
       height="200%"
       filterUnits="objectBoundingBox"
       id="filter-1">
      <feOffset
         dx="0"
         dy="1"
         in="SourceAlpha"
         result="shadowOffsetOuter1"
         id="feOffset6" />
      <feGaussianBlur
         stdDeviation="0.5"
         in="shadowOffsetOuter1"
         result="shadowBlurOuter1"
         id="feGaussianBlur8" />
      <feColorMatrix
         values="0 0 0 0 0   0 0 0 0 0   0 0 0 0 0  0 0 0 0.21 0"
         in="shadowBlurOuter1"
         type="matrix"
         result="shadowMatrixOuter1"
         id="feColorMatrix10" />
      <feMerge
         id="feMerge16">
        <feMergeNode
           in="shadowMatrixOuter1"
           id="feMergeNode12" />
        <feMergeNode
           in="SourceGraphic"
           id="feMergeNode14" />
      </feMerge>
    </filter>
  </defs>
  <g
     id="Page-1"
     transform="matrix(1.0843483,0,0,1.0805224,-1.8463937,-2.0088084)"
     style="fill:none;fill-rule:evenodd;stroke:none;stroke-width:1">
    <g
       id="AntennaPod">
      <circle
         id="Oval-1"
         cx="24"
         cy="24"
         r="21"
         style="fill:#008bba;filter:url(#filter-1)" />
      <path
         d="M 24.740225,23.67117 C 25.492864,23.240316 26,22.429382 26,21.5 26,20.119288 24.880712,19 23.5,19 22.119288,19 21,20.119288 21,21.5 c 0,0.871435 0.445867,1.638732 1.12192,2.086209 l -8.945151,18.32719 1.438054,0.687212 2.738264,-5.566508 14.468468,4.077426 0.939067,1.811869 1.416147,-0.73129 z m 3.283929,10.113521 -9.724155,2.815307 13.06411,3.62892 z m -0.630989,-1.217452 -6.606258,-2.513611 0.04778,-0.09712 4.176044,-1.986033 z m -2.644578,-5.102542 -3.457853,1.564722 2.078701,-4.225707 z m -4.215074,3.104047 7.079351,2.707985 -9.815103,2.853415 z M 29.40672,22 c 0,-3.443357 -2.724335,-6.32278 -6.28947,-6.698186 l -0.105854,0.912139 C 26.089691,16.538095 28.443313,19.025702 28.443313,22 Z m -6.377573,-8.937595 c 4.895077,0.341412 8.710806,4.23535 8.710806,8.937595 h 0.963407 c 0,-5.183926 -4.206239,-9.476378 -9.603861,-9.85284 z M 36,22 C 36,15.078685 30.314764,9.3768051 23.090661,9 l -0.05268,0.9163228 C 29.751919,10.266518 35.036594,15.566663 35.036594,22 Z"
         id="Combined-Shape"
         inkscape:connector-curvature="0"
         style="fill:#ffffff" />
    </g>
  </g>
</svg>
