<?xml version="1.0" encoding="UTF-8" standalone="no"?>
<svg
   xmlns:dc="http://purl.org/dc/elements/1.1/"
   xmlns:cc="http://creativecommons.org/ns#"
   xmlns:rdf="http://www.w3.org/1999/02/22-rdf-syntax-ns#"
   xmlns:svg="http://www.w3.org/2000/svg"
   xmlns="http://www.w3.org/2000/svg"
   xmlns:sodipodi="http://sodipodi.sourceforge.net/DTD/sodipodi-0.dtd"
   xmlns:inkscape="http://www.inkscape.org/namespaces/inkscape"
   viewBox="0 0 48 48"
   id="svg2"
   version="1.1"
   inkscape:version="0.91 r13725"
   sodipodi:docname="cellwriter.svg">
  <metadata
     id="metadata39">
    <rdf:RDF>
      <cc:Work
         rdf:about="">
        <dc:format>image/svg+xml</dc:format>
        <dc:type
           rdf:resource="http://purl.org/dc/dcmitype/StillImage" />
      </cc:Work>
    </rdf:RDF>
  </metadata>
  <sodipodi:namedview
     pagecolor="#ffffff"
     bordercolor="#666666"
     borderopacity="1"
     objecttolerance="10"
     gridtolerance="10"
     guidetolerance="10"
     inkscape:pageopacity="0"
     inkscape:pageshadow="2"
     inkscape:window-width="1360"
     inkscape:window-height="740"
     id="namedview37"
     showgrid="false"
     inkscape:zoom="4.9166667"
     inkscape:cx="24"
     inkscape:cy="24"
     inkscape:window-x="0"
     inkscape:window-y="0"
     inkscape:window-maximized="1"
     inkscape:current-layer="svg2" />
  <defs
     id="defs4">
    <linearGradient
       id="linearGradient3764"
       x1="1"
       x2="47"
       gradientUnits="userSpaceOnUse"
       gradientTransform="matrix(0,-1,1,0,-1.5e-6,47.999998)">
      <stop
         style="stop-color:#e4e4e4;stop-opacity:1"
         id="stop7" />
      <stop
         offset="1"
         style="stop-color:#eee;stop-opacity:1"
         id="stop9" />
    </linearGradient>
  </defs>
  <g
     id="g11">
    <path
       d="m 36.31 5 c 5.859 4.062 9.688 10.831 9.688 18.5 c 0 12.426 -10.07 22.5 -22.5 22.5 c -7.669 0 -14.438 -3.828 -18.5 -9.688 c 1.037 1.822 2.306 3.499 3.781 4.969 c 4.085 3.712 9.514 5.969 15.469 5.969 c 12.703 0 23 -10.298 23 -23 c 0 -5.954 -2.256 -11.384 -5.969 -15.469 c -1.469 -1.475 -3.147 -2.744 -4.969 -3.781 z m 4.969 3.781 c 3.854 4.113 6.219 9.637 6.219 15.719 c 0 12.703 -10.297 23 -23 23 c -6.081 0 -11.606 -2.364 -15.719 -6.219 c 4.16 4.144 9.883 6.719 16.219 6.719 c 12.703 0 23 -10.298 23 -23 c 0 -6.335 -2.575 -12.06 -6.719 -16.219 z"
       style="opacity:0.05"
       id="path13" />
    <path
       d="m 41.28 8.781 c 3.712 4.085 5.969 9.514 5.969 15.469 c 0 12.703 -10.297 23 -23 23 c -5.954 0 -11.384 -2.256 -15.469 -5.969 c 4.113 3.854 9.637 6.219 15.719 6.219 c 12.703 0 23 -10.298 23 -23 c 0 -6.081 -2.364 -11.606 -6.219 -15.719 z"
       style="opacity:0.1"
       id="path15" />
    <path
       d="m 31.25 2.375 c 8.615 3.154 14.75 11.417 14.75 21.13 c 0 12.426 -10.07 22.5 -22.5 22.5 c -9.708 0 -17.971 -6.135 -21.12 -14.75 a 23 23 0 0 0 44.875 -7 a 23 23 0 0 0 -16 -21.875 z"
       style="opacity:0.2"
       id="path17" />
  </g>
  <g
     id="g19">
    <path
       d="m 24 1 c 12.703 0 23 10.297 23 23 c 0 12.703 -10.297 23 -23 23 -12.703 0 -23 -10.297 -23 -23 0 -12.703 10.297 -23 23 -23 z"
       style="fill:url(#linearGradient3764);fill-opacity:1"
       id="path21" />
  </g>
  <g
     id="g25">
    <path
       d="m 40.03 7.531 c 3.712 4.084 5.969 9.514 5.969 15.469 0 12.703 -10.297 23 -23 23 c -5.954 0 -11.384 -2.256 -15.469 -5.969 4.178 4.291 10.01 6.969 16.469 6.969 c 12.703 0 23 -10.298 23 -23 0 -6.462 -2.677 -12.291 -6.969 -16.469 z"
       style="opacity:0.1"
       id="path27" />
  </g>
  <g
     transform="matrix(0.71530647,0,0,0.74374091,6.7265818,6.5077532)"
     id="g7">
    <g
       id="g9">
      <path
         inkscape:connector-curvature="0"
         id="path11"
         d="M 25.889,34.447"
         style="fill:#635d57" />
      <path
         inkscape:connector-curvature="0"
         id="path13-3"
         d="M 25.889,34.447"
         style="fill:#4a4541" />
      <path
         inkscape:connector-curvature="0"
         id="path15-6"
         d="M 25.889,34.447"
         style="fill:#635d57" />
      <path
         inkscape:connector-curvature="0"
         id="path17-7"
         d="M 25.889,34.447"
         style="fill:#4a4541" />
      <path
         inkscape:connector-curvature="0"
         id="path19"
         d="M 25.89,35.019"
         style="fill:#20201f" />
      <path
         inkscape:connector-curvature="0"
         id="path21-5"
         d="M 25.89,35.019"
         style="fill:#20201f" />
      <path
         inkscape:connector-curvature="0"
         id="path23"
         d="m 27.314,17.226 -8.485,8.485 c -1.562,1.562 -2.979,5.475 -1.417,7.037 l 11.313,11.313 c 1.562,1.562 4.805,0.889 6.367,-0.672 l 9.192,-9.192 c 1.562,-1.562 2.266,-4.837 0.704,-6.399 L 33.675,16.484 c -1.562,-1.562 -4.799,-0.82 -6.361,0.742 z m 15.556,15.556 -9.192,9.192 c -0.802,0.802 -2.702,1.288 -3.409,0.581 L 43.516,29.308 c 0.692,0.722 0.232,2.596 -0.646,3.474 z"
         style="fill:#ffbb00" />
      <path
         inkscape:connector-curvature="0"
         id="path25"
         d="M 33.694,16.503 17.43,32.766 3.315,18.651 C 2.925,18.261 2.882,17.616 3.272,17.226 l 14.85,-14.85 c 0.389,-0.389 1.068,-0.378 1.457,0.011 l 14.115,14.116 z"
         style="fill:#2b2822" />
      <g
         id="g27">
        <rect
           id="rect29"
           height="7.9819999"
           width="1.992"
           style="fill:#feffbe"
           transform="matrix(0.7071,-0.7071,0.7071,0.7071,-10.8636,12.5419)"
           y="15.394"
           x="8.7110004" />
      </g>
      <g
         id="g31">
        <rect
           id="rect33"
           height="6.0009999"
           width="2"
           style="fill:#feffbe"
           transform="matrix(0.7069,-0.7073,0.7073,0.7069,-7.334,13.9782)"
           y="12.838"
           x="12.199" />
        <rect
           id="rect35"
           height="6"
           width="2.0009999"
           style="fill:#feffbe"
           transform="matrix(0.7071,-0.7071,0.7071,0.7071,-3.798,15.4366)"
           y="9.3030005"
           x="15.734" />
      </g>
      <g
         id="g37">
        <rect
           id="rect39"
           height="1.9960001"
           width="1.992"
           style="fill:#feffbe"
           transform="matrix(0.7073,-0.7069,0.7069,0.7073,-10.8454,22.4593)"
           y="23.327999"
           x="20.702" />
        <rect
           id="rect41"
           height="1.995"
           width="1.992"
           style="fill:#feffbe"
           transform="matrix(0.7071,-0.7071,0.7071,0.7071,-7.3217,23.9259)"
           y="19.804001"
           x="24.226" />
      </g>
      <rect
         id="rect43"
         height="8"
         width="2"
         style="fill:#feffbe"
         transform="matrix(0.7071,-0.7071,0.7071,0.7071,-0.2355,16.8805)"
         y="4.724"
         x="19.259001" />
    </g>
  </g>
</svg>
