<?xml version="1.0" encoding="UTF-8" standalone="no"?>
<svg
   xmlns:dc="http://purl.org/dc/elements/1.1/"
   xmlns:cc="http://creativecommons.org/ns#"
   xmlns:rdf="http://www.w3.org/1999/02/22-rdf-syntax-ns#"
   xmlns:svg="http://www.w3.org/2000/svg"
   xmlns="http://www.w3.org/2000/svg"
   xmlns:sodipodi="http://sodipodi.sourceforge.net/DTD/sodipodi-0.dtd"
   xmlns:inkscape="http://www.inkscape.org/namespaces/inkscape"
   viewBox="0 0 48 48"
   id="svg2"
   version="1.1"
   inkscape:version="0.91 r13725"
   sodipodi:docname="deepin-music-player.svg">
  <metadata
     id="metadata72">
    <rdf:RDF>
      <cc:Work
         rdf:about="">
        <dc:format>image/svg+xml</dc:format>
        <dc:type
           rdf:resource="http://purl.org/dc/dcmitype/StillImage" />
      </cc:Work>
    </rdf:RDF>
  </metadata>
  <sodipodi:namedview
     pagecolor="#ffffff"
     bordercolor="#666666"
     borderopacity="1"
     objecttolerance="10"
     gridtolerance="10"
     guidetolerance="10"
     inkscape:pageopacity="0"
     inkscape:pageshadow="2"
     inkscape:window-width="1360"
     inkscape:window-height="740"
     id="namedview70"
     showgrid="false"
     inkscape:zoom="4.9166667"
     inkscape:cx="-10.372881"
     inkscape:cy="17.513958"
     inkscape:window-x="0"
     inkscape:window-y="0"
     inkscape:window-maximized="1"
     inkscape:current-layer="svg2" />
  <defs
     id="defs4">
    <linearGradient
       id="linearGradient3764"
       x1="1"
       x2="47"
       gradientUnits="userSpaceOnUse"
       gradientTransform="matrix(0,-1,1,0,-1.5e-6,47.999998)">
      <stop
         stop-color="#e4e4e4"
         stop-opacity="1"
         id="stop7" />
      <stop
         offset="1"
         stop-color="#eee"
         stop-opacity="1"
         id="stop9" />
    </linearGradient>
    <clipPath
       id="clipPath-437090756">
      <g
         transform="translate(0,-1004.3622)"
         id="g12">
        <path
           d="m -24 13 c 0 1.105 -0.672 2 -1.5 2 -0.828 0 -1.5 -0.895 -1.5 -2 0 -1.105 0.672 -2 1.5 -2 0.828 0 1.5 0.895 1.5 2 z"
           transform="matrix(15.333333,0,0,11.5,414.99999,878.8622)"
           fill="#1890d0"
           id="path14" />
      </g>
    </clipPath>
    <clipPath
       id="clipPath-445377319">
      <g
         transform="translate(0,-1004.3622)"
         id="g17">
        <path
           d="m -24 13 c 0 1.105 -0.672 2 -1.5 2 -0.828 0 -1.5 -0.895 -1.5 -2 0 -1.105 0.672 -2 1.5 -2 0.828 0 1.5 0.895 1.5 2 z"
           transform="matrix(15.333333,0,0,11.5,414.99999,878.8622)"
           fill="#1890d0"
           id="path19" />
      </g>
    </clipPath>
    <linearGradient
       id="linear0"
       gradientUnits="userSpaceOnUse"
       y1="10.126"
       x2="0"
       y2="3.669"
       gradientTransform="scale(3.543307,3.543307)">
      <stop
         stop-color="#008ef3"
         stop-opacity="1"
         id="stop22" />
      <stop
         offset="1"
         stop-color="#00d4ff"
         stop-opacity="1"
         id="stop24" />
    </linearGradient>
    <linearGradient
       id="linearGradient26"
       gradientUnits="userSpaceOnUse"
       y1="10.126"
       x2="0"
       y2="3.669"
       gradientTransform="matrix(3.543307,0,0,3.543307,0,0)">
      <stop
         stop-color="#008ef3"
         stop-opacity="1"
         id="stop28" />
      <stop
         offset="1"
         stop-color="#00d4ff"
         stop-opacity="1"
         id="stop30" />
    </linearGradient>
    <linearGradient
       id="SVGID_1_"
       gradientUnits="userSpaceOnUse"
       x1="8.1311998"
       y1="18.0156"
       x2="39.961498"
       y2="18.0156">
      <stop
         offset="0"
         style="stop-color:#FFFFFF"
         id="stop20" />
      <stop
         offset="0.1233"
         style="stop-color:#C4C4C4"
         id="stop22-3" />
      <stop
         offset="0.2466"
         style="stop-color:#909090"
         id="stop24-6" />
      <stop
         offset="0.3718"
         style="stop-color:#646464"
         id="stop26" />
      <stop
         offset="0.497"
         style="stop-color:#404040"
         id="stop28-7" />
      <stop
         offset="0.6223"
         style="stop-color:#242424"
         id="stop30-5" />
      <stop
         offset="0.7476"
         style="stop-color:#101010"
         id="stop32" />
      <stop
         offset="0.8733"
         style="stop-color:#040404"
         id="stop34" />
      <stop
         offset="1"
         style="stop-color:#000000"
         id="stop36" />
    </linearGradient>
  </defs>
  <g
     id="g32">
    <path
       d="m 36.31 5 c 5.859 4.062 9.688 10.831 9.688 18.5 c 0 12.426 -10.07 22.5 -22.5 22.5 c -7.669 0 -14.438 -3.828 -18.5 -9.688 c 1.037 1.822 2.306 3.499 3.781 4.969 c 4.085 3.712 9.514 5.969 15.469 5.969 c 12.703 0 23 -10.298 23 -23 c 0 -5.954 -2.256 -11.384 -5.969 -15.469 c -1.469 -1.475 -3.147 -2.744 -4.969 -3.781 z m 4.969 3.781 c 3.854 4.113 6.219 9.637 6.219 15.719 c 0 12.703 -10.297 23 -23 23 c -6.081 0 -11.606 -2.364 -15.719 -6.219 c 4.16 4.144 9.883 6.719 16.219 6.719 c 12.703 0 23 -10.298 23 -23 c 0 -6.335 -2.575 -12.06 -6.719 -16.219 z"
       opacity="0.05"
       id="path34" />
    <path
       d="m 41.28 8.781 c 3.712 4.085 5.969 9.514 5.969 15.469 c 0 12.703 -10.297 23 -23 23 c -5.954 0 -11.384 -2.256 -15.469 -5.969 c 4.113 3.854 9.637 6.219 15.719 6.219 c 12.703 0 23 -10.298 23 -23 c 0 -6.081 -2.364 -11.606 -6.219 -15.719 z"
       opacity="0.1"
       id="path36" />
    <path
       d="m 31.25 2.375 c 8.615 3.154 14.75 11.417 14.75 21.13 c 0 12.426 -10.07 22.5 -22.5 22.5 c -9.708 0 -17.971 -6.135 -21.12 -14.75 a 23 23 0 0 0 44.875 -7 a 23 23 0 0 0 -16 -21.875 z"
       opacity="0.2"
       id="path38" />
  </g>
  <path
     inkscape:connector-curvature="0"
     style="fill:#92da00;fill-opacity:1"
     id="path42"
     d="M 24,1 C 36.703,1 47,11.297 47,24 47,36.703 36.703,47 24,47 11.297,47 1,36.703 1,24 1,11.297 11.297,1 24,1 Z" />
  <g
     id="g44" />
  <g
     id="g66">
    <path
       d="m 40.03 7.531 c 3.712 4.084 5.969 9.514 5.969 15.469 0 12.703 -10.297 23 -23 23 c -5.954 0 -11.384 -2.256 -15.469 -5.969 4.178 4.291 10.01 6.969 16.469 6.969 c 12.703 0 23 -10.298 23 -23 0 -6.462 -2.677 -12.291 -6.969 -16.469 z"
       opacity="0.1"
       id="path68" />
  </g>
  <g
     id="g15"
     transform="matrix(1.0897308,0,0,1.101695,-2.2048699,3.6772876)">
    <circle
       cx="24.016001"
       cy="18.016001"
       r="17"
       id="circle17"
       style="fill:#151e25" />
    <linearGradient
       id="linearGradient4316"
       gradientUnits="userSpaceOnUse"
       x1="8.1311998"
       y1="18.0156"
       x2="39.961498"
       y2="18.0156">
      <stop
         offset="0"
         style="stop-color:#FFFFFF"
         id="stop4318" />
      <stop
         offset="0.1233"
         style="stop-color:#C4C4C4"
         id="stop4320" />
      <stop
         offset="0.2466"
         style="stop-color:#909090"
         id="stop4322" />
      <stop
         offset="0.3718"
         style="stop-color:#646464"
         id="stop4324" />
      <stop
         offset="0.497"
         style="stop-color:#404040"
         id="stop4326" />
      <stop
         offset="0.6223"
         style="stop-color:#242424"
         id="stop4328" />
      <stop
         offset="0.7476"
         style="stop-color:#101010"
         id="stop4330" />
      <stop
         offset="0.8733"
         style="stop-color:#040404"
         id="stop4332" />
      <stop
         offset="1"
         style="stop-color:#000000"
         id="stop4334" />
    </linearGradient>
    <circle
       enable-background="new    "
       cx="24.016001"
       cy="18.016001"
       r="16"
       id="circle38"
       style="opacity:0.1;fill:url(#SVGID_1_)" />
    <circle
       cx="24.016001"
       cy="18.016001"
       r="7"
       id="circle40"
       style="fill:#6da600" />
    <g
       id="g42">
      <circle
         cx="24.016001"
         cy="18.016001"
         r="3"
         id="circle44"
         style="fill:#151e25" />
    </g>
  </g>
  <path
     d="m 29.811382,16.333141 c -1.660705,-1.958549 -1.806624,-3.208657 -1.706381,-3.712394 l 0.06867,-0.344852 c 0.133658,-0.671649 -0.124094,-1.289921 -0.53291,-1.374798 -0.409073,-0.08359 -0.867587,0.38765 -1.001242,1.059295 l -2.887204,14.395844 c -0.900314,-0.893765 -2.222471,-1.22108 -3.880778,-0.88042 -2.443442,0.502099 -4.222731,2.912713 -3.993171,5.123898 0.229559,2.211189 2.387078,3.500663 4.820287,2.883361 1.993026,-0.506927 3.549566,-2.136828 3.923521,-3.924642 0.03313,-0.09126 2.469757,-12.222874 2.469757,-12.222874 3.896531,2.279388 3.957429,5.50476 3.957429,5.50476 0.285451,2.397936 -1.145107,4.980352 -1.145107,4.980352 0,0 -0.141515,0.329488 0.05144,0.483235 0.244785,0.194295 0.432996,-0.106518 0.432996,-0.106518 2.01258,-3.27658 1.759899,-6.263814 1.759899,-6.263814 -0.101933,-3.309393 -2.337178,-5.600422 -2.337178,-5.600422 z"
     id="path55"
     inkscape:connector-curvature="0"
     style="fill:#ffffff" />
</svg>
