<?xml version="1.0" encoding="UTF-8" standalone="no"?>
<svg
   xmlns:dc="http://purl.org/dc/elements/1.1/"
   xmlns:cc="http://creativecommons.org/ns#"
   xmlns:rdf="http://www.w3.org/1999/02/22-rdf-syntax-ns#"
   xmlns:svg="http://www.w3.org/2000/svg"
   xmlns="http://www.w3.org/2000/svg"
   xmlns:sodipodi="http://sodipodi.sourceforge.net/DTD/sodipodi-0.dtd"
   xmlns:inkscape="http://www.inkscape.org/namespaces/inkscape"
   viewBox="0 0 48 48"
   version="1.1"
   id="svg61"
   sodipodi:docname="distributor-logo.svg"
   inkscape:version="0.92.1 r15371">
  <metadata
     id="metadata65">
    <rdf:RDF>
      <cc:Work
         rdf:about="">
        <dc:format>image/svg+xml</dc:format>
        <dc:type
           rdf:resource="http://purl.org/dc/dcmitype/StillImage" />
      </cc:Work>
    </rdf:RDF>
  </metadata>
  <sodipodi:namedview
     pagecolor="#ffffff"
     bordercolor="#666666"
     borderopacity="1"
     objecttolerance="10"
     gridtolerance="10"
     guidetolerance="10"
     inkscape:pageopacity="0"
     inkscape:pageshadow="2"
     inkscape:window-width="1360"
     inkscape:window-height="740"
     id="namedview63"
     showgrid="false"
     inkscape:zoom="4.9166667"
     inkscape:cx="24"
     inkscape:cy="34.149809"
     inkscape:window-x="0"
     inkscape:window-y="0"
     inkscape:window-maximized="1"
     inkscape:current-layer="svg61" />
  <defs
     id="defs17">
    <linearGradient
       id="linearGradient3764"
       x1="1"
       x2="47"
       gradientUnits="userSpaceOnUse"
       gradientTransform="matrix(0,-1,1,0,-1.5e-6,47.999998)">
      <stop
         stop-color="#e4e4e4"
         stop-opacity="1"
         id="stop2" />
      <stop
         offset="1"
         stop-color="#eee"
         stop-opacity="1"
         id="stop4" />
    </linearGradient>
    <clipPath
       id="clipPath-171310170">
      <g
         transform="translate(0,-1004.3622)"
         id="g9">
        <path
           d="m -24 13 c 0 1.105 -0.672 2 -1.5 2 -0.828 0 -1.5 -0.895 -1.5 -2 0 -1.105 0.672 -2 1.5 -2 0.828 0 1.5 0.895 1.5 2 z"
           transform="matrix(15.333333,0,0,11.5,414.99999,878.8622)"
           fill="#1890d0"
           id="path7" />
      </g>
    </clipPath>
    <clipPath
       id="clipPath-177359341">
      <g
         transform="translate(0,-1004.3622)"
         id="g14">
        <path
           d="m -24 13 c 0 1.105 -0.672 2 -1.5 2 -0.828 0 -1.5 -0.895 -1.5 -2 0 -1.105 0.672 -2 1.5 -2 0.828 0 1.5 0.895 1.5 2 z"
           transform="matrix(15.333333,0,0,11.5,414.99999,878.8622)"
           fill="#1890d0"
           id="path12" />
      </g>
    </clipPath>
    <linearGradient
       gradientTransform="matrix(0.37627117,0,0,0.37457628,-0.08135454,0.12881174)"
       id="SVGID_2_"
       gradientUnits="userSpaceOnUse"
       x1="59.2127"
       y1="4.1886001"
       x2="59.783699"
       y2="123.5745">
      <stop
         offset="0"
         style="stop-color:#22E1FD"
         id="stop11" />
      <stop
         offset="0.9662"
         style="stop-color:#0B53B6"
         id="stop13" />
    </linearGradient>
    <linearGradient
       gradientTransform="matrix(0.37627117,0,0,0.37457628,-0.08135454,0.12881174)"
       id="SVGID_1_"
       gradientUnits="userSpaceOnUse"
       x1="64"
       y1="4.0247002"
       x2="64"
       y2="124.0245">
      <stop
         offset="0"
         style="stop-color:#22E1FD"
         id="stop2-3" />
      <stop
         offset="0.9662"
         style="stop-color:#0B53B6"
         id="stop4-6" />
    </linearGradient>
  </defs>
  <g
     id="g31" />
  <path
     d="M 30.260968,2.4175707 C 18.24818,-1.0523658 5.6645023,5.7503889 2.1499115,17.615336 -1.3632644,29.478884 5.5256698,41.909095 17.538463,45.379032 29.548416,48.848968 42.13493,42.046213 45.646691,30.182666 49.15986,18.316319 42.27092,5.8875072 30.260968,2.4175707 Z"
     id="path15"
     inkscape:connector-curvature="0"
     style="fill:#ffffff;fill-rule:evenodd;stroke:none;stroke-width:0.26192614" />
  <path
     d="M 30.95938,4.8744575 C 27.994435,3.8144371 24.957263,3.5284913 22.009998,3.7970921 18.592645,4.0613853 16.924493,5.0982951 17.023229,4.9105575 11.435208,6.8659742 6.7107387,11.071415 4.5223944,16.969425 0.62610571,27.472916 6.1448635,39.088433 16.84639,42.912604 27.55234,46.736774 39.387088,41.321131 43.283371,30.817621 47.181132,20.314147 41.662375,8.7000702 30.95938,4.8744575 Z M 17.55079,41.013515 c -1.140595,-0.408707 -2.206033,-0.928612 -3.209576,-1.522158 4.986777,0.375474 11.494335,-0.75098 15.882821,-4.775892 0,0 8.365821,-6.550779 2.3136,-17.301234 0,0 0.97555,4.332528 -0.268196,7.896763 0,0 -1.186284,4.846649 -6.458942,6.254724 -7.76604,2.073837 -16.6152107,-3.253735 -20.3140329,-5.834472 -0.2785156,-2.652949 -0.030949,-5.394004 0.9608087,-8.068609 1.4706894,-3.96282 4.2352232,-7.054798 7.6127912,-9.1315332 -0.844392,5.7897092 -0.176836,11.1201652 0.782501,13.3528622 1.287953,2.993768 3.526405,6.485786 7.892778,6.933476 4.36638,0.449147 6.774295,-3.555553 6.774295,-3.555553 2.239921,-3.336041 2.59065,-8.126379 2.556754,-8.241918 -0.03389,-0.116916 -0.59683,-0.433243 -0.59683,-0.433243 -1.507525,5.978887 -3.993537,7.976167 -3.993537,7.976167 -3.919867,3.708649 -6.696198,1.136577 -6.696198,1.136577 -2.9841,-3.14108 -0.894495,-8.246241 -0.894495,-8.246241 1.168597,-3.477573 4.574166,-8.5668494 8.433604,-11.1548244 0.642508,0.1559934 1.289424,0.2527292 1.924568,0.4794798 2.335716,0.8347268 4.381119,2.0926072 6.111161,3.6378736 -2.822011,1.009476 -7.37848,3.143967 -7.37848,3.143967 -7.222277,2.980779 -7.710043,7.489496 -7.710043,7.489496 -0.747137,4.647366 3.015038,2.680387 3.015038,2.680387 3.872709,-1.848542 5.775182,-7.609357 5.775182,-7.609357 -1.208389,-0.225295 -2.160356,0.134371 -2.160356,0.134371 -1.545847,3.738983 -4.69941,5.277011 -4.69941,5.277011 -1.240798,0.644106 -1.529629,-0.493896 -1.529629,-0.493896 -0.209266,-0.852071 0.897443,-0.997927 0.897443,-0.997927 1.718249,-0.654213 2.817584,-2.423332 3.066633,-3.146862 0.24756,-0.724971 0.708813,-0.781299 0.708813,-0.781299 2.354871,-0.736534 4.501937,-0.90116 4.501937,-0.90116 2.923691,-0.35238 7.399116,1.013798 7.399116,1.013798 1.00355,0.39572 1.965839,0.691771 2.820542,0.928612 1.640153,4.01625 1.899505,8.589957 0.274092,12.974472 C 37.841241,39.579508 27.18688,44.455036 17.55079,41.013579 Z"
     id="path11795"
     inkscape:connector-curvature="0"
     style="opacity:0.8;fill:#00b7ff;fill-rule:evenodd;stroke:none;stroke-width:0.26872975" />
</svg>
