<?xml version="1.0" encoding="UTF-8" standalone="no"?>
<svg
   xmlns:dc="http://purl.org/dc/elements/1.1/"
   xmlns:cc="http://creativecommons.org/ns#"
   xmlns:rdf="http://www.w3.org/1999/02/22-rdf-syntax-ns#"
   xmlns:svg="http://www.w3.org/2000/svg"
   xmlns="http://www.w3.org/2000/svg"
   xmlns:sodipodi="http://sodipodi.sourceforge.net/DTD/sodipodi-0.dtd"
   xmlns:inkscape="http://www.inkscape.org/namespaces/inkscape"
   viewBox="0 0 48 48"
   id="svg2"
   version="1.1"
   inkscape:version="0.48.4 r9939"
   width="100%"
   height="100%"
   sodipodi:docname="grub-customizer.svg">
  <metadata
     id="metadata73">
    <rdf:RDF>
      <cc:Work
         rdf:about="">
        <dc:format>image/svg+xml</dc:format>
        <dc:type
           rdf:resource="http://purl.org/dc/dcmitype/StillImage" />
      </cc:Work>
    </rdf:RDF>
  </metadata>
  <sodipodi:namedview
     pagecolor="#ffffff"
     bordercolor="#666666"
     borderopacity="1"
     objecttolerance="10"
     gridtolerance="10"
     guidetolerance="10"
     inkscape:pageopacity="0"
     inkscape:pageshadow="2"
     inkscape:window-width="1360"
     inkscape:window-height="715"
     id="namedview71"
     showgrid="false"
     inkscape:zoom="9.8333333"
     inkscape:cx="24.721271"
     inkscape:cy="22.36236"
     inkscape:window-x="0"
     inkscape:window-y="30"
     inkscape:window-maximized="1"
     inkscape:current-layer="svg2" />
  <defs
     id="defs4">
    <linearGradient
       id="linearGradient3764"
       x1="1"
       x2="47"
       gradientUnits="userSpaceOnUse"
       gradientTransform="matrix(0,-1,1,0,-1.5e-6,47.999998)">
      <stop
         style="stop-color:#355473;stop-opacity:1"
         id="stop7" />
      <stop
         offset="1"
         style="stop-color:#3b5d80;stop-opacity:1"
         id="stop9" />
    </linearGradient>
    <clipPath
       id="clipPath-276172342">
      <g
         transform="translate(0,-1004.3622)"
         id="g12">
        <path
           d="m -24 13 c 0 1.105 -0.672 2 -1.5 2 -0.828 0 -1.5 -0.895 -1.5 -2 0 -1.105 0.672 -2 1.5 -2 0.828 0 1.5 0.895 1.5 2 z"
           transform="matrix(15.333333,0,0,11.5,414.99999,878.8622)"
           style="fill:#1890d0"
           id="path14" />
      </g>
    </clipPath>
    <clipPath
       id="clipPath-283653061">
      <g
         transform="translate(0,-1004.3622)"
         id="g17">
        <path
           d="m -24 13 c 0 1.105 -0.672 2 -1.5 2 -0.828 0 -1.5 -0.895 -1.5 -2 0 -1.105 0.672 -2 1.5 -2 0.828 0 1.5 0.895 1.5 2 z"
           transform="matrix(15.333333,0,0,11.5,414.99999,878.8622)"
           style="fill:#1890d0"
           id="path19" />
      </g>
    </clipPath>
    <filter
       color-interpolation-filters="sRGB"
       id="filter4423"
       y="-0.15025"
       width="1.1998"
       height="1.3005"
       x="-0.099890001">
      <feGaussianBlur
         id="feGaussianBlur4425"
         stdDeviation="0.71452459" />
    </filter>
  </defs>
  <g
     id="g21">
    <path
       d="m 36.31 5 c 5.859 4.062 9.688 10.831 9.688 18.5 c 0 12.426 -10.07 22.5 -22.5 22.5 c -7.669 0 -14.438 -3.828 -18.5 -9.688 c 1.037 1.822 2.306 3.499 3.781 4.969 c 4.085 3.712 9.514 5.969 15.469 5.969 c 12.703 0 23 -10.298 23 -23 c 0 -5.954 -2.256 -11.384 -5.969 -15.469 c -1.469 -1.475 -3.147 -2.744 -4.969 -3.781 z m 4.969 3.781 c 3.854 4.113 6.219 9.637 6.219 15.719 c 0 12.703 -10.297 23 -23 23 c -6.081 0 -11.606 -2.364 -15.719 -6.219 c 4.16 4.144 9.883 6.719 16.219 6.719 c 12.703 0 23 -10.298 23 -23 c 0 -6.335 -2.575 -12.06 -6.719 -16.219 z"
       style="opacity:0.05"
       id="path23" />
    <path
       d="m 41.28 8.781 c 3.712 4.085 5.969 9.514 5.969 15.469 c 0 12.703 -10.297 23 -23 23 c -5.954 0 -11.384 -2.256 -15.469 -5.969 c 4.113 3.854 9.637 6.219 15.719 6.219 c 12.703 0 23 -10.298 23 -23 c 0 -6.081 -2.364 -11.606 -6.219 -15.719 z"
       style="opacity:0.1"
       id="path25" />
    <path
       d="m 31.25 2.375 c 8.615 3.154 14.75 11.417 14.75 21.13 c 0 12.426 -10.07 22.5 -22.5 22.5 c -9.708 0 -17.971 -6.135 -21.12 -14.75 a 23 23 0 0 0 44.875 -7 a 23 23 0 0 0 -16 -21.875 z"
       style="opacity:0.2"
       id="path27" />
  </g>
  <path
     inkscape:connector-curvature="0"
     id="path31"
     style="fill:#d56200;fill-opacity:1"
     d="M 24,1 C 36.703,1 47,11.297 47,24 47,36.703 36.703,47 24,47 11.297,47 1,36.703 1,24 1,11.297 11.297,1 24,1 z" />
  <g
     id="g67">
    <path
       d="m 40.03 7.531 c 3.712 4.084 5.969 9.514 5.969 15.469 0 12.703 -10.297 23 -23 23 c -5.954 0 -11.384 -2.256 -15.469 -5.969 4.178 4.291 10.01 6.969 16.469 6.969 c 12.703 0 23 -10.298 23 -23 0 -6.462 -2.677 -12.291 -6.969 -16.469 z"
       style="opacity:0.1"
       id="path69" />
  </g>
  <path
     sodipodi:nodetypes="ssssssssssssssssssssscsssssssssssssssssssscssssssssssssssssssscsscsscsssssscssssssssssssssssscsssssssssssssssss"
     inkscape:connector-curvature="0"
     id="path2986-2"
     d="m 16.365244,36.49236 c -0.201031,-0.2084 -0.344703,-0.589885 -0.342849,-0.910366 9.38e-4,-0.165168 0.177242,-0.729419 0.503866,-1.61273 0.27632,-0.747252 0.50607,-1.42576 0.510555,-1.507783 0.006,-0.108795 -0.128257,-0.268676 -0.496211,-0.591148 -0.277401,-0.243097 -0.680568,-0.642415 -0.895918,-0.887355 -0.215356,-0.244925 -0.451182,-0.46975 -0.52406,-0.499586 -0.08175,-0.03347 -0.682966,0.134599 -1.569262,0.438664 -0.790215,0.271097 -1.54873,0.500811 -1.685584,0.510453 -0.281705,0.0199 -0.810515,-0.17461 -1.036918,-0.381366 -0.180021,-0.164388 -1.496653,-3.242215 -1.52551,-3.566123 -0.02862,-0.321245 0.202213,-0.805764 0.494092,-1.037056 0.1328651,-0.105259 0.851979,-0.458016 1.598033,-0.783849 0.803094,-0.350753 1.378524,-0.642689 1.410548,-0.715626 0.02976,-0.0677 0.03643,-0.385554 0.01485,-0.706208 -0.02158,-0.32064 -0.01943,-0.876935 0.0049,-1.236196 0.02422,-0.359262 0.008,-0.695342 -0.03624,-0.746832 -0.04415,-0.05149 -0.683733,-0.379484 -1.421295,-0.72888 C 10.51046,21.124032 9.9455001,20.822362 9.800439,20.69322 9.523992,20.447094 9.317922,19.90745 9.386385,19.608925 c 0.02778,-0.121056 0.384092,-0.956444 0.791832,-1.856364 l 0.741345,-1.636227 0.299687,-0.156765 c 0.529608,-0.277028 0.710632,-0.252528 2.405551,0.325634 0.959325,0.327225 1.553493,0.501101 1.620933,0.474348 0.05856,-0.02318 0.33487,-0.276157 0.614026,-0.562051 0.279159,-0.285892 0.686494,-0.666743 0.905191,-0.846336 0.218699,-0.179576 0.419643,-0.376662 0.446545,-0.43794 0.0269,-0.06125 -0.1603,-0.685763 -0.416,-1.387731 -0.255707,-0.701981 -0.493963,-1.387849 -0.529469,-1.524159 -0.09986,-0.383379 -0.0189,-0.774349 0.225635,-1.089733 0.184642,-0.23813 0.372306,-0.331377 1.857456,-0.9228677 0.908633,-0.3618815 1.781974,-0.6673635 1.94076,-0.6788482 0.368472,-0.026619 0.850263,0.1681438 1.085639,0.4389277 0.09911,0.1140749 0.455849,0.7921182 0.792735,1.5069012 0.336898,0.714785 0.640923,1.335399 0.675597,1.379145 0.03654,0.0461 0.377896,0.06692 0.812018,0.04952 0.411926,-0.01646 1.014795,-0.01053 1.339711,0.01338 0.440547,0.03227 0.625302,0.01338 0.726675,-0.07443 0.07469,-0.0648 0.433079,-0.70015 0.79626,-1.411851 0.698465,-1.3687217 0.845513,-1.5700893 1.277559,-1.7494308 0.480589,-0.1994938 0.684284,-0.1486101 2.537493,0.6338908 l 1.687953,0.712729 0.190845,0.278305 c 0.328347,0.478817 0.303912,0.682948 -0.273651,2.287563 -0.27958,0.776719 -0.519948,1.476868 -0.534155,1.55589 -0.02002,0.111166 0.08724,0.242725 0.474389,0.582032 0.275118,0.241106 0.699284,0.664582 0.942586,0.94107 0.243316,0.27649 0.467156,0.512851 0.497431,0.525248 0.03033,0.01179 0.710096,-0.202406 1.510719,-0.477341 0.800621,-0.274919 1.585945,-0.510018 1.745148,-0.522452 0.37633,-0.02938 0.834244,0.159753 1.102012,0.455194 0.12715,0.140278 0.460901,0.840384 0.851201,1.785497 0.669983,1.622331 0.704917,1.790874 0.478654,2.30873 -0.160034,0.366284 -0.434148,0.537311 -1.909522,1.191333 -0.802211,0.355611 -1.469345,0.671157 -1.482543,0.701203 -0.01315,0.03002 -0.0075,0.4009 0.01287,0.824115 0.02026,0.423213 0.01248,1.001056 -0.01739,1.284089 -0.03717,0.351609 -0.02125,0.547759 0.05033,0.619285 0.05754,0.05755 0.736194,0.40937 1.507997,0.781752 1.531647,0.738994 1.75763,0.905269 1.864125,1.371556 0.100684,0.440787 0.01824,0.706524 -0.729814,2.352541 l -0.715579,1.574559 -0.308499,0.185504 c -0.550891,0.331245 -0.648302,0.319891 -2.442018,-0.284706 -0.876446,-0.295401 -1.614829,-0.528789 -1.640864,-0.518619 -0.02597,0.01053 -0.24748,0.230066 -0.492087,0.488652 -0.244606,0.258587 -0.680058,0.66328 -0.967653,0.899354 -0.287609,0.23605 -0.530377,0.46978 -0.539485,0.5194 -0.0089,0.04965 0.207557,0.699557 0.481483,1.444306 0.273926,0.744764 0.508653,1.503741 0.521602,1.686624 0.0276,0.38844 -0.105507,0.733358 -0.384446,0.996675 -0.246162,0.232372 -3.213761,1.41908 -3.624803,1.449508 -0.343673,0.02544 -0.863745,-0.169633 -1.104412,-0.414243 -0.09222,-0.09365 -0.457909,-0.783531 -0.812679,-1.532918 -0.354768,-0.749387 -0.691081,-1.38154 -0.747343,-1.404749 -0.05629,-0.02318 -0.438247,-0.03043 -0.84883,-0.01608 -0.410571,0.01438 -1.005671,0.0052 -1.322424,-0.02002 -0.437824,-0.03503 -0.596903,-0.01832 -0.663367,0.06968 -0.0481,0.06375 -0.401323,0.716484 -0.784986,1.450592 -0.843842,1.614639 -0.98867,1.767832 -1.716398,1.815542 -0.211017,0.01379 -0.504925,-0.0893 -1.958784,-0.686872 -1.286728,-0.528911 -1.749009,-0.743015 -1.865862,-0.864148 z m 5.761204,-6.344446 c 1.612579,0.475854 3.163614,0.409308 4.727959,-0.202828 1.192291,-0.46655 2.131013,-1.153436 2.958753,-2.165033 0.518916,-0.634168 1.213367,-2.219326 1.327269,-3.029647 0.345658,-2.459092 -0.575901,-4.751118 -2.546143,-6.332482 -0.459078,-0.368472 -0.59561,-0.441486 -1.616989,-0.864739 -0.978308,-0.40539 -1.190117,-0.472017 -1.721263,-0.54141 -2.65208,-0.346483 -5.279719,0.753708 -6.781317,2.839338 -1.349099,1.873803 -1.618001,4.240056 -0.725642,6.385446 0.467231,1.123299 1.26899,2.135394 2.288296,2.888615 0.29066,0.214787 0.726244,0.466947 1.362912,0.788983 0.05086,0.02567 0.377635,0.130931 0.726165,0.233757 z m -0.448652,-3.234113 c -1.441254,-1.093223 -1.993402,-2.898241 -1.389987,-4.543967 0.421897,-1.150683 1.212375,-1.946781 2.385607,-2.402515 2.136616,-0.830003 4.54139,0.138538 5.397677,2.173948 0.705275,1.676482 0.263971,3.469515 -1.138961,4.627613 -1.194937,0.986398 -2.708774,1.237434 -4.192327,0.69521 -0.50506,-0.184597 -0.741229,-0.306969 -1.062009,-0.550289 z m 2.50466,-0.809372 c 0.521131,0.0216 1.43701,-0.240305 1.85746,-0.591677 0.296693,-0.247956 0.361666,-0.344337 0.603266,-0.89465 0.257011,-0.585418 0.10041,-0.641099 0.05506,-1.096202 -0.09147,-0.918666 -0.54755,-1.551925 -1.407753,-1.954591 -0.691007,-0.323459 -1.177043,-0.352057 -1.884279,-0.11079 -0.896691,0.305822 -1.501958,0.993548 -1.637869,1.860973 -0.117646,0.750824 0.06114,1.366512 0.563832,1.94196 0.468993,0.536836 1.073203,0.812784 1.850286,0.845031 z"
     style="fill:#a5a5a5;fill-opacity:1;stroke-width:0.76287687" />
  <path
     sodipodi:nodetypes="ssssssssssssssssssssscsssssssssssssssssssscssssssssssssssssssscsscsscsssssscssssssssssssssssscsssssssssssssssss"
     inkscape:connector-curvature="0"
     id="path2986"
     d="m 16.365244,35.852565 c -0.201031,-0.208398 -0.344703,-0.589882 -0.342849,-0.910351 9.38e-4,-0.165181 0.177242,-0.729419 0.503866,-1.612731 0.27632,-0.747265 0.50607,-1.425772 0.510555,-1.507783 0.006,-0.108794 -0.128257,-0.268688 -0.496211,-0.591148 -0.277401,-0.243109 -0.680568,-0.642415 -0.895918,-0.887354 -0.215356,-0.244943 -0.451182,-0.469757 -0.52406,-0.499604 -0.08175,-0.03346 -0.682966,0.134598 -1.569262,0.438682 -0.790215,0.2711 -1.54873,0.500798 -1.685586,0.510454 -0.281703,0.01989 -0.810513,-0.174612 -1.036916,-0.381364 -0.180021,-0.164392 -1.496652,-3.24223 -1.52551,-3.566126 -0.02862,-0.321258 0.202213,-0.805777 0.494092,-1.037058 0.1328661,-0.105258 0.85198,-0.458015 1.598033,-0.783859 0.803094,-0.350742 1.378524,-0.642679 1.410548,-0.715612 0.02976,-0.06771 0.03643,-0.38557 0.01485,-0.706211 -0.02158,-0.320654 -0.01943,-0.876934 0.0049,-1.236196 0.02422,-0.359262 0.008,-0.695343 -0.03624,-0.746832 -0.04415,-0.05151 -0.683735,-0.379495 -1.421295,-0.728878 C 10.510459,20.484252 9.9455001,20.182581 9.800436,20.05344 9.523991,19.8073 9.31792,19.267668 9.386385,18.969145 9.414165,18.84809 9.770477,18.012701 10.178217,17.112766 l 0.741345,-1.636226 0.299687,-0.156751 c 0.529607,-0.27704 0.710631,-0.252526 2.40555,0.32562 0.959325,0.327241 1.553492,0.501115 1.620934,0.474364 0.05856,-0.02318 0.33487,-0.27616 0.614025,-0.562051 0.279157,-0.285907 0.686493,-0.666745 0.90519,-0.846336 0.218698,-0.179593 0.419644,-0.376664 0.446545,-0.437954 0.02689,-0.06125 -0.160299,-0.685752 -0.416001,-1.387734 -0.255705,-0.701964 -0.493963,-1.387836 -0.529468,-1.524142 -0.09986,-0.383383 -0.0189,-0.774363 0.225634,-1.089735 0.184644,-0.23813 0.372308,-0.331376 1.857458,-0.9228673 0.908633,-0.3618826 1.781974,-0.6673757 1.940759,-0.6788494 0.368473,-0.026608 0.850263,0.1681461 1.085639,0.4389299 0.09911,0.1140749 0.455851,0.7921183 0.792737,1.5068988 0.336898,0.714772 0.64091,1.335386 0.675597,1.379145 0.03654,0.0461 0.377896,0.06692 0.812007,0.04952 0.411937,-0.01646 1.014806,-0.01053 1.339722,0.01338 0.440547,0.03242 0.625302,0.01338 0.726675,-0.07443 0.07469,-0.0648 0.433079,-0.700149 0.79626,-1.411849 0.698465,-1.3687247 0.845513,-1.5700899 1.277559,-1.7494314 0.480589,-0.1994949 0.684284,-0.1486112 2.537493,0.6338915 l 1.687953,0.7127279 0.190845,0.278304 c 0.328335,0.478818 0.303912,0.682948 -0.273665,2.287562 -0.279566,0.776721 -0.519934,1.476869 -0.534141,1.555889 -0.02002,0.111167 0.08724,0.242728 0.474389,0.582035 0.275106,0.241093 0.699272,0.664569 0.942586,0.941057 0.243316,0.276501 0.467156,0.512852 0.497431,0.525248 0.03033,0.01179 0.710096,-0.202406 1.510719,-0.477314 0.800621,-0.274933 1.585933,-0.510045 1.745135,-0.522467 0.376343,-0.02938 0.834257,0.159755 1.102025,0.455183 0.12715,0.140292 0.460901,0.840394 0.851201,1.78551 0.669973,1.622332 0.704905,1.790857 0.478654,2.30873 -0.160034,0.366281 -0.434148,0.537312 -1.909534,1.191333 -0.802199,0.3556 -1.469333,0.671143 -1.482531,0.701199 -0.01315,0.03003 -0.0075,0.400902 0.013,0.824118 0.02025,0.423213 0.01261,1.001058 -0.01752,1.284075 -0.03716,0.351612 -0.02125,0.547775 0.05033,0.619298 0.05766,0.05757 0.736209,0.409371 1.508009,0.781739 1.531635,0.739005 1.757629,0.905281 1.864123,1.37157 0.100684,0.440799 0.01824,0.70651 -0.729813,2.35254 l -0.71559,1.574559 -0.308498,0.185493 c -0.55088,0.331246 -0.648302,0.31989 -2.442005,-0.284695 -0.876403,-0.295417 -1.614797,-0.528791 -1.640834,-0.518621 -0.02611,0.01053 -0.24748,0.230068 -0.492085,0.488657 -0.244608,0.258586 -0.680046,0.663279 -0.967655,0.899342 -0.287608,0.23606 -0.530376,0.469791 -0.539474,0.519398 -0.0089,0.04965 0.207561,0.699555 0.481472,1.44432 0.273926,0.744765 0.508653,1.503739 0.521603,1.686614 0.02748,0.388451 -0.105506,0.733355 -0.384448,0.996685 -0.246147,0.232373 -3.213761,1.419081 -3.62479,1.449498 -0.343683,0.02557 -0.863757,-0.169623 -1.104412,-0.414234 -0.09221,-0.09378 -0.45792,-0.783529 -0.81269,-1.53293 -0.354768,-0.749387 -0.691069,-1.381527 -0.747343,-1.404751 -0.05629,-0.02318 -0.438235,-0.03043 -0.848817,-0.01608 -0.410583,0.01438 -1.005673,0.0052 -1.322437,-0.02002 -0.437812,-0.03504 -0.59689,-0.01832 -0.663354,0.06969 -0.0481,0.06376 -0.401337,0.716469 -0.784988,1.450577 -0.843847,1.61465 -0.988675,1.767846 -1.716404,1.815556 -0.211016,0.01379 -0.504923,-0.08918 -1.958784,-0.686873 -1.286718,-0.528911 -1.748997,-0.743025 -1.86585,-0.864146 z m 5.761204,-6.344432 c 1.612579,0.475837 3.163614,0.409305 4.727959,-0.202827 1.192291,-0.466551 2.131013,-1.153448 2.958753,-2.165031 0.518916,-0.63417 1.213367,-2.219329 1.327269,-3.02965 0.345658,-2.459105 -0.575901,-4.751116 -2.546143,-6.332482 -0.459078,-0.368484 -0.59561,-0.441498 -1.616989,-0.864738 -0.978308,-0.405392 -1.190117,-0.472018 -1.721263,-0.541424 -2.65208,-0.346483 -5.279719,0.75371 -6.781317,2.839336 -1.349099,1.873819 -1.618001,4.240058 -0.725642,6.38545 0.467231,1.123299 1.26899,2.135405 2.288296,2.888626 0.29066,0.214787 0.726244,0.466947 1.362912,0.788971 0.05086,0.02567 0.377635,0.130932 0.726165,0.233769 z m -0.448652,-3.234111 c -1.441254,-1.093226 -1.993402,-2.898244 -1.389987,-4.543982 0.421897,-1.150683 1.212375,-1.946765 2.385607,-2.402514 2.136616,-0.830002 4.54139,0.138537 5.397677,2.17396 0.705275,1.676483 0.263971,3.469503 -1.138961,4.627601 -1.194937,0.986411 -2.708774,1.237449 -4.192327,0.69521 -0.50506,-0.184585 -0.741229,-0.306956 -1.062009,-0.550275 z m 2.50466,-0.809374 c 0.521131,0.0216 1.43701,-0.240304 1.85746,-0.591688 0.296693,-0.247957 0.361666,-0.344326 0.603266,-0.894638 0.257011,-0.585419 0.10041,-0.641111 0.05506,-1.096203 -0.09147,-0.918665 -0.54755,-1.551925 -1.407753,-1.954592 -0.691007,-0.323457 -1.177043,-0.352055 -1.884279,-0.11079 -0.896691,0.305823 -1.501958,0.993538 -1.637869,1.860973 -0.117646,0.750812 0.06114,1.366514 0.563832,1.94196 0.468993,0.536838 1.073203,0.812784 1.850286,0.84503 z"
     style="fill:#f1f1f1;fill-opacity:1;stroke-width:0.76287687" />
  <path
     style="opacity:0.3;fill:#000000;fill-opacity:1;fill-rule:nonzero;stroke:none"
     d="m 24.174068,6.9065263 c -0.850807,0.00384 -1.830542,0.1785113 -2.878947,0.673713 -2.714029,1.2790061 -2.367471,4.0516387 -1.915626,9.5897357 0.115562,1.490767 -1.463557,2.486515 -2.823536,4.442238 -1.359982,1.945699 -1.517118,3.538013 -2.540807,5.147511 -0.997494,1.542641 -0.856092,1.450619 -0.493362,2.763109 -0.05051,0.04441 -0.10099,0.08998 -0.152294,0.137116 -0.36444,0.334776 -0.804339,1.184553 -1.441366,1.598018 l -0.002,0 c -0.631103,0.413466 -2.245909,0.380153 -2.656272,0.865146 -0.399998,0.486428 0.01784,1.190436 0.006,2.498068 0,0.559391 -0.103491,0.978651 -0.173117,1.319158 -0.103702,0.430629 -0.167239,0.732369 0.03425,1.039967 0.364441,0.542213 0.937177,0.683157 4.252687,1.308357 1.770345,0.334774 3.448683,1.195389 4.565702,1.284092 1.122948,0.07295 1.366384,-0.268939 2.049338,-0.815447 0.08647,-0.07072 0.164958,-0.129488 0.23696,-0.180975 0.06863,0.0026 0.132896,-0.0066 0.191182,-0.03067 1.487395,-0.609456 0.977842,-0.419143 3.351142,-0.547903 2.332543,-0.11948 3.014827,-0.217027 5.173677,0.28999 0.129347,0.394314 0.328235,0.673566 0.51453,0.82144 0.318504,0.261812 0.79974,0.463653 1.847133,0.463653 1.05332,0 1.70575,-0.212787 2.400548,-0.843716 0.445929,-0.403441 0.920054,-0.783267 2.28595,-1.633078 1.088874,-0.66955 2.725383,-1.407715 3.049832,-1.703869 0.161479,-0.1445 0.451425,-0.283942 0.475124,-0.820452 0.0178,-0.463534 -0.394628,-0.615898 -0.683516,-0.777562 -0.404437,-0.211746 -1.453034,-0.978337 -1.97895,-1.732297 -0.318528,-0.457804 0.133005,-1.213329 -0.306995,-1.788458 l 0,0.0079 C 36.459311,30.14585 36.325662,30.0867 36.196686,30.064439 c 0.213437,-0.455606 0.378568,-0.869519 0.469962,-1.20997 l -0.0026,0.0012 C 37.197383,26.882775 35.518983,23.467832 33.904192,21.400526 32.295318,19.333212 30.976846,18.046987 30.327958,15.431723 29.668716,12.810744 30.49095,13.566181 29.911693,11.279976 29.628735,10.139831 29.124992,9.2399377 28.569449,8.6419285 28.013893,8.0324557 27.261319,7.6805826 26.890953,7.5017433 26.386053,7.256251 25.417941,6.9001884 24.174448,6.9066428 z"
     id="SVGCleanerId_0-3"
     inkscape:connector-curvature="0" />
  <path
     style="fill:#000000;fill-opacity:1;fill-rule:nonzero;stroke:none"
     inkscape:connector-curvature="0"
     id="SVGCleanerId_0"
     d="m 36.210059,28.394846 c -0.469504,1.749024 -2.837778,5.397738 -4.10363,7.006147 -1.259909,1.614164 -1.108361,3.066177 -3.436518,2.499436 -2.322229,-0.561008 -2.97149,-0.459146 -5.379882,-0.335748 -2.380167,0.12909 -1.86907,-0.06165 -3.360759,0.549536 -1.485744,0.605479 -6.482302,-7.403591 -6.889398,-8.900104 -0.395205,-1.490754 -0.586869,-1.311396 0.453153,-2.919819 1.026651,-1.614152 1.184137,-3.211099 2.54805,-5.162423 1.363915,-1.961374 2.947722,-2.960007 2.831832,-4.455056 -0.453151,-5.554128 -0.800818,-8.334781 1.921065,-9.6174897 2.588173,-1.2224588 4.758841,-0.4935804 5.611662,-0.078908 0.371434,0.1793412 1.126198,0.5323075 1.683342,1.1435296 0.557159,0.5997493 1.062307,1.5022373 1.346087,2.6457821 0.580933,2.292815 -0.243663,1.535236 0.417493,4.1638 0.650753,2.622824 1.973065,3.912713 3.586588,5.985999 1.619463,2.0733 3.302806,5.498158 2.767944,7.476762 m 0,0" />
  <path
     style="fill:#f9f9f9;fill-opacity:1;fill-rule:nonzero;stroke:none"
     inkscape:connector-curvature="0"
     id="path88"
     d="m 20.840032,14.791472 c 0.423436,-0.150651 0.353609,-0.17361 0.638869,-0.734621 0.225833,-0.431868 0.423432,-0.616964 0.417493,-1.27267 0,-0.638476 -0.21989,-0.858007 -0.551211,-1.278403 -0.319433,-0.397447 -0.824583,-0.420394 -1.148476,-0.370181 -0.185723,0.02872 -0.423437,0.241041 -0.586872,0.555265 -0.10994,0.212353 -0.191659,0.482097 -0.203546,0.76189 -0.0178,0.761874 0.04605,1.047397 0.243663,1.563925 0.225833,0.605494 0.777045,0.919717 1.19008,0.773359 m 0,0" />
  <path
     style="fill:#000000;fill-opacity:1;fill-rule:nonzero;stroke:none"
     inkscape:connector-curvature="0"
     id="SVGCleanerId_1"
     d="m 20.446312,12.167215 c 0.20949,0 0.475437,0.123437 0.609154,0.297009 0.139661,0.173612 0.231776,0.420396 0.231776,0.700189 0,0.408909 -0.04605,0.863748 -0.319434,1.002927 -0.08766,0.03305 -0.27338,0.08469 -0.377382,0.08469 -0.237721,0 -0.261487,-0.146342 -0.487321,-0.358694 -0.08172,-0.07324 -0.313496,-0.449099 -0.313496,-0.756144 0,-0.190828 -0.04605,-0.464878 0.139661,-0.711662 0.127779,-0.179356 0.289722,-0.264001 0.517042,-0.264001 m 0,0.0052" />
  <path
     style="fill:#f9f9f9;fill-opacity:1;fill-rule:nonzero;stroke:none"
     inkscape:connector-curvature="0"
     id="path91"
     d="m 25.233378,14.843123 c 1.068246,-0.100385 1.439693,-0.476353 1.631345,-1.126316 0.167888,-0.576791 0.173829,-1.216714 -0.295661,-1.972858 -0.447209,-0.717394 -0.702752,-0.829318 -1.346087,-0.879531 -0.992472,-0.07311 -1.461963,0.555265 -1.683343,1.002928 -0.231782,0.48784 -0.185723,0.420394 -0.167889,1.037362 0.01777,0.64996 0.417493,0.829318 0.661156,1.238239 0.249602,0.391691 1.080138,0.711662 1.196017,0.705918 m 0.0062,-0.0052" />
  <path
     style="fill:#000000;fill-opacity:1;fill-rule:nonzero;stroke:none"
     inkscape:connector-curvature="0"
     id="SVGCleanerId_2"
     d="m 25.147202,12.138525 c 0.533384,0 0.840938,0.431869 0.946428,0.981405 0.04014,0.252526 -0.01777,0.53805 -0.185723,0.740362 -0.191665,0.2353 -0.533386,0.370172 -0.806762,0.370172 -0.267438,0 -0.557147,0.03872 -0.719096,-0.150653 -0.156007,-0.202299 -0.185722,-0.63849 -0.185722,-0.958444 0,-0.352968 0.115953,-0.605495 0.307554,-0.802051 0.151548,-0.146357 0.417492,-0.179355 0.644813,-0.179355 m 0,0" />
  <path
     style="fill:#f9f9f9;fill-opacity:1;fill-rule:nonzero;stroke:none"
     inkscape:connector-curvature="0"
     id="path100"
     d="m 21.978106,17.830383 c -0.92264,0.03305 -2.380157,-2.308595 -2.420274,-1.334358 -0.02377,0.823576 0.02377,0.807794 0.02377,1.60268 0,0.532305 -0.26743,0.576776 -0.846872,1.378839 -0.301606,0.420395 -0.533381,0.87953 -0.71316,1.345844 -0.115894,0.274051 -0.21989,0.56101 -0.307548,0.846533 -0.03419,0.140607 -0.09805,0.291268 -0.139662,0.431884 -0.283773,0.969916 -1.323797,2.169416 -1.561516,3.139333 -0.243663,0.964188 -0.527439,1.581169 -0.487321,2.869621 0.03419,1.294181 0.04605,0.919706 0.475435,1.243968 0.429382,0.319971 0.864707,0.62271 1.537749,1.160764 0.713155,0.571047 2.182556,1.535235 2.38016,1.843719 0.209489,0.308484 0.209489,0.997186 0.08172,1.222457 -0.12778,0.218083 -1.236138,0.341482 -1.236138,0.341482 0,0 0.968701,1.226752 1.166308,1.396069 0.185714,0.167869 0.980589,0.981405 4.207625,0.431868 1.823009,-0.319966 3.227034,-1.238239 4.247743,-2.123511 1.317849,-1.170798 0.650754,-1.50224 0.818644,-2.084758 0.249614,-0.846549 1.056365,-1.160761 1.236148,-2.113481 0.02374,-0.134872 0.06986,-0.235311 0.209485,-0.449096 0.203545,-0.269731 0.156009,-0.84079 0.156009,-1.345832 0,-1.345845 -0.167889,-2.696009 -0.511101,-3.698936 -0.313501,-0.941218 -0.806766,-1.596922 -1.230201,-2.443469 -0.846878,-1.687324 -0.806761,-2.4492 -1.567464,-3.525313 -0.858759,-1.243967 -0.435327,-2.073287 -1.583809,-2.023072 -1.427799,0.07324 -2.58222,1.849462 -3.934247,1.899688 m 0,0" />
  <path
     style="fill:#f9de69;fill-opacity:1;fill-rule:nonzero;stroke:none"
     d="m 22.465608,13.411315 c -0.365496,0.03871 -0.592256,0.0052 -0.945869,0.16767 -0.377382,0.173612 -0.935995,0.582705 -1.237599,0.823747 -0.579441,0.46057 -0.991836,0.64987 -0.968071,1.216608 0.01633,0.53805 0.499183,0.958473 1.026622,1.350165 0.521498,0.393143 0.968634,0.881242 1.288071,0.981683 0.331325,0.113418 0.906803,0.09064 1.318355,0.09064 0.916699,0 2.10588,-1.048082 2.772977,-1.23318 0.830537,-0.241043 1.121227,-0.643734 1.185119,-1.551951 0.05792,-0.757588 -1.166936,-0.892868 -2.089587,-1.166904 -0.277829,-0.07745 -0.492834,-0.188615 -0.794447,-0.390916 -0.325377,-0.218094 -1.03853,-0.330864 -1.555571,-0.274906 z m -8.349249,15.185213 c -0.580922,-0.01179 -0.90542,0.270613 -1.270911,0.606364 -0.365493,0.335736 -0.806674,1.188002 -1.445545,1.602654 l -0.0019,0 c -0.632931,0.414652 -2.252415,0.381221 -2.6639634,0.867609 -0.4011552,0.487837 0.017919,1.193969 0.00612,2.505366 0,0.561009 -0.1038077,0.981391 -0.1736269,1.32287 -0.1039976,0.431883 -0.1677427,0.734609 0.034318,1.043091 0.3654961,0.543794 0.9398681,0.685133 4.2649703,1.312152 1.775466,0.335735 3.45866,1.198814 4.57891,1.287778 1.126193,0.0731 1.370332,-0.269808 2.055259,-0.817908 0.678986,-0.555268 0.899509,-0.387256 0.877222,-1.596805 -0.02377,-1.210972 -0.87659,-1.569892 -1.845294,-2.964514 C 17.563159,32.36913 17.4046,32.112162 16.761274,31.186714 16.116457,30.27274 14.841538,28.613758 14.11649,28.596528 z m 15.969656,0.651202 c -0.453148,0 -0.539324,0.01053 -0.922651,0.229092 -0.208021,0.117628 -0.226115,0.879535 -0.226115,1.782024 0,0.711661 0.0049,1.513238 -0.06462,2.163201 -0.161951,1.513711 -0.503284,2.393412 -0.532999,3.369075 -0.03568,0.974225 0.329763,1.630011 0.655139,1.888281 0.319437,0.262563 0.801941,0.465009 1.852352,0.465009 1.056377,0 1.710748,-0.213431 2.407572,-0.846177 0.447208,-0.404603 0.922614,-0.78548 2.292488,-1.637743 1.092008,-0.671486 2.733263,-1.411904 3.05866,-1.708914 0.161954,-0.144908 0.452699,-0.284719 0.476463,-0.82277 0.0178,-0.464878 -0.395707,-0.617755 -0.685427,-0.77988 -0.405602,-0.212353 -1.457156,-0.981037 -1.984598,-1.737182 -0.319449,-0.459135 0.133377,-1.21694 -0.307891,-1.793734 l 0,0.0079 C 35.842903,29.47869 35.372828,29.629 35.308937,29.629 c -0.0758,0 -0.482094,0.637676 -0.644031,0.822775 -0.175322,0.196556 -0.632596,0.52655 -0.957984,0.711634 -0.323899,0.190828 -0.580138,0.292098 -1.276962,0.247614 -0.690871,-0.0502 -0.888501,-0.263986 -1.108389,-0.431856 -0.215426,-0.173624 -0.434792,-0.308784 -0.394699,-0.729194 0.04748,-0.420398 0.105391,-0.717907 -0.03431,-0.841294 -0.151548,-0.139186 -0.353403,-0.160861 -0.806552,-0.160861 z"
     id="path102"
     inkscape:connector-curvature="0"
     sodipodi:nodetypes="ccccccscccccccscccccccccccccscscccsccccccccsccccccs" />
  <path
     style="opacity:0.2;fill:#ffffff;fill-opacity:1;fill-rule:nonzero;stroke:none"
     d="m 23.681299,6.3836637 c -0.853267,0.00384 -1.835823,0.179026 -2.88727,0.6756484 -1.858401,0.8757894 -2.285599,2.4507254 -2.225603,5.1290699 0.05354,-2.166098 0.574111,-3.4974657 2.225603,-4.2757524 1.051447,-0.4966235 2.034003,-0.6712231 2.88727,-0.6756482 1.247097,-0.00662 2.218007,0.3506207 2.72436,0.596825 0.371446,0.1793413 1.126198,0.5322405 1.683357,1.1434762 0.557156,0.5997354 1.062353,1.5022394 1.346135,2.6457844 0.104884,0.414083 0.162855,0.726464 0.193117,0.979479 0.04463,-0.384053 0.06923,-0.797281 -0.193117,-1.832799 C 29.151369,9.6262033 28.646172,8.723701 28.089016,8.1239656 27.531857,7.5127302 26.777105,7.1598299 26.405659,6.9804875 25.899306,6.7342845 24.928396,6.3771826 23.681299,6.3836637 z m 5.924699,7.2665313 c -0.04611,0.409133 -0.06599,0.893995 0.24662,2.136617 0.650754,2.622824 1.973052,3.912765 3.586575,5.986051 1.308617,1.675349 2.658268,4.232904 2.84619,6.197057 0.225284,-2.015392 -1.337609,-5.119032 -2.84619,-7.050374 -1.613523,-2.073287 -2.935821,-3.363228 -3.586575,-5.98605 -0.14204,-0.564711 -0.213064,-0.967349 -0.24662,-1.283301 z m -10.760923,3.538763 c -0.228719,1.232613 -1.601376,2.213609 -2.80392,3.942926 -1.363915,1.951324 -1.521507,3.548245 -2.548154,5.162398 -0.777008,1.201658 -0.863871,1.416458 -0.693948,2.068305 0.101612,-0.280753 0.316323,-0.63098 0.693948,-1.214989 1.026647,-1.614151 1.184239,-3.211058 2.548154,-5.162396 1.363914,-1.961388 2.947595,-2.960021 2.831704,-4.455082 -0.0099,-0.121188 -0.01804,-0.22265 -0.02779,-0.341162 z m -6.039118,12.052937 c -0.357857,0.358023 -0.789803,1.163688 -1.406015,1.563638 l -0.002,0 c -0.632931,0.414665 -2.252408,0.381248 -2.6639576,0.867649 -0.221395,0.269231 -0.1916827,0.609905 -0.123746,1.077154 0.02749,-0.07957 0.066546,-0.154274 0.123746,-0.223837 0.4115496,-0.486402 2.0310266,-0.452984 2.6639576,-0.867649 l 0.002,0 c 0.638872,-0.414652 1.080041,-1.266888 1.445535,-1.602627 0.05146,-0.04729 0.102088,-0.09301 0.152735,-0.137506 -0.07751,-0.280425 -0.143802,-0.494793 -0.192255,-0.67682 z m 23.234721,0.513655 c -0.08401,0.219966 -0.18478,0.45588 -0.302023,0.70616 0.129345,0.02238 0.263397,0.08166 0.365703,0.2175 l 0,-0.0079 c 0.104145,0.13621 0.157538,0.282599 0.183973,0.432659 0.0012,-0.410819 0.118318,-0.890809 -0.183973,-1.285982 l 0,0.0079 c -0.02002,-0.02662 -0.0415,-0.0494 -0.06363,-0.07034 z m 0.270432,1.606304 c 0.0049,0.406314 -0.10004,0.813931 0.101148,1.103156 0.527444,0.756132 1.579064,1.524949 1.984678,1.7373 0.186635,0.104459 0.424025,0.205515 0.565021,0.38815 0.06411,-0.111447 0.11147,-0.257956 0.120405,-0.461652 0.0178,-0.464878 -0.395761,-0.61769 -0.68548,-0.779816 -0.405613,-0.212349 -1.457245,-0.981166 -1.984688,-1.737298 -0.05269,-0.07574 -0.08302,-0.160044 -0.101148,-0.24984 z M 8.7245948,34.542471 c -0.03112,0.385028 -0.1044619,0.695883 -0.1582557,0.958973 -0.092833,0.385542 -0.1530078,0.668009 -0.021232,0.943653 0.00686,-0.02988 0.013708,-0.05915 0.021232,-0.09036 0.069838,-0.34148 0.1736153,-0.761966 0.1736153,-1.322977 0.00148,-0.173638 -0.00475,-0.336 -0.015354,-0.489314 z"
     id="SVGCleanerId_0-7"
     inkscape:connector-curvature="0" />
  <path
     style="fill:#f9b154;fill-opacity:1;fill-rule:nonzero;stroke:none"
     d="m 26.840017,14.936685 c -0.131802,0.584957 -0.450215,0.884864 -1.119971,1.079248 -0.667111,0.185099 -1.856304,0.757688 -2.773004,0.757688 -0.411552,0 -0.986967,0.02264 -1.318287,-0.09077 -0.319435,-0.100507 -0.766487,-0.113003 -1.287986,-0.506108 -0.39991,-0.296998 -0.773763,-0.610631 -0.938494,-0.97939 -0.06294,0.118818 -0.09524,0.253409 -0.08817,0.421882 0.01633,0.538052 0.499072,0.958473 1.026511,1.35018 0.5215,0.393141 0.96871,0.881281 1.288144,0.981721 0.33132,0.113416 0.906735,0.09078 1.318287,0.09078 0.9167,0 2.105894,-1.048203 2.773004,-1.233299 0.830523,-0.241041 1.121326,-0.64368 1.185218,-1.551914 0.0089,-0.121704 -0.01491,-0.227246 -0.06525,-0.320007 z m 4.087758,14.513754 c -2.61e-4,0.0026 -4.96e-4,0.0039 -8.46e-4,0.0066 -0.01467,0.15384 0.0049,0.269111 0.04748,0.362421 0.01246,-0.163031 0.0062,-0.288511 -0.04661,-0.369233 z m 5.361786,0.806467 c -0.0026,0.108793 0.0012,0.21322 0.02125,0.310723 0.0012,-0.104061 -0.0037,-0.208138 -0.02125,-0.310723 z M 8.6042974,31.915962 c -0.1288546,0.407471 0.067791,0.959236 0.122485,1.80241 0.00791,-0.105514 0.013149,-0.215315 0.013149,-0.33255 0.00538,-0.608917 -0.08057,-1.0832 -0.1356285,-1.46986 z M 38.98047,33.762184 c -0.105222,0.206963 -0.267823,0.301053 -0.374652,0.396657 -0.325376,0.296998 -1.966658,1.037414 -3.058678,1.708899 -1.369863,0.852278 -1.845157,1.233223 -2.292366,1.637835 -0.696823,0.632746 -1.35128,0.8461 -2.407644,0.8461 -1.050413,0 -1.532866,-0.202354 -1.852303,-0.464931 -0.265672,-0.210875 -0.557842,-0.686977 -0.636772,-1.384861 -0.0089,0.09603 -0.01554,0.192053 -0.0184,0.289212 -0.03568,0.974225 0.329839,1.630064 0.655216,1.888334 0.319436,0.262565 0.801878,0.464931 1.852301,0.464931 1.056367,0 1.710822,-0.213353 2.407634,-0.846101 0.44722,-0.404614 0.922516,-0.78557 2.292376,-1.637834 1.092022,-0.671498 2.733315,-1.4119 3.05869,-1.708912 0.161943,-0.144907 0.4527,-0.284667 0.476463,-0.822705 0.0064,-0.151942 -0.03486,-0.270126 -0.101771,-0.366624 z M 8.5355229,35.632721 c -0.083251,0.36349 -0.1157333,0.635696 0.06509,0.911737 0.3654956,0.543791 0.9399686,0.685092 4.2650681,1.312095 1.775466,0.33575 3.458558,1.198841 4.578809,1.287807 1.126193,0.07324 1.370332,-0.269835 2.055261,-0.817923 0.678983,-0.555267 0.899539,-0.387121 0.877255,-1.596659 -0.0016,-0.08113 -0.0073,-0.158316 -0.01604,-0.232387 -0.0641,0.610393 -0.313209,0.588198 -0.861222,1.036361 -0.684926,0.548101 -0.929065,0.891095 -2.055258,0.817923 -1.120252,-0.08891 -2.803341,-0.952056 -4.578807,-1.287794 -3.3250995,-0.627017 -3.8995755,-0.768316 -4.2650692,-1.312097 -0.026013,-0.03967 -0.047414,-0.0793 -0.065089,-0.11907 z"
     id="path102-5"
     inkscape:connector-curvature="0"
     sodipodi:nodetypes="ccsccccccsccccccccccccccccccsccccsccccccccccccccccc" />
</svg>
