<?xml version="1.0" encoding="UTF-8" standalone="no"?>
<svg
   xmlns:dc="http://purl.org/dc/elements/1.1/"
   xmlns:cc="http://creativecommons.org/ns#"
   xmlns:rdf="http://www.w3.org/1999/02/22-rdf-syntax-ns#"
   xmlns:svg="http://www.w3.org/2000/svg"
   xmlns="http://www.w3.org/2000/svg"
   xmlns:xlink="http://www.w3.org/1999/xlink"
   xmlns:sodipodi="http://sodipodi.sourceforge.net/DTD/sodipodi-0.dtd"
   xmlns:inkscape="http://www.inkscape.org/namespaces/inkscape"
   viewBox="0 0 48 48"
   id="svg2"
   version="1.1"
   inkscape:version="0.48.4 r9939"
   width="100%"
   height="100%"
   sodipodi:docname="synaptic.svg">
  <metadata
     id="metadata70">
    <rdf:RDF>
      <cc:Work
         rdf:about="">
        <dc:format>image/svg+xml</dc:format>
        <dc:type
           rdf:resource="http://purl.org/dc/dcmitype/StillImage" />
      </cc:Work>
    </rdf:RDF>
  </metadata>
  <sodipodi:namedview
     pagecolor="#ffffff"
     bordercolor="#666666"
     borderopacity="1"
     objecttolerance="10"
     gridtolerance="10"
     guidetolerance="10"
     inkscape:pageopacity="0"
     inkscape:pageshadow="2"
     inkscape:window-width="1360"
     inkscape:window-height="715"
     id="namedview68"
     showgrid="false"
     inkscape:zoom="9.8333333"
     inkscape:cx="-4.5181965"
     inkscape:cy="26.400433"
     inkscape:window-x="0"
     inkscape:window-y="30"
     inkscape:window-maximized="1"
     inkscape:current-layer="svg2" />
  <defs
     id="defs4">
    <linearGradient
       id="linearGradient3764"
       x1="1"
       x2="47"
       gradientUnits="userSpaceOnUse"
       gradientTransform="matrix(0,-1,1,0,-1.5e-6,47.999998)">
      <stop
         style="stop-color:#6398c9;stop-opacity:1"
         id="stop7" />
      <stop
         offset="1"
         style="stop-color:#72a2cf;stop-opacity:1"
         id="stop9" />
    </linearGradient>
    <clipPath
       id="clipPath-568684368">
      <g
         transform="translate(0,-1004.3622)"
         id="g12">
        <path
           d="m -24 13 c 0 1.105 -0.672 2 -1.5 2 -0.828 0 -1.5 -0.895 -1.5 -2 0 -1.105 0.672 -2 1.5 -2 0.828 0 1.5 0.895 1.5 2 z"
           transform="matrix(15.333333,0,0,11.5,414.99999,878.8622)"
           style="fill:#1890d0"
           id="path14" />
      </g>
    </clipPath>
    <clipPath
       id="clipPath-581535022">
      <g
         transform="translate(0,-1004.3622)"
         id="g17">
        <path
           d="m -24 13 c 0 1.105 -0.672 2 -1.5 2 -0.828 0 -1.5 -0.895 -1.5 -2 0 -1.105 0.672 -2 1.5 -2 0.828 0 1.5 0.895 1.5 2 z"
           transform="matrix(15.333333,0,0,11.5,414.99999,878.8622)"
           style="fill:#1890d0"
           id="path19" />
      </g>
    </clipPath>
  </defs>
  <g
     id="g21">
    <path
       d="m 36.31 5 c 5.859 4.062 9.688 10.831 9.688 18.5 c 0 12.426 -10.07 22.5 -22.5 22.5 c -7.669 0 -14.438 -3.828 -18.5 -9.688 c 1.037 1.822 2.306 3.499 3.781 4.969 c 4.085 3.712 9.514 5.969 15.469 5.969 c 12.703 0 23 -10.298 23 -23 c 0 -5.954 -2.256 -11.384 -5.969 -15.469 c -1.469 -1.475 -3.147 -2.744 -4.969 -3.781 z m 4.969 3.781 c 3.854 4.113 6.219 9.637 6.219 15.719 c 0 12.703 -10.297 23 -23 23 c -6.081 0 -11.606 -2.364 -15.719 -6.219 c 4.16 4.144 9.883 6.719 16.219 6.719 c 12.703 0 23 -10.298 23 -23 c 0 -6.335 -2.575 -12.06 -6.719 -16.219 z"
       style="opacity:0.05"
       id="path23" />
    <path
       d="m 41.28 8.781 c 3.712 4.085 5.969 9.514 5.969 15.469 c 0 12.703 -10.297 23 -23 23 c -5.954 0 -11.384 -2.256 -15.469 -5.969 c 4.113 3.854 9.637 6.219 15.719 6.219 c 12.703 0 23 -10.298 23 -23 c 0 -6.081 -2.364 -11.606 -6.219 -15.719 z"
       style="opacity:0.1"
       id="path25" />
    <path
       d="m 31.25 2.375 c 8.615 3.154 14.75 11.417 14.75 21.13 c 0 12.426 -10.07 22.5 -22.5 22.5 c -9.708 0 -17.971 -6.135 -21.12 -14.75 a 23 23 0 0 0 44.875 -7 a 23 23 0 0 0 -16 -21.875 z"
       style="opacity:0.2"
       id="path27" />
  </g>
  <g
     id="g29">
    <path
       d="m 24 1 c 12.703 0 23 10.297 23 23 c 0 12.703 -10.297 23 -23 23 -12.703 0 -23 -10.297 -23 -23 0 -12.703 10.297 -23 23 -23 z"
       style="fill:url(#linearGradient3764);fill-opacity:1"
       id="path31" />
  </g>
  <g
     id="g33"
     transform="matrix(1.2358944,0,0,1.1423899,-6.0840272,-3.8442728)">
    <g
       id="g35"
       clip-path="url(#clipPath-568684368)">
      <g
         transform="translate(1,1)"
         id="g37">
        <g
           style="opacity:0.1"
           id="g39">
          <!-- color: #72a2cf -->
          <g
             id="g41">
            <path
               d="m 12,20 1.75,-7 C 14,12.461 14,12 15,12 c 3.492,0 12.938,0 18,0 1,0 1,0.52 1.25,1 L 36,20 24,23 M 12,20"
               style="fill:#000000;fill-opacity:1;fill-rule:nonzero;stroke:none"
               id="path43"
               inkscape:connector-curvature="0" />
            <path
               d="m 36,20 0,15.11 c 0,0.492 -0.395,0.887 -0.887,0.887 l -22.23,0 c -0.492,0 -0.887,-0.395 -0.887,-0.887 0,-4.371 0,9.18 0,-15.11 m 24,0"
               style="fill:#000000;fill-opacity:1;fill-rule:nonzero;stroke:none"
               id="path45"
               inkscape:connector-curvature="0" />
            <path
               d="M 21.5,12 26.602,12 27,25 24,22 21,25 M 21.5,12"
               style="fill:#000000;fill-opacity:0.8;fill-rule:nonzero;stroke:none"
               id="path47"
               inkscape:connector-curvature="0" />
            <use
               xlink:href="#SVGCleanerId_0"
               id="use49"
               x="0"
               y="0"
               width="48"
               height="48" />
          </g>
        </g>
      </g>
    </g>
  </g>
  <path
     inkscape:connector-curvature="0"
     id="path57"
     style="fill:#f3b77b;fill-opacity:0.98039216;fill-rule:nonzero;stroke:none"
     d="m 8.7467056,19.003525 2.1628154,-7.996729 c 0.308973,-0.615748 0.308973,-1.14239 1.544868,-1.14239 4.315743,0 15.990002,0 22.246099,0 1.235894,0 1.235894,0.594043 1.544868,1.14239 l 2.162815,7.996729 -14.830733,3.42717 M 8.7467056,19.003525" />
  <path
     inkscape:connector-curvature="0"
     id="path59"
     style="fill:#bb9e7b;fill-opacity:1;fill-rule:nonzero;stroke:none"
     d="m 38.408171,19.003525 0,17.261512 c 0,0.562055 -0.488178,1.013299 -1.096238,1.013299 l -27.4739326,0 c -0.6080601,0 -1.0962384,-0.451244 -1.0962384,-1.013299 0,-4.993387 0,10.487139 0,-17.261512 m 29.661466,0" />
  <path
     inkscape:connector-curvature="0"
     id="path61"
     style="fill:#fff4d6;fill-opacity:0.8;fill-rule:nonzero;stroke:none"
     d="m 20.487702,9.864406 6.305534,0 0.491886,14.851069 -3.707684,-3.42717 -3.707683,3.42717 M 20.487702,9.864406" />
  <path
     inkscape:connector-curvature="0"
     style="fill:#000000;fill-opacity:0.05100002;fill-rule:nonzero;stroke:none"
     id="SVGCleanerId_0"
     d="m 20.104575,19.003525 -0.232348,5.71195 3.707683,-3.42717 3.707683,3.42717 -0.192799,-5.71195 m -6.990219,0" />
  <g
     id="g64">
    <path
       d="m 40.03 7.531 c 3.712 4.084 5.969 9.514 5.969 15.469 0 12.703 -10.297 23 -23 23 c -5.954 0 -11.384 -2.256 -15.469 -5.969 4.178 4.291 10.01 6.969 16.469 6.969 c 12.703 0 23 -10.298 23 -23 0 -6.462 -2.677 -12.291 -6.969 -16.469 z"
       style="opacity:0.1"
       id="path66" />
  </g>
  <path
     style="fill:#3f3f3f"
     inkscape:connector-curvature="0"
     id="path3937"
     d="m 21.861986,25.338983 c -0.437298,0 -0.789346,0.18782 -0.789346,0.421121 v 6.73794 h -3.157385 l 5.525423,3.790091 5.525425,-3.790091 h -3.157385 v -6.73794 c 0,-0.233301 -0.352049,-0.421121 -0.789347,-0.421121 h -3.157385 z" />
</svg>
