<?xml version="1.0" encoding="UTF-8" standalone="no"?>
<!-- Created with Inkscape (http://www.inkscape.org/) -->

<svg
   xmlns:dc="http://purl.org/dc/elements/1.1/"
   xmlns:cc="http://creativecommons.org/ns#"
   xmlns:rdf="http://www.w3.org/1999/02/22-rdf-syntax-ns#"
   xmlns:svg="http://www.w3.org/2000/svg"
   xmlns="http://www.w3.org/2000/svg"
   xmlns:sodipodi="http://sodipodi.sourceforge.net/DTD/sodipodi-0.dtd"
   xmlns:inkscape="http://www.inkscape.org/namespaces/inkscape"
   id="svg2"
   height="100%"
   viewBox="0 0 512 512"
   width="100%"
   version="1.1"
   inkscape:version="0.91 r13725"
   sodipodi:docname="system-lock-screen.svg">
  <defs
     id="defs53" />
  <sodipodi:namedview
     pagecolor="#ffffff"
     bordercolor="#666666"
     borderopacity="1"
     objecttolerance="10"
     gridtolerance="10"
     guidetolerance="10"
     inkscape:pageopacity="0"
     inkscape:pageshadow="2"
     inkscape:window-width="1360"
     inkscape:window-height="717"
     id="namedview51"
     showgrid="false"
     inkscape:zoom="0.4609375"
     inkscape:cx="288.44701"
     inkscape:cy="247.32204"
     inkscape:window-x="0"
     inkscape:window-y="25"
     inkscape:window-maximized="1"
     inkscape:current-layer="g4" />
  <metadata
     id="metadata102">
    <rdf:RDF>
      <cc:Work
         rdf:about="">
        <dc:format>image/svg+xml</dc:format>
        <dc:type
           rdf:resource="http://purl.org/dc/dcmitype/StillImage" />
      </cc:Work>
    </rdf:RDF>
  </metadata>
  <g
     id="g4"
     fill-rule="evenodd">
    <path
       id="path6"
       d="m471.95 253.05c0 120.9-98.01 218.9-218.9 218.9-120.9 0-218.9-98.01-218.9-218.9 0-120.9 98.01-218.9 218.9-218.9 120.9 0 218.9 98.01 218.9 218.9"
       style="fill:#f8960a;fill-opacity:1"
       fill="#cd1d31" />
    <path
       id="path10"
       d="m256 1c-140.83 0-255 114.17-255 255s114.17 255 255 255 255-114.17 255-255-114.17-255-255-255m8.827 44.931c120.9 0 218.9 98 218.9 218.9s-98 218.9-218.9 218.9-218.93-98-218.93-218.9 98.03-218.9 218.93-218.9"
       fill-opacity=".067" />
    <g
       id="g12"
       fill-opacity=".129">
      <path
         id="path14"
         d="m256 4.433c-138.94 0-251.57 112.63-251.57 251.57s112.63 251.57 251.57 251.57 251.57-112.63 251.57-251.57-112.63-251.57-251.57-251.57m5.885 38.556c120.9 0 218.9 98 218.9 218.9s-98 218.9-218.9 218.9-218.93-98-218.93-218.9 98.03-218.9 218.93-218.9" />
      <path
         id="path16"
         d="m256 8.356c-136.77 0-247.64 110.87-247.64 247.64s110.87 247.64 247.64 247.64 247.64-110.87 247.64-247.64-110.87-247.64-247.64-247.64m2.942 31.691c120.9 0 218.9 98 218.9 218.9s-98 218.9-218.9 218.9-218.93-98-218.93-218.9 98.03-218.9 218.93-218.9" />
    </g>
    <path
       id="path18"
       d="m253.04 7.859c-135.42 0-245.19 109.78-245.19 245.19 0 135.42 109.78 245.19 245.19 245.19 135.42 0 245.19-109.78 245.19-245.19 0-135.42-109.78-245.19-245.19-245.19zm0 26.297c120.9 0 218.9 98 218.9 218.9s-98 218.9-218.9 218.9-218.93-98-218.93-218.9 98.03-218.9 218.93-218.9z"
       stroke-opacity=".31"
       stroke-width="4.904"
       stroke="#000"
       fill="#fff" />
  </g>
  <text
     id="text20"
     style="word-spacing:0;letter-spacing:0"
     font-size="129.23px"
     line-height="125%"
     y="231.36"
     x="729.64001"
     font-family="Gentium Book Basic">
    <tspan
       id="tspan22"
       y="231.36"
       x="729.64001" />
  </text>
  <text
     id="text24"
     style="text-anchor:middle"
     font-size="46.954px"
     transform="scale(4.0128 .2492)"
     y="579.25"
     x="378.91"
     font-family="Arial" />
  <text
     id="text26"
     style="word-spacing:0;letter-spacing:0"
     font-size="129.23px"
     line-height="125%"
     y="151.36"
     x="1310.91"
     font-family="Gentium Book Basic">
    <tspan
       id="tspan28"
       y="151.36"
       x="1310.91" />
  </text>
  <text
     id="text30"
     style="text-anchor:middle"
     font-size="46.954px"
     transform="scale(4.0128 .2492)"
     y="258.22"
     x="523.76001"
     font-family="Arial" />
  <text
     id="text32"
     style="word-spacing:0;letter-spacing:0"
     font-size="129.23px"
     line-height="125%"
     y="-29.900999"
     x="239.33"
     font-family="Gentium Book Basic">
    <tspan
       id="tspan34"
       y="-29.900999"
       x="239.33" />
  </text>
  <text
     id="text36"
     style="text-anchor:middle"
     font-size="46.954px"
     transform="scale(4.0128 .2492)"
     y="-469.14001"
     x="256.72"
     font-family="Arial" />
  <text
     id="text38"
     style="word-spacing:0;letter-spacing:0"
     font-size="129.23px"
     line-height="125%"
     y="-246.37"
     x="1337.38"
     font-family="Gentium Book Basic">
    <tspan
       id="tspan40"
       y="-246.37"
       x="1337.38" />
  </text>
  <text
     id="text42"
     style="text-anchor:middle"
     font-size="46.954px"
     transform="scale(4.0128 .2492)"
     y="-1337.8101"
     x="530.35999"
     font-family="Arial" />
  <text
     id="text44"
     style="word-spacing:0;letter-spacing:0"
     font-size="129.23px"
     line-height="125%"
     y="-326.38"
     x="1918.65"
     font-family="Gentium Book Basic">
    <tspan
       id="tspan46"
       y="-326.38"
       x="1918.65" />
  </text>
  <text
     id="text48"
     style="text-anchor:middle"
     font-size="46.954px"
     transform="scale(4.0128 .2492)"
     y="-1658.85"
     x="675.21002"
     font-family="Arial" />
  <text
     id="text50"
     style="word-spacing:0;letter-spacing:0"
     font-size="129.23px"
     line-height="125%"
     y="-798.78003"
     x="1529.53"
     font-family="Gentium Book Basic">
    <tspan
       id="tspan52"
       y="-798.78003"
       x="1529.53" />
  </text>
  <text
     id="text54"
     style="text-anchor:middle"
     font-size="46.954px"
     transform="scale(4.0128 .2492)"
     y="-3554.51"
     x="578.23999"
     font-family="Arial" />
  <text
     id="text56"
     style="word-spacing:0;letter-spacing:0"
     font-size="129.23px"
     line-height="125%"
     y="-878.78003"
     x="2110.79"
     font-family="Gentium Book Basic">
    <tspan
       id="tspan58"
       y="-878.78003"
       x="2110.79" />
  </text>
  <text
     id="text60"
     style="text-anchor:middle"
     font-size="46.954px"
     transform="scale(4.0128 .2492)"
     y="-3875.54"
     x="723.09003"
     font-family="Arial" />
  <g
     id="g62"
     style="word-spacing:0;letter-spacing:0"
     font-family="Gentium Book Basic"
     font-size="208.33px"
     line-height="125%">
    <text
       id="text64"
       y="535.94"
       x="277.98999">
      <tspan
         id="tspan66"
         y="535.94"
         x="277.98999" />
    </text>
    <text
       id="text68"
       y="11.553"
       x="-860.84003">
      <tspan
         id="tspan70"
         y="11.553"
         x="-860.84003" />
    </text>
    <text
       id="text72"
       y="289.67001"
       x="-3219.6699">
      <tspan
         id="tspan74"
         y="289.67001"
         x="-3219.6699" />
    </text>
    <text
       id="text76"
       y="62.380001"
       x="-2931.46">
      <tspan
         id="tspan78"
         y="62.380001"
         x="-2931.46" />
    </text>
    <text
       id="text80"
       y="-194.52"
       x="1263.14">
      <tspan
         id="tspan82"
         y="-194.52"
         x="1263.14" />
    </text>
    <text
       id="text84"
       y="-49.48"
       x="-864.78998">
      <tspan
         id="tspan86"
         y="-49.48"
         x="-864.78998" />
    </text>
    <text
       id="text88"
       y="228.64"
       x="-3223.6201">
      <tspan
         id="tspan90"
         y="228.64"
         x="-3223.6201" />
    </text>
    <text
       id="text92"
       y="1.35"
       x="-2935.4099">
      <tspan
         id="tspan94"
         y="1.35"
         x="-2935.4099" />
    </text>
  </g>
  <path
     id="path96"
     d="m 252.75,109.37 c -38.38,0 -77.24,25.637 -77.24,64.52 l 0,70.74 -28.461,0 0,158.01 213.9,0 0,-158.01 -29.32,0 0,-72.7 c 0,-29.22 -30.22,-62.56 -78.886,-62.56 m -0.55,35.438 c 20.665,-0.108 43.17,14.316 43.17,36.3 l 0,63.52 -84.73,0 0.034,-0.034 0,-63.21 c 0,-23.843 23.745,-36.48 41.522,-36.573 m 0.963,134.47 c 11.824,0 21.414,9.59 21.414,21.414 0,7.05 -3.436,13.286 -8.696,17.19 l 8.49,47.641 -42.04,0 8.421,-47.4 c -5.441,-3.882 -9.01,-10.234 -9.01,-17.427 0,-11.824 9.59,-21.414 21.414,-21.414"
     inkscape:connector-curvature="0"
     style="fill:#ffffff;fill-rule:evenodd" />
</svg>
