<?xml version="1.0" encoding="UTF-8" standalone="no"?>
<!-- Created with Inkscape (http://www.inkscape.org/) -->

<svg
   xmlns:dc="http://purl.org/dc/elements/1.1/"
   xmlns:cc="http://creativecommons.org/ns#"
   xmlns:rdf="http://www.w3.org/1999/02/22-rdf-syntax-ns#"
   xmlns:svg="http://www.w3.org/2000/svg"
   xmlns="http://www.w3.org/2000/svg"
   xmlns:sodipodi="http://sodipodi.sourceforge.net/DTD/sodipodi-0.dtd"
   xmlns:inkscape="http://www.inkscape.org/namespaces/inkscape"
   id="svg2"
   height="100%"
   viewBox="0 0 512 512"
   width="100%"
   version="1.1"
   inkscape:version="0.91 r13725"
   sodipodi:docname="system-log-out.svg">
  <defs
     id="defs42" />
  <sodipodi:namedview
     pagecolor="#ffffff"
     bordercolor="#666666"
     borderopacity="1"
     objecttolerance="10"
     gridtolerance="10"
     guidetolerance="10"
     inkscape:pageopacity="0"
     inkscape:pageshadow="2"
     inkscape:window-width="1360"
     inkscape:window-height="717"
     id="namedview40"
     showgrid="false"
     inkscape:zoom="0.4609375"
     inkscape:cx="256"
     inkscape:cy="256"
     inkscape:window-x="0"
     inkscape:window-y="25"
     inkscape:window-maximized="1"
     inkscape:current-layer="g4" />
  <metadata
     id="metadata80">
    <rdf:RDF>
      <cc:Work
         rdf:about="">
        <dc:format>image/svg+xml</dc:format>
        <dc:type
           rdf:resource="http://purl.org/dc/dcmitype/StillImage" />
      </cc:Work>
    </rdf:RDF>
  </metadata>
  <g
     id="g4"
     transform="translate(0,-540.36)">
    <path
       id="path6"
       d="m471.95 793.41c0 120.9-98.01 218.9-218.9 218.9-120.9 0-218.9-98.01-218.9-218.9 0-120.9 98.01-218.9 218.9-218.9 120.9 0 218.9 98.01 218.9 218.9"
       fill-rule="evenodd"
       fill="#0078ad"
       style="fill:#0084ad;fill-opacity:1" />
    <text
       id="text10"
       style="word-spacing:0;letter-spacing:0"
       font-size="208.33px"
       line-height="125%"
       y="1089.88"
       x="-1160.48"
       font-family="Gentium Book Basic">
      <tspan
         id="tspan12"
         y="1089.88"
         x="-1160.48" />
    </text>
    <text
       id="text14"
       style="text-anchor:middle"
       font-size="75.7px"
       transform="scale(4.0128 .2492)"
       y="3810.6299"
       x="28.534"
       font-family="Arial" />
    <g
       id="g16"
       fill-rule="evenodd">
      <path
         id="path18"
         fill-opacity=".067"
         d="m256 541.36c-140.83 0-255 114.17-255 255s114.17 255 255 255 255-114.17 255-255-114.17-255-255-255m8.827 44.931c120.9 0 218.9 98 218.9 218.9s-98 218.9-218.9 218.9-218.93-98-218.93-218.9 98.03-218.9 218.93-218.9" />
      <g
         id="g20"
         fill-opacity=".129">
        <path
           id="path22"
           d="m256 544.79c-138.94 0-251.57 112.63-251.57 251.57s112.63 251.54 251.57 251.54 251.57-112.6 251.57-251.54-112.63-251.57-251.57-251.57m5.885 38.556c120.9 0 218.9 98 218.9 218.9s-98 218.9-218.9 218.9-218.93-98-218.93-218.9 98.03-218.9 218.93-218.9" />
        <path
           id="path24"
           d="m256 548.72c-136.77 0-247.64 110.87-247.64 247.64s110.87 247.64 247.64 247.64 247.64-110.87 247.64-247.64-110.87-247.64-247.64-247.64m2.942 31.691c120.9 0 218.9 98 218.9 218.9s-98 218.9-218.9 218.9-218.93-98-218.93-218.9 98.03-218.9 218.93-218.9" />
      </g>
      <path
         id="path26"
         d="m253.04 548.22c-135.42 0-245.19 109.78-245.19 245.19 0 135.42 109.78 245.19 245.19 245.19 135.42 0 245.19-109.78 245.19-245.19 0-135.42-109.78-245.19-245.19-245.19zm0 26.297c120.9 0 218.9 98 218.9 218.9s-98 218.9-218.9 218.9-218.93-98-218.93-218.9 98.03-218.9 218.93-218.9z"
         stroke-opacity=".31"
         stroke="#000"
         stroke-width="4.904"
         fill="#fff" />
    </g>
    <text
       id="text28"
       style="word-spacing:0;letter-spacing:0"
       font-size="129.23px"
       line-height="125%"
       y="771.71997"
       x="729.64001"
       font-family="Gentium Book Basic">
      <tspan
         id="tspan30"
         y="771.71997"
         x="729.64001" />
    </text>
    <text
       id="text32"
       style="text-anchor:middle"
       font-size="46.954px"
       transform="scale(4.0128 .2492)"
       y="2747.6399"
       x="378.91"
       font-family="Arial" />
    <text
       id="text34"
       style="word-spacing:0;letter-spacing:0"
       font-size="129.23px"
       line-height="125%"
       y="691.71997"
       x="1310.91"
       font-family="Gentium Book Basic">
      <tspan
         id="tspan36"
         y="691.71997"
         x="1310.91" />
    </text>
    <text
       id="text38"
       style="text-anchor:middle"
       font-size="46.954px"
       transform="scale(4.0128 .2492)"
       y="2426.6001"
       x="523.76001"
       font-family="Arial" />
    <text
       id="text40"
       style="word-spacing:0;letter-spacing:0"
       font-size="129.23px"
       line-height="125%"
       y="510.45999"
       x="239.33"
       font-family="Gentium Book Basic">
      <tspan
         id="tspan42"
         y="510.45999"
         x="239.33" />
    </text>
    <text
       id="text44"
       style="text-anchor:middle"
       font-size="46.954px"
       transform="scale(4.0128 .2492)"
       y="1699.25"
       x="256.72"
       font-family="Arial" />
    <text
       id="text46"
       style="word-spacing:0;letter-spacing:0"
       font-size="129.23px"
       line-height="125%"
       y="293.98999"
       x="1337.38"
       font-family="Gentium Book Basic">
      <tspan
         id="tspan48"
         y="293.98999"
         x="1337.38" />
    </text>
    <text
       id="text50"
       style="text-anchor:middle"
       font-size="46.954px"
       transform="scale(4.0128 .2492)"
       y="830.57001"
       x="530.35999"
       font-family="Arial" />
    <text
       id="text52"
       style="word-spacing:0;letter-spacing:0"
       font-size="129.23px"
       line-height="125%"
       y="213.99001"
       x="1918.65"
       font-family="Gentium Book Basic">
      <tspan
         id="tspan54"
         y="213.99001"
         x="1918.65" />
    </text>
    <text
       id="text56"
       style="text-anchor:middle"
       font-size="46.954px"
       transform="scale(4.0128 .2492)"
       y="509.54001"
       x="675.21002"
       font-family="Arial" />
    <text
       id="text58"
       style="word-spacing:0;letter-spacing:0"
       font-size="129.23px"
       line-height="125%"
       y="-258.41"
       x="1529.53"
       font-family="Gentium Book Basic">
      <tspan
         id="tspan60"
         y="-258.41"
         x="1529.53" />
    </text>
    <text
       id="text62"
       style="text-anchor:middle"
       font-size="46.954px"
       transform="scale(4.0128 .2492)"
       y="-1386.12"
       x="578.23999"
       font-family="Arial" />
    <text
       id="text64"
       style="word-spacing:0;letter-spacing:0"
       font-size="129.23px"
       line-height="125%"
       y="-338.42001"
       x="2110.79"
       font-family="Gentium Book Basic">
      <tspan
         id="tspan66"
         y="-338.42001"
         x="2110.79" />
    </text>
    <text
       id="text68"
       style="text-anchor:middle"
       font-size="46.954px"
       transform="scale(4.0128 .2492)"
       y="-1707.16"
       x="723.09003"
       font-family="Arial" />
    <text
       id="text70"
       style="word-spacing:0;letter-spacing:0"
       font-size="208.33px"
       line-height="125%"
       y="1076.3"
       x="277.98999"
       font-family="Gentium Book Basic">
      <tspan
         id="tspan72"
         y="1076.3"
         x="277.98999" />
    </text>
    <path
       id="path74"
       fill="#fff"
       d="m240.64 677.31c-65.64 0-119.05 53.4-119.05 119.05 0 65.64 53.4 119.05 119.05 119.05 46.871 0 89.56-27.737 108.71-70.68 0.331-0.738 0.215-1.628-0.223-2.307-0.44-0.674-1.202-1.042-2.01-1.042h-43.899c-0.745 0-1.485 0.3-1.935 0.893-14.39 18.938-37.06 30.28-60.64 30.28-42.01 0-76.19-34.18-76.19-76.19s34.18-76.19 76.19-76.19c24.607 0 47.881 12.05 62.2 32.29 0.448 0.631 1.161 1.042 1.935 1.042h43.3c0.798 0 1.492-0.375 1.935-1.042 0.44-0.664 0.535-1.496 0.223-2.232-18.45-43.593-62.49-72.916-109.6-72.916m128.57 69.05c-0.233 0.02-0.446 0.054-0.67 0.149-0.893 0.367-1.488 1.268-1.488 2.232v26.19h-85.71c-1.317 0-2.381 1.067-2.381 2.381v40.25c0 1.317 1.064 2.381 2.381 2.381h85.71v26.19c0 0.948 0.54 1.782 1.414 2.158s1.911 0.204 2.604-0.447l49.777-46.875c0.464-0.44 0.735-1.068 0.744-1.711 0.014-0.64-0.22-1.254-0.67-1.711l-49.777-50.45c-0.509-0.514-1.236-0.808-1.935-0.744" />
  </g>
</svg>
