<?xml version="1.0" encoding="UTF-8" standalone="no"?>
<svg
   xmlns:dc="http://purl.org/dc/elements/1.1/"
   xmlns:cc="http://creativecommons.org/ns#"
   xmlns:rdf="http://www.w3.org/1999/02/22-rdf-syntax-ns#"
   xmlns:svg="http://www.w3.org/2000/svg"
   xmlns="http://www.w3.org/2000/svg"
   xmlns:sodipodi="http://sodipodi.sourceforge.net/DTD/sodipodi-0.dtd"
   xmlns:inkscape="http://www.inkscape.org/namespaces/inkscape"
   height="48"
   width="48"
   version="1"
   id="svg12"
   sodipodi:docname="whatsapp.svg"
   inkscape:version="0.92.2pre0 (973e216, 2017-07-25)">
  <metadata
     id="metadata18">
    <rdf:RDF>
      <cc:Work
         rdf:about="">
        <dc:format>image/svg+xml</dc:format>
        <dc:type
           rdf:resource="http://purl.org/dc/dcmitype/StillImage" />
      </cc:Work>
    </rdf:RDF>
  </metadata>
  <defs
     id="defs16" />
  <sodipodi:namedview
     pagecolor="#ffffff"
     bordercolor="#666666"
     borderopacity="1"
     objecttolerance="10"
     gridtolerance="10"
     guidetolerance="10"
     inkscape:pageopacity="0"
     inkscape:pageshadow="2"
     inkscape:window-width="640"
     inkscape:window-height="480"
     id="namedview14"
     showgrid="false"
     inkscape:zoom="4.9166667"
     inkscape:cx="24"
     inkscape:cy="24"
     inkscape:window-x="0"
     inkscape:window-y="28"
     inkscape:window-maximized="0"
     inkscape:current-layer="svg12" />
  <path
     d="m 23.796573,1.762712 c -0.535917,0 -1.064052,0.025132 -1.589963,0.060531 -0.0656,0.00471 -0.1312,0.00941 -0.1968,0.014652 -7.944257,0.602956 -14.6721367,5.1903619 -18.0699883,11.693367 -0.00123,0.0011 -0.00189,0.0032 -0.00256,0.0043 -0.2199264,0.420294 -0.4449673,0.839518 -0.6363189,1.275854 -1.0410368,2.260817 -1.6063077,4.660663 -1.7090437,7.172801 -0.00456,0.08128 -0.00511,0.163626 -0.00868,0.244904 -0.0069,0.239557 -0.021236,0.478044 -0.019569,0.720809 -6.671e-4,0.06738 -0.00434,0.133682 -0.00434,0.202126 0,2.487541 0.4595328,4.86172 1.263854,7.07869 0.3237743,0.99352 0.6966931,1.997733 1.1466638,3.01478 1.1207573,2.532457 1.2599624,3.223322 1.0836211,5.338694 -0.1228608,1.473702 -0.5382527,2.978418 -1.0576036,3.826492 -0.4707626,0.767865 -0.8555782,1.561397 -0.8555782,1.762454 0,0.624559 3.754982,0.406391 7.0726688,-0.411738 3.887072,-0.957159 4.227301,-0.95502 7.413899,0.0064 1.457652,0.440613 3.122109,0.678031 4.998933,0.744337 0.07894,0.0032 0.157885,0.0032 0.236827,0.0064 0.25684,0.0064 0.503674,0.02246 0.769409,0.02246 0.02113,0 0.04114,-0.0021 0.06227,-0.0021 0.03447,0 0.06782,0.0021 0.102294,0.0021 0.620419,0 1.234168,-0.02995 1.841244,-0.077 5.49816,-0.376447 9.913366,-2.33354 13.887162,-6.149339 3.274435,-3.144182 5.303584,-7.026285 6.105236,-11.086988 0.07339,-0.372168 0.134536,-0.746475 0.189017,-1.123991 0.03224,-0.232071 0.06671,-0.463072 0.09117,-0.696212 0.05337,-0.498364 0.08562,-1.005283 0.103405,-1.514341 0.0044,-0.128334 0.01005,-0.255599 0.01112,-0.383933 0.0022,-0.119779 0.0089,-0.237418 0.0089,-0.357197 0,-11.651657 -9.592038,-21.0628171 -21.624613,-21.374027 -0.0934,-0.00299 -0.186793,-0.00524 -0.280189,-0.00663 -0.111187,-0.0015 -0.221261,-0.00835 -0.332447,-0.00835 z"
     id="path2"
     inkscape:connector-curvature="0"
     style="fill:#47ad5d;stroke-width:1.09045005" />
  <path
     d="m 1.5766693,23.533506 c -0.00621,0.161123 -0.014157,0.321851 -0.01303,0.484589 -6.671e-4,0.06844 -0.00434,0.13475 -0.00434,0.203195 0,2.487006 0.4595661,4.862148 1.263854,7.078797 0.3236966,0.993744 0.6966263,1.997304 1.1465526,3.014138 0.7242117,1.636472 1.0363225,2.506469 1.120535,3.486193 C 5.1525089,36.279659 4.9304701,35.415545 3.9698209,33.24563 3.5198502,32.228583 3.1469316,31.22437 2.8231571,30.230851 2.0605307,28.129382 1.6215674,25.881397 1.5766482,23.533955 Z m 44.4444777,0.156653 c -0.0021,0.0675 -0.0044,0.134996 -0.0066,0.202607 -0.01791,0.508908 -0.05032,1.015271 -0.104241,1.514341 -0.02453,0.232713 -0.05868,0.463596 -0.0912,0.69556 -0.05379,0.377869 -0.115044,0.752561 -0.188928,1.123778 -0.801842,4.061557 -2.830133,7.943018 -6.104347,11.086988 -3.974241,3.816225 -8.389891,5.773319 -13.887162,6.149337 -0.608189,0.04813 -1.221936,0.07807 -1.842355,0.07807 -0.03427,0 -0.06783,-0.0019 -0.102071,-0.0021 -0.02155,1.06e-4 -0.04139,0.0021 -0.06298,0.0021 -0.265391,0 -0.511835,-0.01624 -0.768753,-0.02297 -0.07874,-0.0031 -0.158173,-0.0024 -0.236705,-0.0063 -1.877268,-0.06544 -3.541059,-0.303531 -4.999044,-0.743599 -3.187265,-0.962035 -3.526939,-0.963468 -7.413899,-0.0063 -2.750303,0.677293 -5.768676,0.933866 -6.7319936,0.649606 -0.1972222,0.38913 -0.3409415,0.715418 -0.3409415,0.831325 0,0.624089 3.7549818,0.405601 7.0728911,-0.411492 3.88696,-0.9572 4.226633,-0.955724 7.413898,0.0063 1.457985,0.440068 3.121776,0.67816 4.999044,0.743599 0.07853,0.0039 0.157952,0.0032 0.236705,0.0063 0.256908,0.0067 0.503362,0.02297 0.768753,0.02297 0.02158,0 0.04142,-0.002 0.06298,-0.0021 0.03424,1.47e-4 0.0678,0.0021 0.102071,0.0021 0.620953,0 1.233723,-0.02974 1.841467,-0.07729 5.497604,-0.37605 9.913254,-2.333112 13.887162,-6.149337 3.274323,-3.144183 5.302582,-7.025538 6.104347,-11.086988 0.07388,-0.371196 0.135146,-0.745888 0.188928,-1.123779 0.03252,-0.231963 0.06668,-0.462846 0.09121,-0.695559 0.05392,-0.49908 0.08633,-1.005454 0.10424,-1.514341 0.004,-0.128249 0.0093,-0.256037 0.0109,-0.384339 0.0034,-0.120848 0.01005,-0.238487 0.01005,-0.358266 0,-0.17785 -0.0086,-0.353763 -0.01303,-0.530544 z"
     id="path4"
     inkscape:connector-curvature="0"
     style="opacity:0.2;stroke-width:1.09045005" />
  <path
     d="m 23.796573,1.762712 c -0.535917,0 -1.064052,0.025132 -1.589963,0.060531 -0.0656,0.00471 -0.1312,0.00941 -0.1968,0.014652 -7.944257,0.602956 -14.6721367,5.1903619 -18.0699883,11.693367 -0.00123,0.0011 -0.00189,0.0032 -0.00256,0.0043 -0.2199264,0.420294 -0.4449673,0.839518 -0.6363189,1.275854 -1.0410368,2.260817 -1.6063077,4.660663 -1.7090437,7.172801 -0.00456,0.08128 -0.00511,0.163626 -0.00868,0.244904 -0.0069,0.239557 -0.021236,0.478044 -0.019569,0.720809 -6.671e-4,0.06738 -0.00434,0.133682 -0.00434,0.202126 0,0.128335 0.014899,0.25453 0.017345,0.381794 0.003,-0.07807 0.00434,-0.157209 0.00656,-0.235279 0.00356,-0.08128 0.00412,-0.163626 0.00868,-0.244904 0.1027358,-2.512138 0.6680069,-4.911984 1.7090437,-7.172801 0.1913516,-0.436335 0.4163925,-0.85556 0.6363189,-1.275854 6.671e-4,-0.0011 0.00133,-0.0032 0.00212,-0.0043 C 7.3382293,8.0980268 14.065553,3.510514 22.009365,2.9073442 c 0.0656,-0.00492 0.1312,-0.00962 0.1968,-0.01433 0.525911,-0.035399 1.054045,-0.060531 1.589964,-0.060531 0.111185,0 0.22126,0.00685 0.332447,0.00835 0.0934,0.00139 0.186792,0.00364 0.280189,0.00631 11.849117,0.3063974 21.324409,9.4392868 21.61127,20.8435808 0.0022,-0.06096 0.0044,-0.120848 0.0044,-0.181806 0.0022,-0.119779 0.0089,-0.237418 0.0089,-0.357197 0,-11.651658 -9.592037,-21.0628179 -21.624612,-21.3740279 -0.09339,-0.00299 -0.186793,-0.00524 -0.280189,-0.00663 -0.111187,-0.0015 -0.221261,-0.00835 -0.332447,-0.00835 z M 5.0905994,37.799969 c -0.010337,0.25346 -0.011786,0.481252 -0.036914,0.783906 -0.1228607,1.473703 -0.5382526,2.978419 -1.0576035,3.826493 -0.4707626,0.767865 -0.8555782,1.561396 -0.8555782,1.762453 0,0.106946 0.1420961,0.179668 0.3408971,0.238487 0.1462099,-0.288751 0.3142123,-0.604238 0.5146811,-0.93149 0.5193509,-0.848074 0.9347428,-2.35279 1.0576035,-3.826493 0.062376,-0.748614 0.083056,-1.316493 0.036914,-1.853356 z"
     id="path6"
     inkscape:connector-curvature="0"
     style="opacity:0.2;fill:#ffffff;stroke-width:1.09045005" />
  <path
     style="opacity:0.2;fill:#000000;fill-opacity:1;stroke-width:1.09045005;enable-background:new"
     d="m 32.136556,33.351361 c 1.667025,-0.742177 2.442061,-1.673362 2.709308,-3.255148 0.203671,-1.205486 0.109741,-1.513891 -2.426173,-2.652125 -3.224401,-1.447309 -3.025634,-1.454216 -4.414694,0.153546 -0.864484,1.000583 -1.235957,1.325222 -1.516503,1.325222 -3.285991,-0.828246 -6.629512,-3.220724 -7.692934,-6.362498 0,-0.134529 0.349748,-0.626728 0.777236,-1.093771 1.256961,-1.373252 1.258339,-1.406904 0.160887,-3.927502 -1.263409,-2.901806 -1.690762,-2.882103 -3.067136,-2.935179 -1.40853,-0.05431 -1.853642,0.154409 -2.744833,1.287065 -0.922035,1.171874 -1.251235,2.114597 -1.24364,3.561417 0.01005,1.836332 0.655531,3.310772 2.525117,5.764396 3.209502,4.21209 6.340885,6.498238 10.852133,7.922859 2.759065,0.871308 4.466273,0.930739 6.081232,0.211718 z"
     id="path8"
     inkscape:connector-curvature="0" />
  <path
     d="m 32.136556,32.281912 c 1.667025,-0.742177 2.442061,-1.673362 2.709308,-3.255148 0.203671,-1.205486 0.109741,-1.513891 -2.426173,-2.652125 -3.224401,-1.447308 -3.025634,-1.454216 -4.414694,0.153546 -0.864484,1.000583 -1.235957,1.325222 -1.516503,1.325222 -3.285991,-0.828246 -6.629512,-3.220724 -7.692934,-6.362498 0,-0.134528 0.349748,-0.626727 0.777236,-1.093771 1.256961,-1.373252 1.258339,-1.406904 0.160887,-3.927502 -1.263409,-2.901806 -1.690762,-2.882103 -3.067136,-2.935179 -1.40853,-0.05431 -1.853642,0.15441 -2.744833,1.287066 -0.922035,1.171874 -1.251235,2.114596 -1.24364,3.561416 0.01005,1.836333 0.655531,3.310773 2.525117,5.764396 3.209502,4.212091 6.340885,6.498238 10.852133,7.92286 2.759065,0.871307 4.466273,0.930738 6.081232,0.211717 z"
     style="fill:#ffffff;fill-opacity:1;stroke-width:1.09045005;enable-background:new"
     id="path10"
     inkscape:connector-curvature="0" />
</svg>
