<?xml version="1.0" encoding="UTF-8" standalone="no"?>
<!-- Created with Sodipodi ("http://www.sodipodi.com/") -->

<svg
   xmlns:dc="http://purl.org/dc/elements/1.1/"
   xmlns:cc="http://creativecommons.org/ns#"
   xmlns:rdf="http://www.w3.org/1999/02/22-rdf-syntax-ns#"
   xmlns:svg="http://www.w3.org/2000/svg"
   xmlns="http://www.w3.org/2000/svg"
   xmlns:xlink="http://www.w3.org/1999/xlink"
   xmlns:sodipodi="http://sodipodi.sourceforge.net/DTD/sodipodi-0.dtd"
   xmlns:inkscape="http://www.inkscape.org/namespaces/inkscape"
   version="1"
   x="0.00000000"
   y="0.00000000"
   width="90.0000000"
   height="90.0000000"
   id="folder_svg_svg548"
   sodipodi:version="0.32"
   sodipodi:docname="folder-cyan.svg"
   inkscape:version="0.92.2pre0 (973e216, 2017-07-25)"
   inkscape:output_extension="org.inkscape.output.svg.inkscape">
  <metadata
     id="metadata19">
    <rdf:RDF>
      <cc:Work
         rdf:about="">
        <dc:format>image/svg+xml</dc:format>
        <dc:type
           rdf:resource="http://purl.org/dc/dcmitype/StillImage" />
      </cc:Work>
    </rdf:RDF>
  </metadata>
  <sodipodi:namedview
     id="base"
     inkscape:zoom="4.5222222"
     inkscape:cx="44.625556"
     inkscape:cy="58.779641"
     inkscape:window-width="1360"
     inkscape:window-height="669"
     inkscape:window-x="0"
     inkscape:window-y="28"
     inkscape:current-layer="folder_svg_svg548"
     showgrid="false"
     showguides="true"
     inkscape:guide-bbox="true"
     inkscape:window-maximized="1" />
  <defs
     id="defs550">
    <linearGradient
       spreadMethod="pad"
       gradientUnits="objectBoundingBox"
       id="linearGradient3435"
       y2="0.00000000"
       x2="1.00000000"
       y1="0.00000000"
       x1="0.00000000">
      <stop
         id="stop3437"
         offset="0.000000"
         style="stop-color:#31baff;stop-opacity:1" />
      <stop
         id="stop3439"
         offset="1.000000"
         style="stop-color:#31baff;stop-opacity:0" />
    </linearGradient>
    <linearGradient
       id="folder_svg_Gradient559"
       xlink:href="#linearGradient3435"
       x1="60.644615"
       y1="19.295689"
       x2="35.370575"
       y2="69.142799"
       gradientUnits="userSpaceOnUse"
       spreadMethod="pad" />
    <linearGradient
       inkscape:collect="always"
       xlink:href="#linearGradient3435"
       id="linearGradient3387"
       gradientUnits="userSpaceOnUse"
       gradientTransform="matrix(1.0509199,-0.1486035,0.1724016,1.4993733,-28.78467,5.713269)"
       spreadMethod="pad"
       x1="85.637657"
       y1="17.443844"
       x2="73.916298"
       y2="54.628181" />
  </defs>
  <path
     d="M 32.5076 12.1608 C 32.0388 12.0045 25.3201 7.94201 25.0076 12.942 C 24.6951 17.942 23.7434 54.4234 26.2434 59.4235 C 27.3371 62.5485 30.1496 67.236 35.1496 70.5173 C 39.2121 73.1735 62.9754 88.0916 64.8504 88.2478 C 66.7254 88.4041 70.6317 89.6541 71.4129 84.3416 C 72.1942 79.029 74.9934 64.7445 75.3535 59.0032 C 75.1973 53.847 77.3856 50.4095 72.8268 45.8031 C 69.7018 43.9281 38.2679 19.4101 36.5491 18.3164 C 34.8304 17.2226 33.3974 16.6862 32.5076 12.1608 z "
     transform="matrix(1.418885,-0.200635,0.127692,1.110535,-25.22021,4.335069)"
     style="font-size:12;fill:#000009;fill-opacity:0.301471;fill-rule:evenodd;stroke-width:1pt;"
     id="folder_svg_path783"
     sodipodi:nodetypes="cccccccccc" />
  <path
     d="M 27.3438 9.06248 C 26.875 8.90623 20.1563 4.84373 19.8438 9.84373 C 19.5313 14.8437 21.7948 51.43 24.2948 56.43 C 25.3885 59.555 28.201 64.2425 33.201 67.5238 C 37.2635 70.18 63.75 84.2187 65.625 84.375 C 67.5 84.5312 71.4063 85.7812 72.1875 80.4687 C 72.9688 75.1562 75.2238 42.4099 75.0675 41.3162 C 74.9113 36.1599 71.1613 32.7225 69.4426 31.4724 C 66.3176 29.5974 36.7188 11.4062 35 10.3125 C 33.2813 9.21873 28.75 6.87498 27.3438 9.06248 z "
     transform="matrix(1.418885,-0.200635,0.127692,1.110535,-28.78467,5.713269)"
     style="font-size:12;fill:#283d53;fill-rule:evenodd;stroke-width:1pt"
     id="folder_svg_path554"
     sodipodi:nodetypes="cccccccccc" />
  <path
     style="font-size:12;fill:#1bffef;fill-rule:evenodd;stroke-width:1pt;fill-opacity:1"
     d="M 15.4375 11.75 C 15.4375 11.75 14.955374 12.509219 14.5 13.15625 C 24.460667 17.797822 26.706214 19.210219 29.59375 21.625 C 32.431177 23.997877 31.349472 30.105742 33.4375 32.75 C 36.359933 36.450939 55.605226 41.487504 57.34375 42.15625 C 60.342094 43.309601 63.40772 46.240022 64.90625 49.375 C 71.606012 63.391132 73.261382 73.084807 74.28125 79 C 67.318619 67.833612 67.182803 49.379952 53.28125 44.3125 C 46.109171 42.681463 33.827697 37.555273 32.0625 36.9375 C 25.890899 34.777601 31.05433 25.5056 22.3125 21.0625 C 18.92126 19.338878 13.112841 16.443136 8.9375 14.375 C 6.5587755 14.254418 4.6687876 15.227876 5.375 17.46875 C 6.0556711 21.428432 11.851329 59.87863 20.8125 65.3125 C 29.791321 72.85998 74.644063 82.261137 75.8125 82.625 C 76.980781 82.98877 79.410443 82.477205 79.375 78.25 C 79.339554 74.022796 79.603258 42.0335 78.71875 40.21875 C 78.379429 37.268965 76.86369 33.958759 72.59375 32.09375 C 68.323808 30.22874 16.767705 11.561905 15.4375 11.75 z "
     id="folder_svg_path552" />
  <path
     style="font-size:12;fill:url(#linearGradient3387);fill-rule:evenodd;stroke-width:1pt;fill-opacity:1.0"
     d="M 30.5625 22.8125 C 32.195807 25.627614 31.636576 30.469327 33.4375 32.75 C 36.359933 36.450939 55.605226 41.487504 57.34375 42.15625 C 60.342094 43.309601 63.40772 46.240022 64.90625 49.375 C 68.719633 57.352729 70.860825 63.87889 72.21875 69.15625 C 74.238011 73.907829 75.659871 77.490767 75.625 77.1875 C 75.525247 76.31995 75.362792 39.667871 73.25 36.96875 C 71.431182 34.64527 39.764118 25.45247 30.5625 22.8125 z "
     id="folder_svg_path562" />
  <path
     style="font-size:12;fill:url(#folder_svg_Gradient559);fill-rule:evenodd;stroke-width:1pt;fill-opacity:1.0"
     d="M 32.2401 16.3592 C 34.0465 17.0528 40.7504 22.4843 42.7984 25.8628 C 43.6822 29.3984 42.4278 36.1872 46.8472 40.1647 C 51.2666 44.1421 62.0666 47.0499 63.6134 50.5854 C 65.1602 54.121 71.1434 74.6929 71.5854 76.6816 C 72.0273 78.6704 38.4557 61.3834 37.3508 56.3011 C 35.6801 51.1165 33.3449 40.666 32.2401 16.3592 z "
     id="folder_svg_path635"
     transform="matrix(1.418885,-0.200635,0.127692,1.110535,-41.88497,7.389349)"
     sodipodi:nodetypes="ccccccc" />
  <g
     transform="translate(-5.1960684,-6.4249596)"
     id="g34">
    <path
       inkscape:connector-curvature="0"
       sodipodi:nodetypes="cssssssss"
       id="path634"
       d="M 62.268119,77.952653 56.694176,67.564557 C 56.642503,67.468238 47.490544,67.433635 43.83938,66.083126 35.352736,62.94289 25.503148,53.53404 30.152215,39.133248 33.863615,27.65911 45.834178,20.039575 60.058041,25.12471 c 11.687243,4.178458 19.231781,16.164812 12.747361,29.087432 -3.176343,6.370767 -8.02385,8.968925 -7.68322,9.755887 l 5.542288,12.804009 c 0.900603,2.080609 -3.998716,9.376436 -8.396351,1.180615 z"
       style="font-size:12px;fill:none;fill-rule:evenodd;stroke:#000000;stroke-width:4.05126762" />
    <path
       inkscape:connector-curvature="0"
       sodipodi:nodetypes="csccccscccc"
       id="path620"
       d="m 71.288795,52.695771 c -1.035932,2.589147 -2.57749,4.857186 -4.477898,6.741487 -0.950199,0.942151 -3.10896,3.362095 -4.289983,4.000616 l 3.709081,12.191376 -1.116932,0.757626 -6.741158,-11.866771 c -1.287459,0.414506 -4.721018,1.067856 -6.095357,1.117311 -2.748686,0.09893 -5.562653,-0.311093 -8.295125,-1.292693 C 33.051472,60.418348 27.543826,48.826373 31.687564,38.469777 35.831301,28.113172 48.065011,22.894442 58.994953,26.820816 69.924886,30.747191 75.432532,42.339175 71.288795,52.695771 Z"
       style="font-size:12px;fill:none;fill-rule:evenodd;stroke:#efe16b;stroke-width:3.05945706" />
    <path
       inkscape:connector-curvature="0"
       sodipodi:nodetypes="ccccc"
       id="path1170"
       d="m 63.918796,62.0314 6.21687,15.269945 c 0.802225,2.979781 -3.176951,4.930135 -5.503947,2.455271 L 56.375926,65.104982 c 1.183941,-2.285196 5.558415,-3.303851 7.54287,-3.073582 z"
       style="font-size:12px;fill:#ffc83d;fill-rule:evenodd;stroke-width:0.84535986" />
    <path
       inkscape:connector-curvature="0"
       sodipodi:nodetypes="ccccc"
       id="path567"
       d="m 63.438521,62.249359 6.259606,15.102873 c 0.02857,2.084543 0.0112,-1.410053 -2.841662,1.173457 L 60.30989,63.416594 c 0.312875,-0.725632 1.094257,-1.488796 3.128631,-1.167235 z"
       style="font-size:12px;fill:#ff933d;fill-rule:evenodd;stroke-width:0.84535986" />
    <path
       inkscape:connector-curvature="0"
       sodipodi:nodetypes="ccccc"
       id="path568"
       d="m 58.916706,63.671912 7.163483,14.803819 c 0.416966,0.294578 -0.686071,0.147618 -0.962844,1.321412 -0.18616,-0.675995 -7.851742,-15.07055 -7.851742,-15.07055 z"
       style="font-size:12px;fill:#ffffff;fill-rule:evenodd;stroke-width:0.84535986" />
    <ellipse
       ry="18.839329"
       rx="19.614492"
       cy="24.919968"
       cx="64.546806"
       transform="matrix(0.94111786,0.33807864,-0.37147518,0.92844289,0,0)"
       id="path611"
       style="font-size:12px;fill:#bae6ff;fill-opacity:0.431;fill-rule:evenodd;stroke:none;stroke-width:1.04183713pt" />
    <path
       inkscape:connector-curvature="0"
       sodipodi:nodetypes="ccscscs"
       id="path610"
       d="m 68.640553,36.534218 c 2.805586,3.982463 4.008946,8.978355 2.943582,14.041568 -1.065381,5.063229 -4.198797,9.23982 -8.401727,11.89823 -4.202939,2.658426 -9.475393,3.798662 -14.818912,2.789158 -5.343502,-1.009479 -8.264843,-3.157928 -12.556911,-7.960984 m 0,0 c 29.434504,1.956477 25.386278,-6.496522 32.833968,-20.767972"
       style="font-size:12px;fill:#437caf;fill-opacity:0.34479998;fill-rule:evenodd;stroke-width:0.84535986pt" />
    <path
       inkscape:connector-curvature="0"
       sodipodi:nodetypes="ccccccc"
       id="path651"
       d="m 63.944407,61.835832 c -2.113003,-0.0048 -1.505014,0.10045 -3.619666,0.529957 -0.153159,0.112547 -1.136663,-0.350328 -3.929406,2.821803 l 1.870325,3.422396 c 1.154501,-0.689392 2.982836,-2.04023 3.827815,-2.242817 1.240789,-0.332645 1.859278,-0.508315 3.49448,-0.536187 z"
       style="fill:#ff0000;fill-opacity:1;fill-rule:evenodd;stroke:none;stroke-width:0.84535986pt;stroke-linecap:butt;stroke-linejoin:miter;stroke-opacity:1" />
    <path
       inkscape:connector-curvature="0"
       sodipodi:nodetypes="ccccc"
       id="path652"
       d="m 59.730499,66.077983 -1.372984,0.886054 -1.172417,-1.963981 1.278011,-0.899953 z"
       style="fill:#ffffff;fill-opacity:1;fill-rule:evenodd;stroke:none;stroke-width:0.84535986pt;stroke-linecap:butt;stroke-linejoin:miter;stroke-opacity:1" />
  </g>
</svg>
