<?xml version="1.0" encoding="UTF-8" standalone="no"?>
<!-- Created with Sodipodi ("http://www.sodipodi.com/") -->

<svg
   xmlns:dc="http://purl.org/dc/elements/1.1/"
   xmlns:cc="http://creativecommons.org/ns#"
   xmlns:rdf="http://www.w3.org/1999/02/22-rdf-syntax-ns#"
   xmlns:svg="http://www.w3.org/2000/svg"
   xmlns="http://www.w3.org/2000/svg"
   xmlns:sodipodi="http://sodipodi.sourceforge.net/DTD/sodipodi-0.dtd"
   xmlns:inkscape="http://www.inkscape.org/namespaces/inkscape"
   version="1.0"
   x="0"
   y="0"
   width="90"
   height="90"
   id="svg1101"
   xml:space="preserve"
   sodipodi:version="0.32"
   inkscape:version="0.92.2pre0 (973e216, 2017-07-25)"
   sodipodi:docname="deepin-feedback.svg"><metadata
     id="metadata45"><rdf:RDF><cc:Work
         rdf:about=""><dc:format>image/svg+xml</dc:format><dc:type
           rdf:resource="http://purl.org/dc/dcmitype/StillImage" /></cc:Work></rdf:RDF></metadata><sodipodi:namedview
     id="base"
     pagecolor="#ffffff"
     bordercolor="#666666"
     borderopacity="1.0"
     inkscape:pageopacity="0.0"
     inkscape:pageshadow="2"
     inkscape:zoom="2.4559706"
     inkscape:cx="-88.979311"
     inkscape:cy="34.989431"
     inkscape:window-width="1360"
     inkscape:window-height="669"
     inkscape:window-x="0"
     inkscape:window-y="28"
     inkscape:current-layer="svg1101"
     showgrid="false"
     inkscape:window-maximized="1" /><defs
     id="defs1103" /><path
     d="M 24.348719,57.435170 L 15.528614,86.100483 L 56.321548,64.601492 L 24.348719,57.435170 z "
     style="font-size:12.000000;fill-rule:evenodd;stroke-width:1.0000000"
     id="path1754" /><path
     d="M 24.348719,57.435170 L 15.528614,86.100483 L 56.321548,64.601492 L 24.348719,57.435170 z "
     style="font-size:12.000000;fill-rule:evenodd;stroke-width:1.0000000"
     id="path1756" /><path
     style="font-size:12.000000;fill:#000000;fill-opacity:0.32386360;fill-rule:evenodd;stroke-width:1.0000000"
     d="M 49.419572,13.156250 C 28.869188,13.156250 12.232072,26.626217 12.232072,43.218750 C 12.232072,53.619396 18.785427,61.910039 28.732072,66.656250 L 22.138322,88.125000 L 55.325822,70.656250 C 73.051505,68.711940 86.638322,58.178192 86.638322,43.218750 C 86.638322,26.626217 69.969955,13.156250 49.419572,13.156250 z "
     id="path1145" /><path
     d="M 80.025510,41.173110 C 80.025510,57.765644 63.366160,69.011525 42.815776,69.011525 C 22.265392,69.011525 5.6060057,57.765644 5.6060057,41.173110 C 5.6060057,24.580577 22.265392,11.129672 42.815776,11.129672 C 63.366160,11.129672 80.025510,24.580577 80.025510,41.173110 z "
     style="font-size:12.000000;fill-rule:evenodd"
     id="path1757" /><path
     d="M 73.410441,41.173110 C 73.410441,55.330043 59.712760,66.806502 42.815776,66.806502 C 25.918793,66.806502 12.221073,55.330043 12.221073,41.173110 C 12.221073,27.016177 25.918793,15.539718 42.815776,15.539718 C 59.712760,15.539718 73.410441,27.016177 73.410441,41.173110 z "
     style="font-size:12.000000;fill:#fffff9;fill-rule:evenodd"
     id="path1755" /><path
     d="M 73.410441,41.173110 C 73.410441,55.330043 59.712760,66.806502 42.815776,66.806502 C 25.918793,66.806502 12.221073,55.330043 12.221073,41.173110 C 12.221073,27.016177 25.918793,15.539718 42.815776,15.539718 C 59.712760,15.539718 73.410441,27.016177 73.410441,41.173110 z "
     style="font-size:12;fill:#57c93f;fill-rule:evenodd;fill-opacity:1"
     id="path1143" /><path
     d="M 29.310018,62.947721 L 21.041178,79.485388 L 45.847698,63.498974 L 42.540157,59.640180"
     style="font-size:12;fill:#57c93f;fill-rule:evenodd;stroke-width:1;fill-opacity:1"
     id="path1144" /><path
     inkscape:connector-curvature="0"
     id="path4"
     style="fill:#fa9f00;stroke:#000000;stroke-width:3.22737002"
     d="m 62.421898,42.183535 c 1.411651,-0.201388 2.662257,6.46e-4 3.751817,0.6061 1.290948,0.647411 1.936422,1.658546 1.936422,3.033405 0,1.859611 -0.988543,3.557853 -2.96563,5.094727 -1.533001,1.212845 -3.207038,1.940617 -5.022175,2.183315 -1.452317,0.202034 -2.702923,0.04034 -3.751818,-0.485073 -1.250864,-0.646765 -1.876328,-1.657577 -1.876328,-3.032437 0,-1.860256 0.948201,-3.578831 2.844539,-5.155724 1.533001,-1.25351 3.22737,-2.001615 5.083173,-2.244313 z M 69.259404,4.5201273 81.907144,6.639541 C 78.558425,12.655359 76.097555,17.358928 74.524535,20.750248 72.38608,25.393143 70.49,30.419772 68.836295,35.830135 l -8.411817,-0.363079 z" /><rect
     id="Rectangle-119"
     x="18.72349"
     y="28.846256"
     width="30.550591"
     height="2.9306767"
     rx="1.3886632"
     style="fill:#ffffff;fill-rule:evenodd;stroke:none;stroke-width:1.42648566" /><rect
     id="rect11"
     x="18.72349"
     y="37.638287"
     width="30.550591"
     height="2.9306767"
     rx="1.3886632"
     style="fill:#ffffff;fill-rule:evenodd;stroke:none;stroke-width:1.42648566" /><rect
     id="rect13"
     x="18.72349"
     y="46.430317"
     width="30.550591"
     height="2.9306767"
     rx="1.3886632"
     style="fill:#ffffff;fill-rule:evenodd;stroke:none;stroke-width:1.42648566" /></svg>