<?xml version="1.0" encoding="UTF-8" standalone="no"?>
<!-- Created with Sodipodi ("http://www.sodipodi.com/") -->

<svg
   xmlns:dc="http://purl.org/dc/elements/1.1/"
   xmlns:cc="http://creativecommons.org/ns#"
   xmlns:rdf="http://www.w3.org/1999/02/22-rdf-syntax-ns#"
   xmlns:svg="http://www.w3.org/2000/svg"
   xmlns="http://www.w3.org/2000/svg"
   xmlns:xlink="http://www.w3.org/1999/xlink"
   xmlns:sodipodi="http://sodipodi.sourceforge.net/DTD/sodipodi-0.dtd"
   xmlns:inkscape="http://www.inkscape.org/namespaces/inkscape"
   id="svg704"
   sodipodi:version="0.32"
   width="72pt"
   height="72pt"
   sodipodi:docname="virtualbox.svg"
   inkscape:version="0.92.2pre0 (973e216, 2017-07-25)"
   inkscape:output_extension="org.inkscape.output.svg.inkscape"
   version="1.1">
  <metadata
     id="metadata2498">
    <rdf:RDF>
      <cc:Work
         rdf:about="">
        <dc:format>image/svg+xml</dc:format>
        <dc:type
           rdf:resource="http://purl.org/dc/dcmitype/StillImage" />
        <dc:title />
      </cc:Work>
    </rdf:RDF>
  </metadata>
  <defs
     id="defs706">
    <linearGradient
       inkscape:collect="always"
       id="linearGradient69">
      <stop
         style="stop-color:#31baff;stop-opacity:1;"
         offset="0"
         id="stop71" />
      <stop
         style="stop-color:#558ada;stop-opacity:1"
         offset="1"
         id="stop73" />
    </linearGradient>
    <linearGradient
       id="linearGradient6689">
      <stop
         style="stop-color:#ffffff;stop-opacity:1"
         offset="0"
         id="stop6691" />
      <stop
         style="stop-color:#ffe6ba;stop-opacity:1"
         offset="1"
         id="stop6693" />
    </linearGradient>
    <linearGradient
       xlink:href="#linearGradient6689"
       y2="90.276794"
       x2="110.47768"
       y1="15.328528"
       x1="85.690964"
       gradientTransform="matrix(0.9326263,0,0,0.9326263,-33.900208,1.8036713)"
       gradientUnits="userSpaceOnUse"
       id="linearGradient3562"
       inkscape:collect="always" />
    <linearGradient
       xlink:href="#linearGradient69"
       gradientUnits="userSpaceOnUse"
       y2="69.360123"
       x2="32.836163"
       y1="31.207632"
       x1="9.9338713"
       id="linearGradient77"
       inkscape:collect="always"
       gradientTransform="translate(0.66339067,3.3169533)" />
    <linearGradient
       xlink:href="#linearGradient69"
       gradientUnits="userSpaceOnUse"
       y2="66.545601"
       x2="73.827171"
       y1="23.702225"
       x1="35.933285"
       id="linearGradient81"
       inkscape:collect="always"
       gradientTransform="translate(0.66339067,3.3169533)" />
    <linearGradient
       xlink:href="#linearGradient69"
       gradientUnits="userSpaceOnUse"
       y2="42.465748"
       x2="64.890511"
       y1="11.975023"
       x1="38.934307"
       id="linearGradient85"
       inkscape:collect="always"
       gradientTransform="translate(0.66339067,3.3169533)" />
  </defs>
  <sodipodi:namedview
     id="base"
     inkscape:zoom="4.5222222"
     inkscape:cx="47.07524"
     inkscape:cy="57.212527"
     inkscape:window-width="1024"
     inkscape:window-height="669"
     inkscape:window-x="0"
     inkscape:window-y="28"
     inkscape:current-layer="svg704"
     showgrid="false"
     inkscape:window-maximized="0" />
  <path
     style="fill:#0d0000;fill-opacity:0.30196491;fill-rule:evenodd;stroke:none;stroke-width:1px;stroke-linecap:butt;stroke-linejoin:miter;stroke-opacity:1"
     d="m 81.988186,70.634871 c 4.365772,0.359468 7.372657,3.857488 4.160271,6.84736 C 78.908891,84.220329 63.708368,91.620892 48.316082,93.185708 34.936187,91.827567 10.637617,83.608256 5.0580827,72.20184 3.0540985,68.105033 9.5291105,65.819647 13.246556,67.215712 c 15.045854,0.949251 56.831228,12.201136 68.74163,3.419159 z"
     id="path2212"
     sodipodi:nodetypes="cscscc"
     inkscape:connector-curvature="0" />
  <path
     style="fill:#283d53;fill-opacity:1;fill-rule:evenodd;stroke:#000000;stroke-width:0;stroke-linecap:butt;stroke-linejoin:miter;stroke-miterlimit:4;stroke-dasharray:none;stroke-opacity:1"
     d="M 5.1555776,14.56507 C 2.6012431,36.556797 1.8896095,58.538395 10.986991,74.031736 21.864353,82.929423 34.450193,87.378005 48.045934,89.932806 60.301439,87.756742 72.691716,83.537117 82.698438,75.475598 89.457253,54.780344 90.066934,34.085094 87.335965,14.08378 74.729248,7.462329 58.652857,5.1576302 46.046143,3.4955128 32.923768,4.8031303 17.623896,6.9003912 5.1555776,14.56507 Z"
     id="path2162"
     sodipodi:nodetypes="ccccccc"
     inkscape:connector-curvature="0" />
  <path
     style="fill:url(#linearGradient3562);fill-opacity:1;fill-rule:evenodd;stroke:#000000;stroke-width:0;stroke-linecap:butt;stroke-linejoin:miter;stroke-miterlimit:4;stroke-dasharray:none;stroke-opacity:1"
     d="M 8.364652,17.770797 C 6.0872622,37.378141 6.6901767,57.595149 14.801203,71.408674 24.499221,79.341658 35.720482,83.72038 47.842147,85.998184 58.76889,84.058052 69.815792,79.883463 78.737564,72.695989 84.396012,54.772078 85.688931,39.310321 84.315901,17.34169 70.647329,10.613224 61.357733,9.1520201 46.953743,6.9761789 32.860175,8.192181 19.481133,10.93714 8.364652,17.770797 Z"
     id="path2213"
     sodipodi:nodetypes="ccccccc"
     inkscape:connector-curvature="0" />
  <path
     style="fill:#283d53;fill-opacity:1;fill-rule:evenodd;stroke:none;stroke-width:1px;stroke-linecap:butt;stroke-linejoin:miter;stroke-opacity:1"
     d="M 45.77673,88.403009 C 43.552036,80.487101 42.275596,56.458838 43.547807,36.33478 c 0.885558,21.029459 2.359845,42.053722 5.610995,51.537857 -0.764555,0.616447 -2.310585,0.556143 -3.382072,0.530372 z"
     id="path3194"
     sodipodi:nodetypes="cccc"
     inkscape:connector-curvature="0" />
  <path
     style="fill:#283d53;fill-opacity:1;fill-rule:evenodd;stroke:none;stroke-width:1px;stroke-linecap:butt;stroke-linejoin:miter;stroke-opacity:1"
     d="M 86.590559,18.082704 C 79.300265,21.885655 61.580685,29.714891 46.481836,31.793058 66.994452,26.409669 75.971183,21.23999 84.58548,16.110396 c 0.760319,0.621661 1.810253,0.918366 2.005079,1.972308 z"
     id="path4165"
     sodipodi:nodetypes="cccc"
     inkscape:connector-curvature="0" />
  <path
     style="fill:#283d53;fill-opacity:1;fill-rule:evenodd;stroke:none;stroke-width:1px;stroke-linecap:butt;stroke-linejoin:miter;stroke-opacity:1"
     d="M 6.1692833,17.439774 C 16.131849,23.285593 21.842081,27.198634 40.755179,31.502907 20.235464,25.285314 14.945329,20.236583 8.6943003,15.303905 c -0.7750057,0.62166 -2.3264284,1.081927 -2.525017,2.135869 z"
     id="path4167"
     sodipodi:nodetypes="cccc"
     inkscape:connector-curvature="0" />
  <path
     style="color:#000000;display:inline;overflow:visible;visibility:visible;fill:url(#linearGradient77);fill-opacity:1;fill-rule:evenodd;stroke:none;stroke-width:5;marker:none;enable-background:accumulate"
     d="m 11.452416,25.455551 c -3.127254,11.883563 0.938176,36.119778 5.003606,42.999736 5.629056,3.439979 18.919884,9.850849 23.610764,10.4763 C 38.190434,72.677079 37.877709,43.593621 38.503159,37.339114 31.623201,35.150036 14.266944,27.957354 11.452416,25.455551 Z"
     id="path67"
     sodipodi:nodetypes="ccccc"
     inkscape:connector-curvature="0" />
  <path
     style="color:#000000;display:inline;overflow:visible;visibility:visible;fill:url(#linearGradient81);fill-opacity:1;fill-rule:evenodd;stroke:none;stroke-width:5;marker:none;enable-background:accumulate"
     d="M 49.135821,37.964565 C 59.768484,37.026389 76.968378,29.208255 80.095632,27.019177 80.870444,33.58641 80.162812,59.85534 75.717477,68.924375 69.46297,74.553432 57.266681,78.931587 52.5758,79.557037 51.012174,73.927981 48.823096,47.971776 49.135821,37.964565 Z"
     id="path79"
     sodipodi:nodetypes="ccccc"
     inkscape:connector-curvature="0" />
  <path
     style="color:#000000;display:inline;overflow:visible;visibility:visible;fill:url(#linearGradient85);fill-opacity:1;fill-rule:evenodd;stroke:none;stroke-width:5;marker:none;enable-background:accumulate"
     d="m 16.92511,17.011966 c 4.065429,-2.189078 22.516225,-6.567232 29.083458,-6.879958 7.192683,1.563627 23.454402,4.065429 29.083458,6.567232 C 68.212068,19.826494 48.510371,27.019177 44.444941,27.644628 39.284973,26.862815 26.932321,23.891924 16.92511,17.011966 Z"
     id="path83"
     sodipodi:nodetypes="ccccc"
     inkscape:connector-curvature="0" />
  <path
     style="color:#000000;display:inline;overflow:visible;visibility:visible;fill:none;fill-opacity:1;fill-rule:evenodd;stroke:#ffffff;stroke-width:1.89999998;stroke-miterlimit:100;stroke-dasharray:none;stroke-opacity:1;marker:none;enable-background:accumulate"
     d="m 9.6833739,42.691478 c 1.5636271,0.938176 6.7726481,3.138366 6.7726481,3.138366 l 2.738649,15.4707 3.267899,-21.358827 2.566571,15.663096 3.359497,-15.107015 2.582285,19.18086 8.298334,3.25679"
     id="path87"
     sodipodi:nodetypes="cccccccc"
     inkscape:connector-curvature="0" />
  <g
     id="g945"
     transform="matrix(0.69322088,-0.85162482,0.71627989,0.56258874,-52.780579,121.36221)"
     style="fill:#ffffff">
    <g
       id="g889"
       style="fill:#ffffff">
      <path
         style="color:#000000;font-style:normal;font-variant:normal;font-weight:normal;font-stretch:normal;font-size:medium;line-height:normal;font-family:'Bitstream Vera Sans';-inkscape-font-specification:'Bitstream Vera Sans';text-indent:0;text-align:start;text-decoration:none;text-decoration-line:none;letter-spacing:normal;word-spacing:normal;text-transform:none;writing-mode:lr-tb;direction:ltr;text-anchor:start;display:inline;overflow:visible;visibility:visible;fill:#ffffff;fill-opacity:1;stroke:none;stroke-width:1.60000002;marker:none;enable-background:accumulate"
         d="m 103.59375,49.336533 v 1.59375 h 7.25 c 0.68399,0 0.71875,0.270288 0.71875,0.5 0,0.229712 -0.0348,0.5 -0.71875,0.5 h -7.25 v 1.59375 h 7.25 c 1.36146,0 2.3125,-1.024322 2.3125,-2.09375 0,-1.069428 -0.95103,-2.09375 -2.3125,-2.09375 z"
         id="path873"
         inkscape:connector-curvature="0" />
      <path
         style="color:#000000;font-style:normal;font-variant:normal;font-weight:normal;font-stretch:normal;font-size:medium;line-height:normal;font-family:'Bitstream Vera Sans';-inkscape-font-specification:'Bitstream Vera Sans';text-indent:0;text-align:start;text-decoration:none;text-decoration-line:none;letter-spacing:normal;word-spacing:normal;text-transform:none;writing-mode:lr-tb;direction:ltr;text-anchor:start;display:inline;overflow:visible;visibility:visible;fill:#ffffff;fill-opacity:1;stroke:none;stroke-width:1.60000002;marker:none;enable-background:accumulate"
         d="m 105.90625,44.09375 c -1.36147,0 -2.3125,1.024322 -2.3125,2.09375 0,1.069428 0.95104,2.09375 2.3125,2.09375 h 7.25 V 46.6875 h -7.25 c -0.68399,0 -0.71875,-0.270288 -0.71875,-0.5 0,-0.229712 0.0348,-0.5 0.71875,-0.5 h 7.25 v -1.59375 z"
         id="path875"
         inkscape:connector-curvature="0" />
    </g>
    <g
       transform="rotate(-90,113.79741,54.231306)"
       id="use921"
       style="fill:#ffffff">
      <path
         id="path929"
         d="m 103.59375,49.336533 v 1.59375 h 7.25 c 0.68399,0 0.71875,0.270288 0.71875,0.5 0,0.229712 -0.0348,0.5 -0.71875,0.5 h -7.25 v 1.59375 h 7.25 c 1.36146,0 2.3125,-1.024322 2.3125,-2.09375 0,-1.069428 -0.95103,-2.09375 -2.3125,-2.09375 z"
         style="color:#000000;font-style:normal;font-variant:normal;font-weight:normal;font-stretch:normal;font-size:medium;line-height:normal;font-family:'Bitstream Vera Sans';-inkscape-font-specification:'Bitstream Vera Sans';text-indent:0;text-align:start;text-decoration:none;text-decoration-line:none;letter-spacing:normal;word-spacing:normal;text-transform:none;writing-mode:lr-tb;direction:ltr;text-anchor:start;display:inline;overflow:visible;visibility:visible;fill:#ffffff;fill-opacity:1;stroke:none;stroke-width:1.60000002;marker:none;enable-background:accumulate"
         inkscape:connector-curvature="0" />
      <path
         id="path931"
         d="m 105.90625,44.09375 c -1.36147,0 -2.3125,1.024322 -2.3125,2.09375 0,1.069428 0.95104,2.09375 2.3125,2.09375 h 7.25 V 46.6875 h -7.25 c -0.68399,0 -0.71875,-0.270288 -0.71875,-0.5 0,-0.229712 0.0348,-0.5 0.71875,-0.5 h 7.25 v -1.59375 z"
         style="color:#000000;font-style:normal;font-variant:normal;font-weight:normal;font-stretch:normal;font-size:medium;line-height:normal;font-family:'Bitstream Vera Sans';-inkscape-font-specification:'Bitstream Vera Sans';text-indent:0;text-align:start;text-decoration:none;text-decoration-line:none;letter-spacing:normal;word-spacing:normal;text-transform:none;writing-mode:lr-tb;direction:ltr;text-anchor:start;display:inline;overflow:visible;visibility:visible;fill:#ffffff;fill-opacity:1;stroke:none;stroke-width:1.60000002;marker:none;enable-background:accumulate"
         inkscape:connector-curvature="0" />
    </g>
    <g
       transform="rotate(90,113.87344,54.30733)"
       id="use923"
       style="fill:#ffffff">
      <path
         id="path935"
         d="m 103.59375,49.336533 v 1.59375 h 7.25 c 0.68399,0 0.71875,0.270288 0.71875,0.5 0,0.229712 -0.0348,0.5 -0.71875,0.5 h -7.25 v 1.59375 h 7.25 c 1.36146,0 2.3125,-1.024322 2.3125,-2.09375 0,-1.069428 -0.95103,-2.09375 -2.3125,-2.09375 z"
         style="color:#000000;font-style:normal;font-variant:normal;font-weight:normal;font-stretch:normal;font-size:medium;line-height:normal;font-family:'Bitstream Vera Sans';-inkscape-font-specification:'Bitstream Vera Sans';text-indent:0;text-align:start;text-decoration:none;text-decoration-line:none;letter-spacing:normal;word-spacing:normal;text-transform:none;writing-mode:lr-tb;direction:ltr;text-anchor:start;display:inline;overflow:visible;visibility:visible;fill:#ffffff;fill-opacity:1;stroke:none;stroke-width:1.60000002;marker:none;enable-background:accumulate"
         inkscape:connector-curvature="0" />
      <path
         id="path937"
         d="m 105.90625,44.09375 c -1.36147,0 -2.3125,1.024322 -2.3125,2.09375 0,1.069428 0.95104,2.09375 2.3125,2.09375 h 7.25 V 46.6875 h -7.25 c -0.68399,0 -0.71875,-0.270288 -0.71875,-0.5 0,-0.229712 0.0348,-0.5 0.71875,-0.5 h 7.25 v -1.59375 z"
         style="color:#000000;font-style:normal;font-variant:normal;font-weight:normal;font-stretch:normal;font-size:medium;line-height:normal;font-family:'Bitstream Vera Sans';-inkscape-font-specification:'Bitstream Vera Sans';text-indent:0;text-align:start;text-decoration:none;text-decoration-line:none;letter-spacing:normal;word-spacing:normal;text-transform:none;writing-mode:lr-tb;direction:ltr;text-anchor:start;display:inline;overflow:visible;visibility:visible;fill:#ffffff;fill-opacity:1;stroke:none;stroke-width:1.60000002;marker:none;enable-background:accumulate"
         inkscape:connector-curvature="0" />
    </g>
    <g
       transform="rotate(180,113.87344,54.231305)"
       id="use925"
       style="fill:#ffffff">
      <path
         id="path941"
         d="m 103.59375,49.336533 v 1.59375 h 7.25 c 0.68399,0 0.71875,0.270288 0.71875,0.5 0,0.229712 -0.0348,0.5 -0.71875,0.5 h -7.25 v 1.59375 h 7.25 c 1.36146,0 2.3125,-1.024322 2.3125,-2.09375 0,-1.069428 -0.95103,-2.09375 -2.3125,-2.09375 z"
         style="color:#000000;font-style:normal;font-variant:normal;font-weight:normal;font-stretch:normal;font-size:medium;line-height:normal;font-family:'Bitstream Vera Sans';-inkscape-font-specification:'Bitstream Vera Sans';text-indent:0;text-align:start;text-decoration:none;text-decoration-line:none;letter-spacing:normal;word-spacing:normal;text-transform:none;writing-mode:lr-tb;direction:ltr;text-anchor:start;display:inline;overflow:visible;visibility:visible;fill:#ffffff;fill-opacity:1;stroke:none;stroke-width:1.60000002;marker:none;enable-background:accumulate"
         inkscape:connector-curvature="0" />
      <path
         id="path943"
         d="m 105.90625,44.09375 c -1.36147,0 -2.3125,1.024322 -2.3125,2.09375 0,1.069428 0.95104,2.09375 2.3125,2.09375 h 7.25 V 46.6875 h -7.25 c -0.68399,0 -0.71875,-0.270288 -0.71875,-0.5 0,-0.229712 0.0348,-0.5 0.71875,-0.5 h 7.25 v -1.59375 z"
         style="color:#000000;font-style:normal;font-variant:normal;font-weight:normal;font-stretch:normal;font-size:medium;line-height:normal;font-family:'Bitstream Vera Sans';-inkscape-font-specification:'Bitstream Vera Sans';text-indent:0;text-align:start;text-decoration:none;text-decoration-line:none;letter-spacing:normal;word-spacing:normal;text-transform:none;writing-mode:lr-tb;direction:ltr;text-anchor:start;display:inline;overflow:visible;visibility:visible;fill:#ffffff;fill-opacity:1;stroke:none;stroke-width:1.60000002;marker:none;enable-background:accumulate"
         inkscape:connector-curvature="0" />
    </g>
  </g>
  <g
     transform="matrix(1.2145604,0.38717788,-1.2660233,0.41975994,0.66339067,3.3169533)"
     style="font-style:normal;font-variant:normal;font-weight:bold;font-stretch:condensed;font-size:4.91176176px;font-family:'Arial Narrow';-inkscape-font-specification:'Arial Narrow Bold Condensed';writing-mode:lr-tb;fill:#ffffff"
     id="text989">
    <path
       d="m 28.166434,1.2039484 -1.02888,-3.5159389 h 0.630759 l 0.729089,2.60217851 0.705107,-2.60217851 h 0.618767 l -1.031279,3.5159389 h -0.623563"
       style="font-family:'Arial Narrow';-inkscape-font-specification:'Arial Narrow Bold Condensed';fill:#ffffff"
       id="path1015"
       inkscape:connector-curvature="0" />
    <path
       d="m 30.046718,-1.688427 v -0.6235635 h 0.554012 v 0.6235635 h -0.554012 m 0,2.8923754 v -2.5470171 h 0.554012 v 2.5470171 h -0.554012"
       style="font-family:'Arial Narrow';-inkscape-font-specification:'Arial Narrow Bold Condensed';fill:#ffffff"
       id="path1017"
       inkscape:connector-curvature="0" />
    <path
       d="m 31.699161,1.2039484 h -0.554012 v -2.5470171 h 0.513241 v 0.36214649 c 0.08794,-0.16947899 0.166282,-0.28140059 0.235035,-0.33576499 0.07035,-0.055958 0.151093,-0.083939 0.242231,-0.083941 0.12631,2.6e-6 0.247025,0.042373 0.362146,0.127111 l -0.172679,0.58758869 c -0.09114,-0.0735465 -0.177477,-0.11032077 -0.259019,-0.11032277 -0.07675,2e-6 -0.144699,0.0287818 -0.203857,0.0863396 -0.05756,0.0559627 -0.09913,0.15829096 -0.124713,0.30698511 -0.02558,0.14869737 -0.03837,0.42210571 -0.03837,0.82022584 V 1.2039486"
       style="font-family:'Arial Narrow';-inkscape-font-specification:'Arial Narrow Bold Condensed';fill:#ffffff"
       id="path1019"
       inkscape:connector-curvature="0" />
    <path
       d="m 33.687369,-1.3430687 v 0.53722394 H 33.310833 V 0.2206367 c -1e-6,0.22224519 0.0056,0.35095496 0.01679,0.38612971 0.02238,0.0639558 0.06795,0.0959333 0.136705,0.0959328 0.05116,5e-7 0.124711,-0.0215844 0.220645,-0.0647547 l 0.04797,0.52283399 c -0.127912,0.067153 -0.272611,0.1007294 -0.434097,0.1007295 -0.140702,-1e-7 -0.253423,-0.033576 -0.338163,-0.1007295 -0.08474,-0.067153 -0.141501,-0.16388505 -0.170281,-0.29019683 -0.02238,-0.0927347 -0.03358,-0.28140241 -0.03358,-0.5660038 v -1.1104227 H 32.5026 V -1.3430688 h 0.254222 v -0.5060458 l 0.554012,-0.3933246 v 0.8993704 h 0.376536"
       style="font-family:'Arial Narrow';-inkscape-font-specification:'Arial Narrow Bold Condensed';fill:#ffffff"
       id="path1021"
       inkscape:connector-curvature="0" />
    <path
       d="M 35.447737,1.2039484 V 0.82261531 C 35.37099,0.9601193 35.27026,1.0680436 35.145549,1.1463887 35.020835,1.2231349 34.890526,1.261508 34.754623,1.2615081 34.617118,1.261508 34.494004,1.2255332 34.385281,1.1535836 34.276557,1.0816341 34.195014,0.97930585 34.140652,0.84659852 34.087889,0.71389191 34.061507,0.52122697 34.061508,0.26860312 V -1.3430687 h 0.554012 v 1.17038073 c -10e-7,0.33416712 0.008,0.54681805 0.02398,0.63795343 0.01759,0.089538 0.05516,0.15908921 0.112721,0.20865394 0.05756,0.0495658 0.12711,0.0743484 0.208654,0.074348 0.09273,4.5e-7 0.178274,-0.0319771 0.256621,-0.0959329 0.07834,-0.0655535 0.129507,-0.14869521 0.153492,-0.2494254 0.02558,-0.10232747 0.03837,-0.32617056 0.03837,-0.67152993 V -1.3430687 h 0.551614 v 2.5470171 h -0.513241"
       style="font-family:'Arial Narrow';-inkscape-font-specification:'Arial Narrow Bold Condensed';fill:#ffffff"
       id="path1023"
       inkscape:connector-curvature="0" />
    <path
       d="m 36.953883,-0.56601265 -0.501249,-0.11032277 c 0.06076,-0.25741767 0.160687,-0.44208818 0.29979,-0.55401218 0.140701,-0.113518 0.34216,-0.1702782 0.604377,-0.1702808 0.233435,2.6e-6 0.41171,0.03278 0.534826,0.098331 0.123112,0.065557 0.21105,0.1550937 0.263815,0.2686119 0.05276,0.11192381 0.07914,0.31658034 0.07914,0.61397024 l -0.0048,0.78664935 c -2e-6,0.22064616 0.0088,0.38533072 0.02638,0.49405416 0.01759,0.10712525 0.05036,0.22144515 0.09833,0.34295995 H 37.807674 L 37.735724,0.92574292 C 37.6414,1.0376649 37.539872,1.1216061 37.431149,1.1775668 c -0.107126,0.055961 -0.221446,0.083941 -0.34296,0.083941 -0.203058,-1e-7 -0.369342,-0.067952 -0.498851,-0.2038573 -0.129509,-0.13750348 -0.194264,-0.3197757 -0.194264,-0.54681724 0,-0.14389843 0.02638,-0.26941045 0.07914,-0.37653642 0.05276,-0.10712384 0.12711,-0.19266388 0.223044,-0.25662037 0.09593,-0.0639538 0.249424,-0.12071405 0.460477,-0.1702808 0.25582,-0.059157 0.434095,-0.11431837 0.534826,-0.16548416 -10e-7,-0.14069971 -0.01039,-0.23263526 -0.03118,-0.27580694 -0.01919,-0.0447667 -0.05596,-0.0807415 -0.110323,-0.10792445 -0.05276,-0.0287778 -0.127912,-0.0431677 -0.225442,-0.0431698 -0.09913,2.09e-6 -0.177477,0.0223864 -0.235036,0.067153 -0.05596,0.0447706 -0.101529,0.1287118 -0.136704,0.25182372 m 0.738683,0.54681723 c -0.07035,0.02878105 -0.179875,0.06235751 -0.32857,0.10072949 -0.171081,0.04476974 -0.283003,0.09433499 -0.335765,0.14869591 -0.05276,0.0543629 -0.07914,0.12471355 -0.07914,0.21105227 0,0.0975324 0.02878,0.17987467 0.08634,0.24702708 0.05916,0.0655546 0.132706,0.0983316 0.220645,0.0983312 0.07834,4.2e-7 0.15589,-0.0263811 0.232638,-0.0791446 0.07675,-0.0543614 0.129508,-0.11831657 0.158289,-0.1918657 0.03038,-0.0735478 0.04557,-0.20705416 0.04557,-0.40051963 V -0.0191957"
       style="font-family:'Arial Narrow';-inkscape-font-specification:'Arial Narrow Bold Condensed';fill:#ffffff"
       id="path1025"
       inkscape:connector-curvature="0" />
    <path
       d="m 38.7862,1.2039484 v -3.5159389 h 0.554012 V 1.2039484 H 38.7862"
       style="font-family:'Arial Narrow';-inkscape-font-specification:'Arial Narrow Bold Condensed';fill:#ffffff"
       id="path1027"
       inkscape:connector-curvature="0" />
    <path
       d="m 39.911013,-2.3119905 h 1.153592 c 0.314978,3.6e-6 0.536423,0.028783 0.664335,0.08634 0.127909,0.057563 0.235833,0.1590919 0.323774,0.3045868 0.08794,0.1455011 0.131905,0.3101857 0.131907,0.4940542 -2e-6,0.1694838 -0.03758,0.3229762 -0.112721,0.46047762 -0.07515,0.1359069 -0.172681,0.23663629 -0.292595,0.30218847 0.171078,0.0607593 0.304584,0.16468642 0.40052,0.31178175 0.09753,0.14709844 0.146295,0.32617291 0.146297,0.53722394 -2e-6,0.25582169 -0.06156,0.47246982 -0.18467,0.64994504 -0.123117,0.17587708 -0.268615,0.28460088 -0.436495,0.32617168 -0.11672,0.02878 -0.38773,0.04317 -0.813031,0.04317 h -0.980913 v -3.5159389 m 0.580394,0.5851904 v 0.81303088 h 0.383731 c 0.230237,2.12e-6 0.372538,-0.003995 0.426901,-0.0119916 0.09913,-0.0159867 0.176675,-0.0575575 0.232637,-0.12471268 0.05596,-0.06875 0.08394,-0.1614846 0.08394,-0.2782053 -2e-6,-0.1039246 -0.02319,-0.1878658 -0.06955,-0.2518237 -0.04477,-0.065551 -0.09993,-0.1063227 -0.165484,-0.1223144 -0.06396,-0.015986 -0.249427,-0.02398 -0.55641,-0.023983 h -0.335765 m 0,1.39822125 v 0.9401419 h 0.539622 c 0.236633,5.9e-7 0.388526,-0.011991 0.455681,-0.0359748 0.06715,-0.0255814 0.123112,-0.0743473 0.167882,-0.14629759 0.04637,-0.0735477 0.06955,-0.16628266 0.06955,-0.27820526 -2e-6,-0.11511824 -0.02479,-0.20945212 -0.07435,-0.28300189 -0.04797,-0.075146 -0.112723,-0.12631012 -0.194264,-0.15349256 -0.07995,-0.0287783 -0.244631,-0.0431683 -0.494054,-0.0431698 h -0.470071"
       style="font-family:'Arial Narrow';-inkscape-font-specification:'Arial Narrow Bold Condensed';fill:#ffffff"
       id="path1029"
       inkscape:connector-curvature="0" />
    <path
       d="m 42.68587,-0.10553498 c 0,-0.24942384 0.04957,-0.47646469 0.148696,-0.68112321 0.09913,-0.20465455 0.22864,-0.35814691 0.388528,-0.46047771 0.159887,-0.1023258 0.339761,-0.1534899 0.539622,-0.1534925 0.335764,2.6e-6 0.599579,0.1319101 0.791446,0.395723 0.191864,0.26221837 0.287797,0.56920318 0.287799,0.92095531 -2e-6,0.26221747 -0.05037,0.49885159 -0.151094,0.70990307 -0.09913,0.21105263 -0.230241,0.3701411 -0.393325,0.47726592 C 44.136054,1.208745 43.958578,1.261508 43.765115,1.2615081 43.454931,1.261508 43.197511,1.143191 42.992855,0.90655655 42.788198,0.66992273 42.68587,0.33255922 42.68587,-0.10553498 m 0.566004,0.03597482 c -10e-7,0.25742082 0.05036,0.45248408 0.151094,0.58519036 0.100729,0.13110878 0.222244,0.19666283 0.364545,0.19666234 0.139101,4.9e-7 0.258218,-0.066353 0.35735,-0.19906066 0.09913,-0.13270628 0.148694,-0.32856898 0.148696,-0.58758869 -2e-6,-0.25262163 -0.05037,-0.44528657 -0.151094,-0.5779954 -0.100731,-0.13270511 -0.221447,-0.1990586 -0.362147,-0.19906066 -0.139104,2.06e-6 -0.25902,0.0663556 -0.359748,0.19906066 -0.09913,0.13270883 -0.148697,0.32697265 -0.148696,0.58279205"
       style="font-family:'Arial Narrow';-inkscape-font-specification:'Arial Narrow Bold Condensed';fill:#ffffff"
       id="path1031"
       inkscape:connector-curvature="0" />
    <path
       d="m 45.014641,1.2039484 0.753073,-1.3118817 -0.721895,-1.2351354 h 0.676327 l 0.369341,0.70030978 0.388528,-0.70030978 h 0.647547 l -0.707505,1.20635554 0.774658,1.34066156 H 46.51599 L 46.091487,0.41490071 45.659789,1.2039484 h -0.645148"
       style="font-family:'Arial Narrow';-inkscape-font-specification:'Arial Narrow Bold Condensed';fill:#ffffff"
       id="path1033"
       inkscape:connector-curvature="0" />
  </g>
</svg>
