<?xml version="1.0" encoding="UTF-8" standalone="no"?>
<!-- Created with Sodipodi ("http://www.sodipodi.com/") -->

<svg
   xmlns:dc="http://purl.org/dc/elements/1.1/"
   xmlns:cc="http://creativecommons.org/ns#"
   xmlns:rdf="http://www.w3.org/1999/02/22-rdf-syntax-ns#"
   xmlns:svg="http://www.w3.org/2000/svg"
   xmlns="http://www.w3.org/2000/svg"
   xmlns:xlink="http://www.w3.org/1999/xlink"
   xmlns:sodipodi="http://sodipodi.sourceforge.net/DTD/sodipodi-0.dtd"
   xmlns:inkscape="http://www.inkscape.org/namespaces/inkscape"
   id="svg604"
   sodipodi:version="0.32"
   width="72pt"
   height="72pt"
   sodipodi:docname="libreoffice-draw.svg"
   inkscape:version="0.92.2pre0 (973e216, 2017-07-25)"
   inkscape:output_extension="org.inkscape.output.svg.inkscape"
   version="1.1">
  <metadata
     id="metadata108">
    <rdf:RDF>
      <cc:Work
         rdf:about="">
        <dc:format>image/svg+xml</dc:format>
        <dc:type
           rdf:resource="http://purl.org/dc/dcmitype/StillImage" />
        <dc:title />
      </cc:Work>
    </rdf:RDF>
  </metadata>
  <defs
     id="defs606">
    <linearGradient
       id="linearGradient4132">
      <stop
         id="stop4134"
         offset="0.000000"
         style="stop-color:#a88300;stop-opacity:0.38378379" />
      <stop
         id="stop4136"
         offset="1.000000"
         style="stop-color:#ffffff;stop-opacity:0;" />
    </linearGradient>
    <linearGradient
       id="linearGradient612">
      <stop
         style="stop-color:#7fa8e3;stop-opacity:0.741176;"
         offset="0.000000"
         id="stop613" />
      <stop
         style="stop-color:#ffffff;stop-opacity:0;"
         offset="1.000000"
         id="stop614" />
    </linearGradient>
    <linearGradient
       xlink:href="#linearGradient612"
       id="linearGradient615"
       x1="50.6438866"
       y1="5.36792946"
       x2="35.7520943"
       y2="68.0443573"
       gradientUnits="userSpaceOnUse"
       spreadMethod="pad"
       gradientTransform="matrix(0.84696761,0,0,0.84696761,6.0094497,8.1124875)" />
    <linearGradient
       inkscape:collect="always"
       xlink:href="#linearGradient612"
       id="linearGradient2352"
       gradientUnits="userSpaceOnUse"
       spreadMethod="pad"
       x1="50.6438866"
       y1="5.36792946"
       x2="35.7520943"
       y2="68.0443573" />
    <linearGradient
       inkscape:collect="always"
       xlink:href="#linearGradient4132"
       id="linearGradient2367"
       gradientUnits="userSpaceOnUse"
       spreadMethod="pad"
       x1="50.6438866"
       y1="5.36792946"
       x2="35.7520943"
       y2="68.0443573"
       gradientTransform="matrix(0.8469676,0,0,0.8469676,-0.5940483,0.2390865)" />
    <clipPath
       clipPathUnits="userSpaceOnUse"
       id="clipPath4203">
      <path
         inkscape:connector-curvature="0"
         id="path4205"
         d="m 75.889831,42.521186 -18.495763,-42.13983 -57.01271207,0 0,89.04661 75.12711907,0 z"
         style="color:#000000;fill:none;stroke:#000000;stroke-width:0.5;stroke-linecap:round;stroke-linejoin:miter;stroke-miterlimit:4;stroke-opacity:1;stroke-dasharray:none;stroke-dashoffset:0;marker:none;visibility:visible;display:inline;overflow:visible;enable-background:accumulate" />
    </clipPath>
  </defs>
  <sodipodi:namedview
     id="base"
     inkscape:zoom="6.395388"
     inkscape:cx="41.774739"
     inkscape:cy="47.438496"
     inkscape:window-width="795"
     inkscape:window-height="623"
     inkscape:window-x="121"
     inkscape:window-y="74"
     inkscape:current-layer="svg604"
     showgrid="false"
     inkscape:window-maximized="0" />
  <path
     inkscape:connector-curvature="0"
     style="fill:#000000;fill-opacity:0.30147161;fill-rule:evenodd;stroke:none"
     d="m 14.47588,78.82306 c -2.4243,-1.10199 -5.7300972,-4.62818 -3.96699,-9.47678 0.8815,-5.28924 17.70293,-55.253305 21.22922,-57.457185 2.20378,-1.9834803 5.39954,-2.7548703 9.91751,-1.54272 3.74662,0.88157 37.46609,9.6972 39.44956,11.46024 1.98356,1.76315 3.52629,3.19566 1.98356,7.05248 -1.10189,1.98346 -15.16856,49.743545 -15.38888,52.608685 -0.88157,3.08545 -3.41598,6.83206 -7.60342,6.61164 C 55.90909,87.859 17.56133,79.48421 14.47588,78.82306 Z"
     id="path794"
     sodipodi:nodetypes="ccccccccc" />
  <path
     sodipodi:nodetypes="ccccccccc"
     id="path609"
     d="M 11.919943,74.733554 C 9.4956445,73.631563 6.1898431,70.105374 7.9529578,65.256776 8.8344603,59.967541 24.702493,13.245006 28.228782,11.041125 c 2.203781,-1.9834824 5.399543,-2.7548657 9.917514,-1.5427162 3.746608,0.8815622 37.466076,9.6971862 39.449539,11.4602302 1.983562,1.763145 3.526289,3.195663 1.983562,7.052479 -1.10189,1.983463 -14.215166,46.502018 -14.435485,49.367153 -0.881572,3.085453 -3.41598,6.83206 -7.603424,6.611642 -4.187344,-0.220418 -42.535091,-8.595205 -45.620545,-9.256359 z"
     style="fill:#a88300;fill-opacity:1;fill-rule:evenodd;stroke:none;stroke-width:0.99736661"
     inkscape:connector-curvature="0" />
  <path
     sodipodi:nodetypes="cccccccs"
     id="path608"
     d="m 16.988959,70.986946 c -2.534408,-0.661154 -6.171006,-1.322408 -4.848598,-5.289334 2.424299,-9.697096 14.766112,-46.942853 20.055347,-51.571033 1.212199,-1.101991 5.289334,-1.542727 13.002967,0.881572 8.815624,2.644617 26.667089,8.595106 28.430234,9.476678 1.763045,0.881572 2.424299,0.881572 1.10189,4.848598 -1.983463,3.967025 -10.798986,37.906912 -13.002967,43.636982 -1.542627,4.077235 -1.873254,5.950488 -4.517971,5.950488"
     style="fill:#ffffff;fill-opacity:1;fill-rule:evenodd;stroke:none;stroke-width:0.99736661"
     inkscape:connector-curvature="0" />
  <path
     id="path636"
     d="m 30.359768,19.758292 c 0,0 2.646774,-5.29359 9.263709,-3.705526 6.616934,1.588107 32.555317,8.469719 32.29064,10.587138 -0.264678,2.117419 -5.02887,14.557256 -5.293548,15.615965 -0.264677,1.05871 -24.614996,0.529355 -33.878704,6.08758 -9.263708,5.558225 -16.14532,10.322418 -16.14532,10.322418 0,0 9.528385,-29.643867 13.763223,-38.907575 z"
     style="fill:url(#linearGradient615);fill-opacity:1;fill-rule:evenodd;stroke:none;stroke-width:0.84696764"
     inkscape:connector-curvature="0" />
  <path
     id="path671"
     d="M 33.615301,22.731056 69.93459,32.382289"
     style="fill:none;stroke:#42667e;stroke-width:0.89457706pt;stroke-linecap:butt;stroke-linejoin:miter;stroke-opacity:1"
     inkscape:connector-curvature="0" />
  <path
     id="path672"
     d="m 30.989388,29.132378 35.98356,9.801608"
     style="fill:none;stroke:#42667e;stroke-width:0.89457706pt;stroke-linecap:butt;stroke-linejoin:miter;stroke-opacity:1"
     inkscape:connector-curvature="0" />
  <path
     id="path673"
     d="m 27.773741,37.207963 36.31929,9.651234"
     style="fill:none;stroke:#42667e;stroke-width:0.89457706pt;stroke-linecap:butt;stroke-linejoin:miter;stroke-opacity:1"
     inkscape:connector-curvature="0" />
  <path
     id="path675"
     d="m 22.440142,52.446814 36.319289,9.651234"
     style="fill:none;stroke:#42667e;stroke-width:0.89457706pt;stroke-linecap:butt;stroke-linejoin:miter;stroke-opacity:1"
     inkscape:connector-curvature="0" />
  <path
     id="path676"
     d="m 19.814477,58.848228 35.98356,9.801608"
     style="fill:none;stroke:#42667e;stroke-width:0.89457706pt;stroke-linecap:butt;stroke-linejoin:miter;stroke-opacity:1"
     inkscape:connector-curvature="0" />
  <path
     id="path674"
     d="m 25.147948,43.609334 35.98356,9.801608"
     style="fill:none;stroke:#42667e;stroke-width:0.89457706pt;stroke-linecap:butt;stroke-linejoin:miter;stroke-opacity:1"
     inkscape:connector-curvature="0" />
  <path
     sodipodi:nodetypes="csc"
     id="path699"
     d="m 12.280914,47.875078 c -4.4870015,-2.920794 -3.3917261,-9.447807 1.777855,-9.619565 5.035181,-0.421167 9.312601,6.31786 6.349493,10.127506"
     style="fill:none;stroke:#414141;stroke-width:2.79555321;stroke-linecap:round;stroke-linejoin:round;stroke-dasharray:none;stroke-opacity:1"
     inkscape:connector-curvature="0" />
  <path
     sodipodi:nodetypes="csc"
     id="path701"
     d="m 15.582666,39.493708 c -4.487001,-2.920794 -3.391726,-9.447806 1.777856,-9.619565 5.03518,-0.421167 9.3126,6.317861 6.349493,10.127506"
     style="fill:none;stroke:#414141;stroke-width:2.79555321;stroke-linecap:round;stroke-linejoin:round;stroke-dasharray:none;stroke-opacity:1"
     inkscape:connector-curvature="0" />
  <path
     sodipodi:nodetypes="csc"
     id="path703"
     d="m 18.630435,31.112342 c -4.487001,-2.920794 -3.391726,-9.447806 1.777855,-9.619565 5.035181,-0.421167 9.312601,6.31786 6.349493,10.127506"
     style="fill:none;stroke:#414141;stroke-width:2.79555321;stroke-linecap:round;stroke-linejoin:round;stroke-dasharray:none;stroke-opacity:1"
     inkscape:connector-curvature="0" />
  <path
     sodipodi:nodetypes="csc"
     id="path704"
     d="m 17.868488,29.715442 c -3.217096,-1.523912 -2.629779,-8.558865 2.539802,-8.730624 5.035181,-0.421167 9.185571,5.68289 7.238434,10.127506"
     style="fill:none;stroke:#b9b9b9;stroke-width:0.67093277;stroke-linecap:round;stroke-linejoin:round;stroke-dasharray:none;stroke-opacity:1"
     inkscape:connector-curvature="0" />
  <path
     sodipodi:nodetypes="csc"
     id="path702"
     d="m 14.820719,38.09681 c -3.217096,-1.523912 -2.629779,-8.558865 2.539803,-8.730624 5.03518,-0.421167 9.18557,5.68289 7.238434,10.127506"
     style="fill:none;stroke:#b9b9b9;stroke-width:0.67093277;stroke-linecap:round;stroke-linejoin:round;stroke-dasharray:none;stroke-opacity:1"
     inkscape:connector-curvature="0" />
  <path
     sodipodi:nodetypes="csc"
     id="path700"
     d="m 11.518967,46.47818 c -3.2170957,-1.523912 -2.6297791,-8.558865 2.539802,-8.730624 5.035181,-0.421167 9.185571,5.68289 7.238434,10.127506"
     style="fill:none;stroke:#b9b9b9;stroke-width:0.67093277;stroke-linecap:round;stroke-linejoin:round;stroke-dasharray:none;stroke-opacity:1"
     inkscape:connector-curvature="0" />
  <path
     sodipodi:nodetypes="ccccccccc"
     id="path630"
     d="M 5.3164458,66.860154 C 2.8921468,65.758164 -0.41365476,62.231974 1.34946,57.383376 2.2309625,52.094142 18.098995,5.3716056 21.625285,3.1677247 c 2.203781,-1.983483 5.399543,-2.75486623 9.917514,-1.5427167 3.746608,0.8815623 37.466076,9.697186 39.449539,11.460231 1.983563,1.763145 3.52629,3.195662 1.983563,7.052479 -1.101891,1.983463 -14.215167,46.502018 -14.435485,49.367153 -0.881573,3.085453 -3.415981,6.832061 -7.603425,6.611643 C 46.749647,75.896096 8.4018991,67.521308 5.3164458,66.860154 Z"
     style="fill:#a88300;fill-opacity:1;fill-rule:evenodd;stroke:none"
     inkscape:connector-curvature="0" />
  <path
     sodipodi:nodetypes="cccccccs"
     id="path631"
     d="M 10.385462,63.113547 C 7.8510535,62.452392 4.2144554,61.791138 5.5368638,57.824212 7.9611628,48.127116 20.302976,10.881358 25.592211,6.253178 26.80441,5.1511876 30.881545,4.7104513 38.595178,7.1347503 c 8.815624,2.6446173 26.66709,8.5951057 28.430234,9.4766787 1.763045,0.881572 2.424299,0.881572 1.101891,4.848598 -1.983463,3.967025 -10.798987,37.906912 -13.002968,43.636982 -1.542627,4.077235 -1.873254,5.950489 -4.517971,5.950489"
     style="fill:#ffffff;fill-opacity:1;fill-rule:evenodd;stroke:none"
     inkscape:connector-curvature="0" />
  <path
     id="path632"
     d="m 23.75627,11.884891 c 0,0 2.646774,-5.2935898 9.263708,-3.7055256 6.616935,1.5881066 32.555317,8.4697186 32.29064,10.5871376 -0.264677,2.117419 -5.02887,14.557255 -5.293547,15.615965 -0.264678,1.058709 -24.614996,0.529355 -33.878704,6.087579 -9.263709,5.558225 -16.1453203,10.322418 -16.1453203,10.322418 0,0 9.5283853,-29.643866 13.7632233,-38.907574 z"
     style="fill:url(#linearGradient2367);fill-opacity:1;fill-rule:evenodd;stroke:none"
     inkscape:connector-curvature="0" />
  <path
     sodipodi:nodetypes="csc"
     id="path640"
     d="M 5.677416,40.001677 C 1.1904145,37.080883 2.2856899,30.55387 7.4552715,30.382112 c 5.0351805,-0.421167 9.3126005,6.31786 6.3494925,10.127506"
     style="fill:none;stroke:#414141;stroke-width:2.79555321;stroke-linecap:round;stroke-linejoin:round;stroke-dasharray:none;stroke-opacity:1"
     inkscape:connector-curvature="0" />
  <path
     sodipodi:nodetypes="csc"
     id="path641"
     d="m 8.9791682,31.620307 c -4.4870015,-2.920794 -3.3917261,-9.447806 1.7778558,-9.619565 5.03518,-0.421167 9.3126,6.317861 6.349493,10.127506"
     style="fill:none;stroke:#414141;stroke-width:2.79555321;stroke-linecap:round;stroke-linejoin:round;stroke-dasharray:none;stroke-opacity:1"
     inkscape:connector-curvature="0" />
  <path
     sodipodi:nodetypes="csc"
     id="path642"
     d="m 12.026937,23.238941 c -4.487001,-2.920794 -3.3917256,-9.447807 1.777856,-9.619565 5.03518,-0.421167 9.3126,6.31786 6.349493,10.127506"
     style="fill:none;stroke:#414141;stroke-width:2.79555321;stroke-linecap:round;stroke-linejoin:round;stroke-dasharray:none;stroke-opacity:1"
     inkscape:connector-curvature="0" />
  <path
     sodipodi:nodetypes="csc"
     id="path643"
     d="m 11.26499,21.842041 c -3.2170952,-1.523912 -2.6297786,-8.558866 2.539803,-8.730624 5.03518,-0.421167 9.18557,5.68289 7.238434,10.127506"
     style="fill:none;stroke:#b9b9b9;stroke-width:0.67093277;stroke-linecap:round;stroke-linejoin:round;stroke-dasharray:none;stroke-opacity:1"
     inkscape:connector-curvature="0" />
  <path
     sodipodi:nodetypes="csc"
     id="path644"
     d="m 8.2172212,30.223409 c -3.2170957,-1.523912 -2.6297791,-8.558865 2.5398028,-8.730624 5.03518,-0.421167 9.18557,5.68289 7.238434,10.127506"
     style="fill:none;stroke:#b9b9b9;stroke-width:0.67093277;stroke-linecap:round;stroke-linejoin:round;stroke-dasharray:none;stroke-opacity:1"
     inkscape:connector-curvature="0" />
  <path
     sodipodi:nodetypes="csc"
     id="path645"
     d="M 4.915469,38.604779 C 1.6983733,37.080867 2.2856899,30.045914 7.4552715,29.874155 12.490452,29.452988 16.640842,35.557045 14.693705,40.001661"
     style="fill:none;stroke:#b9b9b9;stroke-width:0.67093277;stroke-linecap:round;stroke-linejoin:round;stroke-dasharray:none;stroke-opacity:1"
     inkscape:connector-curvature="0" />
  <g
     id="g2387"
     transform="translate(1.2509014,-1.8763522)">
    <path
       inkscape:connector-curvature="0"
       id="path2382"
       d="m 41.52198,24.680218 c 0,4.588459 -3.872542,8.308147 -8.649572,8.308147 -4.777031,0 -8.649581,-3.719688 -8.649581,-8.308147 0,-4.588467 3.87255,-8.308146 8.649581,-8.308146 4.77703,0 8.649572,3.719679 8.649572,8.308146 z"
       style="font-size:12px;fill:#ff101c;fill-opacity:1;fill-rule:evenodd;stroke:#030000;stroke-width:1.59840131;stroke-opacity:1" />
    <path
       inkscape:connector-curvature="0"
       id="path649"
       d="M 16.938976,41.637945 V 55.978027 H 34.010509 V 41.637945 Z"
       style="font-size:12px;fill:none;stroke:#593a28;stroke-width:1.59840131" />
    <path
       inkscape:connector-curvature="0"
       id="path646"
       d="m 41.06674,27.753089 8.649574,13.884848 -15.478184,7.51148"
       style="fill:none;stroke:#000000;stroke-width:0.79920065pt;stroke-linecap:butt;stroke-linejoin:miter;stroke-opacity:1" />
    <path
       inkscape:connector-curvature="0"
       id="path648"
       d="m 56.669016,47.224913 -6.521494,-2.211497 -5.518904,4.11851 0.08801,-6.885694 -5.622374,-3.976101 6.575878,-2.04409 2.04409,-6.575877 3.976106,5.622368 6.885689,-0.08801 -4.118512,5.518907 2.211508,6.521481 z"
       style="font-size:12px;fill:#ffc71c;fill-rule:evenodd;stroke:#000000;stroke-width:1.37922418;stroke-linecap:round;stroke-linejoin:bevel" />
  </g>
  <path
     style="color:#000000;display:inline;overflow:visible;visibility:visible;fill:#a88300;fill-opacity:1;stroke:none;stroke-width:0.5;marker:none;enable-background:accumulate"
     d="M 57.584746,11.059322 71.885593,43.855932 73.983051,37.944915 62.542373,12.012712 Z"
     id="path3283"
     inkscape:connector-curvature="0"
     sodipodi:nodetypes="ccccc" />
  <path
     style="color:#000000;fill:#ff2a2a;fill-opacity:1;stroke:none;stroke-width:0.5;marker:none;visibility:visible;display:inline;overflow:visible;enable-background:accumulate"
     d="m 63.90927,10.180828 12.53916,27.909744 c 0,0 5.258358,-15.370584 6.202165,-19.954793 0.280714,-1.363467 -0.869792,-3.425753 -3.718591,-4.266823 C 72.709381,12.03181 63.90927,10.180828 63.90927,10.180828 Z"
     id="path3327"
     inkscape:connector-curvature="0"
     sodipodi:nodetypes="ccssc" />
</svg>
