<?xml version="1.0" encoding="UTF-8" standalone="no"?>
<svg
   xmlns:dc="http://purl.org/dc/elements/1.1/"
   xmlns:cc="http://creativecommons.org/ns#"
   xmlns:rdf="http://www.w3.org/1999/02/22-rdf-syntax-ns#"
   xmlns:svg="http://www.w3.org/2000/svg"
   xmlns="http://www.w3.org/2000/svg"
   xmlns:sodipodi="http://sodipodi.sourceforge.net/DTD/sodipodi-0.dtd"
   xmlns:inkscape="http://www.inkscape.org/namespaces/inkscape"
   width="256px"
   height="256px"
   viewBox="0 0 256 256"
   version="1.1"
   id="svg35"
   sodipodi:docname="dde.svg"
   inkscape:version="0.92.1 r15371">
  <metadata
     id="metadata39">
    <rdf:RDF>
      <cc:Work
         rdf:about="">
        <dc:format>image/svg+xml</dc:format>
        <dc:type
           rdf:resource="http://purl.org/dc/dcmitype/StillImage" />
        <dc:title>ISO安装器-256px</dc:title>
      </cc:Work>
    </rdf:RDF>
  </metadata>
  <sodipodi:namedview
     pagecolor="#ffffff"
     bordercolor="#666666"
     borderopacity="1"
     objecttolerance="10"
     gridtolerance="10"
     guidetolerance="10"
     inkscape:pageopacity="0"
     inkscape:pageshadow="2"
     inkscape:window-width="1366"
     inkscape:window-height="740"
     id="namedview37"
     showgrid="false"
     inkscape:zoom="2.6074563"
     inkscape:cx="375.08495"
     inkscape:cy="72.559936"
     inkscape:window-x="0"
     inkscape:window-y="0"
     inkscape:window-maximized="1"
     inkscape:current-layer="svg35" />
  <!-- Generator: Sketch 39.1 (31720) - http://www.bohemiancoding.com/sketch -->
  <title
     id="title2">ISO安装器-256px</title>
  <desc
     id="desc4">Created with Sketch.</desc>
  <defs
     id="defs11">
    <linearGradient
       x1="49.9995456%"
       y1="0.694444444%"
       x2="49.999547%"
       y2="100%"
       id="linearGradient-1">
      <stop
         stop-color="#FFDD89"
         offset="0%"
         id="stop6" />
      <stop
         stop-color="#FFAF32"
         offset="100%"
         id="stop8" />
    </linearGradient>
  </defs>
  <path
     d="M 164.03127,5.0282262 C 96.149849,-14.823796 25.042455,24.09576 5.1823256,91.976856 -14.669783,159.84993 24.257981,230.96499 92.139412,250.81699 160.0048,270.66901 231.12823,231.74946 250.97233,163.87637 270.82444,95.987279 231.89669,24.880234 164.03127,5.0282262 Z"
     id="path11793"
     inkscape:connector-curvature="0"
     style="fill:#eff4f8;fill-rule:evenodd;stroke:none;stroke-width:1.45542467" />
  <path
     d="M 163.21414,7.8212735 C 96.875481,-11.579552 27.384161,26.455469 7.9754021,92.7938 -11.425525,159.12432 26.617501,228.62311 92.956182,248.02395 159.27919,267.42477 228.78616,229.38975 248.17927,163.05925 267.5802,96.713085 229.53716,27.222114 163.21414,7.8212735 Z"
     id="path15"
     inkscape:connector-curvature="0"
     style="fill:#ffffff;fill-rule:evenodd;stroke:none;stroke-width:1.45542467" />
  <path
     d="M 165.90925,23.722342 C 150.01247,17.923085 133.72852,16.358722 117.92654,17.828279 99.60414,19.274142 90.66022,24.94698 91.189588,23.919871 61.229015,34.617665 35.898439,57.625063 24.165475,89.892295 3.275239,147.35545 32.864461,210.90231 90.241466,231.82387 147.64217,252.74541 211.09504,223.11707 231.98526,165.65391 252.88338,108.19076 223.29416,44.6518 165.90925,23.722342 Z M 94.018147,221.4342 c -6.115375,-2.23595 -11.8278,-5.08028 -17.208374,-8.32755 26.736967,2.05422 61.627747,-4.10846 85.156887,-26.12824 0,0 44.85394,-35.83844 12.40456,-94.652645 0,0 5.23046,23.702675 -1.43799,43.202065 0,0 -6.3603,26.51537 -34.63004,34.21875 C 96.664983,181.09226 49.21952,151.94587 29.388019,137.82699 27.894738,123.31305 29.2221,108.31716 34.539465,93.68471 c 7.8852,-21.680036 22.70745,-38.595841 40.816527,-49.957308 -4.527273,31.674655 -0.948121,60.836838 4.195423,73.051618 6.905466,16.37854 18.907087,35.48288 42.317725,37.93216 23.41063,2.45718 36.32084,-19.45198 36.32084,-19.45198 12.00951,-18.25105 13.88995,-44.458313 13.70822,-45.090374 -0.18172,-0.63998 -3.19989,-2.370276 -3.19989,-2.370276 -8.08272,32.70968 -21.41168,43.63661 -21.41168,43.63661 -21.01664,20.28949 -35.90211,6.218 -35.90211,6.218 -15.999511,-17.18443 -4.7959,-45.114073 -4.7959,-45.114073 6.26549,-19.025342 24.52468,-46.868067 45.21736,-61.026468 3.44485,0.853301 6.91337,1.382653 10.3187,2.623097 12.52307,4.566716 23.48965,11.448386 32.76541,19.902337 -15.13039,5.522725 -39.56027,17.200238 -39.56027,17.200238 -38.72274,16.307437 -41.33796,40.974009 -41.33796,40.974009 -4.00581,25.42507 16.16541,14.66405 16.16541,14.66405 20.76381,-10.11313 30.96399,-41.629785 30.96399,-41.629785 -6.47882,-1.232541 -11.58285,0.734785 -11.58285,0.734785 -8.28814,20.4554 -25.19626,28.86985 -25.19626,28.86985 -6.65264,3.5238 -8.20123,-2.70211 -8.20123,-2.70211 -1.12194,-4.66152 4.81171,-5.4595 4.81171,-5.4595 9.21255,-3.57911 15.10668,-13.257702 16.44196,-17.21605 1.32736,-3.966251 3.80038,-4.274379 3.80038,-4.274379 12.62577,-4.029459 24.13751,-4.930149 24.13751,-4.930149 15.67557,-1.927826 39.67089,5.54642 39.67089,5.54642 5.38058,2.164843 10.53993,3.784527 15.12249,5.080277 8.79381,21.972371 10.18437,46.994481 1.46958,70.981571 -18.78855,51.71133 -75.91271,78.38472 -127.577293,59.55692 z"
     id="path11795"
     inkscape:connector-curvature="0"
     style="opacity:0.8;fill:#00b7ff;fill-rule:evenodd;stroke:none;stroke-width:1.45542467" />
</svg>
