<?xml version="1.0" encoding="UTF-8" standalone="no"?>
<!-- Created with Inkscape (http://www.inkscape.org/) -->

<svg
   xmlns:dc="http://purl.org/dc/elements/1.1/"
   xmlns:cc="http://creativecommons.org/ns#"
   xmlns:rdf="http://www.w3.org/1999/02/22-rdf-syntax-ns#"
   xmlns:svg="http://www.w3.org/2000/svg"
   xmlns="http://www.w3.org/2000/svg"
   xmlns:sodipodi="http://sodipodi.sourceforge.net/DTD/sodipodi-0.dtd"
   xmlns:inkscape="http://www.inkscape.org/namespaces/inkscape"
   width="22"
   height="22"
   viewBox="0 0 22 22"
   id="svg2"
   version="1.1"
   inkscape:version="0.92.1 r15371"
   sodipodi:docname="battery-unknown-symbolic.svg">
  <defs
     id="defs4" />
  <sodipodi:namedview
     id="base"
     pagecolor="#ffffff"
     bordercolor="#666666"
     borderopacity="1.0"
     inkscape:pageopacity="0.0"
     inkscape:pageshadow="2"
     inkscape:zoom="7.919596"
     inkscape:cx="0.25957377"
     inkscape:cy="1.8297971"
     inkscape:document-units="px"
     inkscape:current-layer="layer1"
     showgrid="false"
     units="px"
     inkscape:window-width="1366"
     inkscape:window-height="740"
     inkscape:window-x="0"
     inkscape:window-y="0"
     inkscape:window-maximized="1" />
  <metadata
     id="metadata7">
    <rdf:RDF>
      <cc:Work
         rdf:about="">
        <dc:format>image/svg+xml</dc:format>
        <dc:type
           rdf:resource="http://purl.org/dc/dcmitype/StillImage" />
        <dc:title />
      </cc:Work>
    </rdf:RDF>
  </metadata>
  <g
     inkscape:label="Layer 1"
     inkscape:groupmode="layer"
     id="layer1"
     transform="translate(0,-1030.3622)">
    <g
       transform="matrix(0.74074072,0,0,0.74074072,-36.851851,975.76961)"
       id="22-22-battery-charging">
      <rect
         ry="0"
         y="73.700005"
         x="49.75"
         height="29.700001"
         width="29.700001"
         id="rect4335-4-4"
         style="fill:#f7f7f7;fill-opacity:0;stroke:none" />
      <g
         transform="translate(-35.020622,-6.829416)"
         id="g5017">
        <g
           transform="matrix(0,1,-1,0,128.78859,56.65671)"
           id="g4439"
           style="fill:#ffffff">
          <g
             id="g4443"
             transform="translate(27,24.3)"
             style="fill:#ffffff" />
        </g>
        <path
           style="fill:#f7f7f7;fill-opacity:1;stroke:none"
           d="m 111.77061,92.123534 -1.42941,0 0,-4.288235 -22.87059,0 0,14.294121 22.87059,0 0,-4.288238 1.42941,0 z m -2.85603,5.717648 0,2.858828 -20.01456,0 0,-11.435299 20.01177,0 0,2.858823 0,5.717647 z"
           id="rect4251-6-3"
           inkscape:connector-curvature="0"
           sodipodi:nodetypes="ccccccccccccccccc" />
      </g>
    </g>
    <path
       inkscape:connector-curvature="0"
       style="fill:#ffffff"
       d="m 8.7277942,1038.0027 h 2.9999998 v 1 H 8.7277942 Z m -1,1 h 1 v 1 h -1 z m 3.9999998,0 h 1 v 1 h -1 z m -1,1 h 1 v 1 h -1 z m -0.9999998,1 h 0.9999998 v 1 H 9.7277942 Z m 0,2 h 0.9999998 v 1 H 9.7277942 Z"
       id="Combined-Shape" />
  </g>
</svg>
