<?xml version="1.0" encoding="UTF-8" standalone="no"?>
<!-- Created with Inkscape (http://www.inkscape.org/) -->

<svg
   xmlns:dc="http://purl.org/dc/elements/1.1/"
   xmlns:cc="http://creativecommons.org/ns#"
   xmlns:rdf="http://www.w3.org/1999/02/22-rdf-syntax-ns#"
   xmlns:svg="http://www.w3.org/2000/svg"
   xmlns="http://www.w3.org/2000/svg"
   xmlns:sodipodi="http://sodipodi.sourceforge.net/DTD/sodipodi-0.dtd"
   xmlns:inkscape="http://www.inkscape.org/namespaces/inkscape"
   id="svg2"
   version="1.1"
   inkscape:version="0.92.1 r15371"
   width="512"
   height="512"
   sodipodi:docname="apps.org.drichard.mindmaps.svg"
   viewBox="0 0 512 512">
  <metadata
     id="metadata8">
    <rdf:RDF>
      <cc:Work
         rdf:about="">
        <dc:format>image/svg+xml</dc:format>
        <dc:type
           rdf:resource="http://purl.org/dc/dcmitype/StillImage" />
        <dc:title></dc:title>
      </cc:Work>
    </rdf:RDF>
  </metadata>
  <defs
     id="defs6">
    <inkscape:perspective
       sodipodi:type="inkscape:persp3d"
       inkscape:vp_x="0 : 256 : 1"
       inkscape:vp_y="0 : 1000 : 0"
       inkscape:vp_z="512 : 256 : 1"
       inkscape:persp3d-origin="256 : 170.66667 : 1"
       id="perspective4141" />
  </defs>
  <sodipodi:namedview
     pagecolor="#ffffff"
     bordercolor="#666666"
     borderopacity="1"
     objecttolerance="10"
     gridtolerance="10"
     guidetolerance="10"
     inkscape:pageopacity="0"
     inkscape:pageshadow="2"
     inkscape:window-width="1366"
     inkscape:window-height="740"
     id="namedview4"
     showgrid="false"
     inkscape:zoom="0.75390625"
     inkscape:cx="82.237017"
     inkscape:cy="245.37386"
     inkscape:window-x="0"
     inkscape:window-y="0"
     inkscape:window-maximized="1"
     inkscape:current-layer="svg2"
     showguides="false"
     inkscape:guide-bbox="true"
     inkscape:document-units="px" />
  <rect
     style="fill:#20709e;fill-opacity:1;fill-rule:evenodd;stroke:none;stroke-width:3.99781251"
     id="rect2985"
     width="450"
     height="449.9866"
     x="31"
     y="31.013393"
     ry="50.526115" />
  <path
     inkscape:connector-curvature="0"
     style="fill:#ffffff;stroke-width:11.41606903"
     d="M 416.76496,215.88754 V 366.61379 H 359.68461 V 234.38157 c 0,-15.34319 -9.71507,-39.48818 -31.80517,-39.48818 -25.12676,0 -36.69124,27.14741 -36.69124,41.1321 v 130.5883 H 234.10785 V 235.61451 c 0,-13.97327 -7.23779,-39.88775 -33.1066,-39.88775 -25.86881,0 -35.38981,25.10394 -35.38981,38.24384 v 132.64319 h -57.08035 v -216.9052 h 57.08035 v 30.8348 c 0,0 17.10127,-37.81002 61.11022,-37.81002 15.06921,0 26.70218,2.73986 35.45831,8.21957 8.77895,5.47971 16.97569,14.38425 24.92128,26.7136 6.84964,-9.86348 12.9344,-16.98711 18.42553,-21.37088 11.222,-9.04153 24.47605,-13.56229 39.83067,-13.56229 56.88627,0.0114 71.40751,49.87681 71.40751,73.15417 z"
     id="path6" />
</svg>
