<?xml version="1.0" encoding="UTF-8" standalone="no"?>
<!-- Generator: Adobe Illustrator 19.0.0, SVG Export Plug-In . SVG Version: 6.00 Build 0)  -->

<svg
   xmlns:dc="http://purl.org/dc/elements/1.1/"
   xmlns:cc="http://creativecommons.org/ns#"
   xmlns:rdf="http://www.w3.org/1999/02/22-rdf-syntax-ns#"
   xmlns:svg="http://www.w3.org/2000/svg"
   xmlns="http://www.w3.org/2000/svg"
   xmlns:sodipodi="http://sodipodi.sourceforge.net/DTD/sodipodi-0.dtd"
   xmlns:inkscape="http://www.inkscape.org/namespaces/inkscape"
   version="1.1"
   id="Layer_1"
   x="0px"
   y="0px"
   viewBox="0 0 500 500"
   xml:space="preserve"
   inkscape:version="0.92.2pre0 (973e216, 2017-07-25)"
   width="100%"
   height="100%"
   sodipodi:docname="deepin-screen-recorder.svg"><metadata
     id="metadata57"><rdf:RDF><cc:Work
         rdf:about=""><dc:format>image/svg+xml</dc:format><dc:type
           rdf:resource="http://purl.org/dc/dcmitype/StillImage" /></cc:Work></rdf:RDF></metadata><defs
     id="defs55" /><sodipodi:namedview
     pagecolor="#ffffff"
     bordercolor="#666666"
     borderopacity="1"
     objecttolerance="10"
     gridtolerance="10"
     guidetolerance="10"
     inkscape:pageopacity="0"
     inkscape:pageshadow="2"
     inkscape:window-width="1366"
     inkscape:window-height="697"
     id="namedview53"
     showgrid="false"
     inkscape:zoom="0.52559509"
     inkscape:cx="422.8039"
     inkscape:cy="305.09379"
     inkscape:window-x="0"
     inkscape:window-y="0"
     inkscape:window-maximized="1"
     inkscape:current-layer="Layer_1" /><polygon
     style="fill:#cccccc"
     points="171.063,352.014 289.402,352.014 309.125,441.463 151.34,441.463 "
     id="polygon3"
     transform="matrix(0.90000001,0,0,0.90000001,42.204682,65.365406)" /><rect
     x="160.67709"
     y="453.5336"
     style="fill:#d8d9dd"
     width="177.47369"
     height="16.4664"
     id="rect5" /><rect
     x="160.67709"
     y="453.5336"
     style="opacity:0.4;fill:#394050;enable-background:new"
     width="177.47369"
     height="16.4664"
     id="rect11" /><g
     id="g23"
     transform="translate(0,39.767)" /><g
     id="g25"
     transform="translate(0,39.767)" /><g
     id="g27"
     transform="translate(0,39.767)" /><g
     id="g29"
     transform="translate(0,39.767)" /><g
     id="g31"
     transform="translate(0,39.767)" /><g
     id="g33"
     transform="translate(0,39.767)" /><g
     id="g35"
     transform="translate(0,39.767)" /><g
     id="g37"
     transform="translate(0,39.767)" /><g
     id="g39"
     transform="translate(0,39.767)" /><g
     id="g41"
     transform="translate(0,39.767)" /><g
     id="g43"
     transform="translate(0,39.767)" /><g
     id="g45"
     transform="translate(0,39.767)" /><g
     id="g47"
     transform="translate(0,39.767)" /><g
     id="g49"
     transform="translate(0,39.767)" /><g
     id="g51"
     transform="translate(0,39.767)" /><g
     id="g3101"
     transform="matrix(0.90000001,0,0,0.90000001,23.588761,29.575105)"><path
       id="path9"
       d="m 479.22456,103.36972 c 0.013,0 0.24565,0.15109 0.24565,0.16413 V 381.79146 H 23.664782 V 103.53385 c 0,-0.013 0.161957,-0.16413 0.175,-0.16413 H 479.22456 l 0,0 z"
       style="fill:#ff6600;fill-opacity:1"
       inkscape:connector-curvature="0" /><path
       sodipodi:nodetypes="cccczzc"
       inkscape:connector-curvature="0"
       id="path3787"
       d="m 23.020921,252.06488 -0.729455,111.16364 458.586214,-0.28073 -1.21237,-91.98143 c 0,0 -64.75371,17.72766 -120.75773,12.24132 C 302.90357,277.72133 217.52129,222.72123 157.9238,220.64685 98.326385,218.57249 23.020921,252.06488 23.020921,252.06488 z"
       style="fill:#803300;stroke:#000000;stroke-width:0.55641943px;stroke-linecap:butt;stroke-linejoin:miter;stroke-opacity:1" /><path
       id="path7"
       d="m 479.22456,103.36972 c 0.013,0 0.24565,0.15109 0.24565,0.16413 V 381.79146 H 23.664782 V 103.53385 c 0,-0.013 0.161957,-0.16413 0.175,-0.16413 H 479.22456 l 0,0 z M 501.56804,242.5795 V 103.49472 c 0,-11.790219 -10.51304,-22.221743 -22.30435,-22.221743 l 0,0 H 23.800652 c -11.790218,0 -22.2326088,10.431524 -22.2326088,22.221743 v 139.08478 0.003 139.08587 c 0,11.79131 10.4423908,22.22174 22.2326088,22.22174 H 479.26369 l 0,0 c 11.79131,0 22.30435,-10.43152 22.30435,-22.22174 v -139.08587 -0.003 z"
       style="fill:#394050"
       inkscape:connector-curvature="0" /><rect
       y="363.00534"
       x="18.444229"
       height="20"
       width="467.14285"
       id="rect3062"
       style="fill:#394050;fill-opacity:0.58823529;stroke:none" /><path
       inkscape:connector-curvature="0"
       id="path2996"
       d="m 39.445597,117.45077 17.854008,0.0134 0.29996,0.1343 0.14774,0.28653 0,15.02011 1.6878,1.7281 0.0134,7.78091 -0.42531,0.291 -19.586585,0.14326 z"
       style="fill:#ffb800;stroke:none" /><path
       sodipodi:nodetypes="cccccccc"
       inkscape:connector-curvature="0"
       id="path3766"
       d="m 39.445611,117.45144 6.812524,5.58424 0.0253,15.5751 -0.53183,0.81041 0.0127,7.86352 -0.43054,0.24059 -5.898632,-4.68351 z"
       style="fill:#faec6d;stroke:none" /><path
       inkscape:connector-curvature="0"
       id="path3768"
       d="m 40.099228,142.4813 0.03581,-23.42331"
       style="fill:none;stroke:#ffb800;stroke-width:0.14182203px;stroke-linecap:round;stroke-linejoin:miter;stroke-opacity:1" /><path
       inkscape:connector-curvature="0"
       id="path3768-3"
       d="m 40.573675,142.82216 0.03581,-23.42332"
       style="fill:none;stroke:#ffb800;stroke-width:0.14182203px;stroke-linecap:round;stroke-linejoin:miter;stroke-opacity:1" /><path
       style="fill:#cccccc;fill-opacity:0.58823529;stroke-width:0.78468841"
       d="m 47.669985,170.19375 c -3.72385,-0.18566 -7.164975,-1.217 -8.650968,-2.59277 -0.377103,-0.3491 -0.677719,-0.84714 -0.676672,-1.12096 0.0017,-0.46347 0.571684,-1.15605 1.371203,-1.66633 3.421691,-2.18382 10.502457,-2.76536 15.693047,-1.28886 1.79294,0.51001 3.14767,1.20492 3.89603,1.99849 0.50597,0.53651 0.60138,0.87699 0.38149,1.36133 -0.51665,1.13798 -2.81728,2.29661 -5.71203,2.87668 -1.16517,0.23349 -2.27444,0.36607 -3.64877,0.43603 -1.20297,0.0613 -1.35537,0.0611 -2.65333,-0.004 z"
       id="path3340"
       inkscape:connector-curvature="0" /><path
       style="fill:#cccccc;fill-opacity:0.58823529;stroke-width:0.78468841"
       d="m 48.044815,189.43183 c -2.85713,-0.14245 -5.497349,-0.93372 -6.637483,-1.98929 -0.289336,-0.26789 -0.519985,-0.64998 -0.51918,-0.86007 0.0014,-0.35559 0.438627,-0.887 1.052061,-1.27849 2.625302,-1.67557 8.058052,-2.12173 12.040552,-0.98892 1.37564,0.39133 2.41507,0.9245 2.98925,1.53338 0.38821,0.41163 0.46141,0.67287 0.2927,1.04448 -0.39641,0.87313 -2.16157,1.76206 -4.38258,2.20715 -0.89398,0.17913 -1.74508,0.28082 -2.79953,0.33455 -0.92298,0.047 -1.03992,0.0469 -2.03579,-0.004 z"
       id="path3340-3"
       inkscape:connector-curvature="0" /><path
       style="fill:#969696;fill-opacity:0.58823529;stroke-width:0.78468841"
       d="m 47.854715,189.43947 c -3.06002,-0.20979 -5.551293,-1.04546 -6.627705,-2.22321 -0.383271,-0.41936 -0.487005,-0.64393 -0.600585,-1.30026 -0.313457,-1.81133 -3.393373,-18.38205 -3.473911,-18.69057 -0.551437,-2.11221 1.6986,-4.02531 5.966928,-5.07338 0.977503,-0.24002 2.462803,-0.47771 3.641443,-0.58274 1.05824,-0.0943 3.51443,-0.0943 4.57266,0 5.16358,0.46013 9.02892,2.24 9.61137,4.42577 0.11247,0.42206 0.10288,0.74467 -0.0395,1.32827 -0.15398,0.63129 -3.47502,18.63202 -3.47502,18.83533 0,0.0825 -0.0841,0.31835 -0.18692,0.52411 -0.52174,1.04405 -2.2711,1.96932 -4.63369,2.45078 -1.31499,0.26798 -3.37511,0.40052 -4.75511,0.3059 z"
       id="path3348"
       inkscape:connector-curvature="0" /><g
       style="fill:#006680;stroke:#006680;stroke-opacity:1"
       id="g20"
       transform="matrix(0.29299353,0,0,0.29299353,30.440431,154.99569)"><linearGradient
         y2="89.454102"
         x2="81.225601"
         y1="89.454102"
         x1="64.779297"
         gradientUnits="userSpaceOnUse"
         id="SVGID_2_"><stop
           id="stop23"
           style="stop-color:#80C11B"
           offset="0" /><stop
           id="stop25"
           style="stop-color:#80E21B"
           offset="1" /></linearGradient><path
         style="fill:#006680;stroke:#006680;stroke-opacity:1"
         id="path27"
         d="m 68.818,87.321 -4.039,7.105 4.105,7.037 -0.016,-3.096 3.416,-0.063 c 2.135,-0.059 3.303,-1.699 3.303,-1.699 l 5.166,-8.844 c 1.104,-2.484 -0.076,-4.172 -0.076,-4.172 l -3.594,-6.146 -7.104,4.107 4.563,7.889 c 0.168,0.416 -0.1,0.754 -0.596,0.746 l -5.107,0.035 -0.021,-2.899 0,0 z"
         inkscape:connector-curvature="0" /><linearGradient
         y2="88.808601"
         x2="62.918499"
         y1="88.808601"
         x1="46.181198"
         gradientUnits="userSpaceOnUse"
         id="SVGID_3_"><stop
           id="stop30"
           style="stop-color:#80C11B"
           offset="0" /><stop
           id="stop32"
           style="stop-color:#80E21B"
           offset="1" /></linearGradient><path
         style="fill:#006680;stroke:#006680;stroke-opacity:1"
         id="path34"
         d="m 58.476,86.259 -4.15,-7.043 -8.145,0.055 2.689,1.529 -1.651,2.99 c -1.013,1.881 -0.17,3.711 -0.17,3.711 l 5.096,8.885 c 1.604,2.197 3.656,2.011 3.656,2.011 l 7.118,-0.05 -0.024,-8.207 -9.112,0.027 C 53.34,90.104 53.179,89.706 53.432,89.278 l 2.515,-4.447 2.529,1.428 0,0 z"
         inkscape:connector-curvature="0" /><linearGradient
         y2="73.499001"
         x2="76.783203"
         y1="73.499001"
         x1="51.8843"
         gradientUnits="userSpaceOnUse"
         id="SVGID_4_"><stop
           id="stop37"
           style="stop-color:#80C11B"
           offset="0" /><stop
           id="stop39"
           style="stop-color:#80E21B"
           offset="1" /></linearGradient><path
         style="fill:#006680;stroke:#006680;stroke-opacity:1"
         id="path41"
         d="m 64.572,77.841 8.174,-0.063 4.037,-7.074 -2.672,1.561 -1.762,-2.928 C 71.232,67.519 69.224,67.329 69.224,67.329 L 58.981,67.282 c -2.707,0.287 -3.573,2.154 -3.573,2.154 l -3.524,6.188 7.111,4.092 4.546,-7.896 c 0.276,-0.354 0.701,-0.291 0.944,0.145 l 2.588,4.402 -2.501,1.474 0,0 z"
         inkscape:connector-curvature="0" /></g><path
       sodipodi:open="true"
       sodipodi:end="12.56186"
       sodipodi:start="6.2787571"
       transform="matrix(1.0967742,0,0,1,-7.9708778,-9.838942)"
       d="m 51.265163,382.53787 a 7.8286819,8.207489 0 0 1 -7.793777,8.24376 7.8286819,8.207489 0 0 1 -7.863432,-8.17073 7.8286819,8.207489 0 0 1 7.793453,-8.24409 7.8286819,8.207489 0 0 1 7.863753,8.17039"
       sodipodi:ry="8.207489"
       sodipodi:rx="7.8286819"
       sodipodi:cy="382.57422"
       sodipodi:cx="43.436558"
       id="path3832"
       style="fill:#ffffff;fill-opacity:0.58823529;stroke:none"
       sodipodi:type="arc" /><rect
       y="366.57678"
       x="467.48923"
       height="11.785714"
       width="6.4285712"
       id="rect3852"
       style="fill:#71c837;fill-opacity:0.58823529;stroke:none" /><rect
       y="366.46356"
       x="458.47525"
       height="11.785714"
       width="1.9460193"
       id="rect3852-6"
       style="fill:#ffffff;fill-opacity:0.58823529;stroke:none" /><rect
       y="368.61017"
       x="455.22385"
       height="9.8285437"
       width="1.9460193"
       id="rect3852-6-7"
       style="fill:#ffffff;fill-opacity:0.58823529;stroke:none" /><rect
       y="370.59888"
       x="451.87772"
       height="7.7451038"
       width="1.9460193"
       id="rect3852-6-7-5"
       style="fill:#ffffff;fill-opacity:0.58823529;stroke:none" /><rect
       y="372.90332"
       x="448.78412"
       height="5.5985298"
       width="1.9460193"
       id="rect3852-6-7-5-3"
       style="fill:#ffffff;fill-opacity:0.58823529;stroke:none" /><path
       sodipodi:open="true"
       sodipodi:end="6.2784904"
       sodipodi:start="0"
       transform="matrix(0.28253758,-0.14367359,0.13554112,0.26654488,130.57663,255.71377)"
       d="m 1014.2857,126.28571 a 71.428574,74.285713 0 0 1 -71.34475,74.28567 71.428574,74.285713 0 0 1 -71.51221,-74.11128 71.428574,74.285713 0 0 1 71.17686,-74.459639 71.428574,74.285713 0 0 1 71.6793,73.936489"
       sodipodi:ry="74.285713"
       sodipodi:rx="71.428574"
       sodipodi:cy="126.28571"
       sodipodi:cx="942.85712"
       id="path3767"
       style="fill:#faec6d;fill-opacity:1;stroke:none"
       sodipodi:type="arc" /></g><rect
     style="fill:none;stroke:#ffffff;stroke-width:5.65382528;stroke-linecap:butt;stroke-linejoin:miter;stroke-miterlimit:4;stroke-opacity:1;stroke-dasharray:11.30765078, 11.30765078;stroke-dashoffset:0"
     id="rect4235"
     width="342.71176"
     height="173.93739"
     x="76.934105"
     y="158.0822" /><path
     inkscape:connector-curvature="0"
     id="path68"
     style="fill:#f2f2f2;fill-opacity:1;fill-rule:evenodd;stroke:none;stroke-width:0.42552924"
     d="m 286.69523,238.47822 h -6.66754 v -22.88475 h -12.16822 c -0.28487,-0.86676 -0.57582,-2.02751 -0.57582,-3.47316 v -8.98298 c 0,-4.35207 -2.89433,-8.40107 -6.94636,-8.40107 h -54.75548 c -4.346,0 -7.5343,3.77018 -7.5343,7.82222 0,4.05203 3.1883,7.82524 7.5343,7.82524 h 41.99931 c 2.89433,0 5.21278,2.02752 5.21278,3.7611 0,0.58189 -0.28184,1.16075 -0.58188,1.44865 h -67.49044 c -3.18831,0 -5.79167,2.60639 -5.79167,5.79773 v 60.54108 c 0,2.9034 2.31545,5.50677 5.50374,5.50677 h 95.59404 v -26.36703 h 6.66754 v 2.6064 c 0,1.74568 1.44865,3.48227 3.47315,3.48227 h 9.84976 v 1.15772 c 0,2.60639 2.02753,4.63089 4.63089,4.63089 h 17.67499 c 2.90341,0 4.91881,-2.0245 4.91881,-4.63089 v -3.47316 h -4.04899 c -2.89735,0 -5.5098,-2.32455 -5.5098,-5.5098 v -19.40854 c 0,-2.89432 2.61245,-5.2128 5.5098,-5.2128 h 4.04899 v -3.47317 c 0,-2.61549 -2.0154,-4.63999 -4.91881,-4.63999 h -17.67499 c -2.60336,0 -4.63089,2.0245 -4.63089,4.63999 v 1.15773 h -9.84976 c -2.0245,0 -3.47315,1.44867 -3.47315,3.47317 v 2.60638" /><path
     inkscape:connector-curvature="0"
     id="path72"
     style="fill:#000000;fill-opacity:1;fill-rule:evenodd;stroke:none;stroke-width:0.42552924"
     d="m 243.24119,226.02209 h 6.37352 c 0.58191,0 0.86074,0.28792 0.86074,0.86679 v 6.3796 c 0,0.57886 -0.27883,0.86981 -0.86074,0.86981 h -6.37352 c -0.57887,0 -1.15773,-0.29095 -1.15773,-0.86981 v -6.3796 c 0,-0.57887 0.57886,-0.86679 1.15773,-0.86679 v 0" /><path
     inkscape:connector-curvature="0"
     id="path74"
     style="fill:#000000;fill-opacity:1;fill-rule:evenodd;stroke:none;stroke-width:0.42552924"
     d="m 252.21202,235.00507 h 6.66449 c 0.29397,0 0.88192,0.57885 0.88192,1.15772 v 6.07652 c 0,0.57887 -0.58795,1.16985 -0.88192,1.16985 h -6.66449 c -0.28183,0 -0.85768,-0.59098 -0.85768,-1.16985 v -6.07652 c 0,-0.57887 0.57585,-1.15772 0.85768,-1.15772 v 0" /><path
     inkscape:connector-curvature="0"
     id="path76"
     style="fill:#000000;fill-opacity:1;fill-rule:evenodd;stroke:none;stroke-width:0.42552924"
     d="m 242.95327,235.00507 h 6.66144 c 0.58191,0 0.86074,0.57885 0.86074,1.15772 v 6.07652 c 0,0.57887 -0.27883,1.16985 -0.86074,1.16985 h -6.66144 c -0.29095,0 -0.86981,-0.59098 -0.86981,-1.16985 v -6.07652 c 0,-0.57887 0.57886,-1.15772 0.86981,-1.15772 v 0" /><path
     inkscape:connector-curvature="0"
     id="path78"
     style="fill:#000000;fill-opacity:1;fill-rule:evenodd;stroke:none;stroke-width:0.42552924"
     d="m 252.51206,226.02209 h 6.36445 c 0.29397,0 0.88192,0.28792 0.88192,0.86679 v 6.3796 c 0,0.57886 -0.58795,0.86981 -0.88192,0.86981 h -6.36445 c -0.58187,0 -1.15772,-0.29095 -1.15772,-0.86981 v -6.3796 c 0,-0.57887 0.57585,-0.86679 1.15772,-0.86679 v 0" /><path
     inkscape:connector-curvature="0"
     id="path68-3"
     style="fill:#ececec;fill-opacity:1;fill-rule:evenodd;stroke:none;stroke-width:0.42552924"
     d="m 286.8146,238.52753 h -6.66753 c 0.47439,-1.1812 0,22.59381 0,22.59381 h 6.66753 v 2.60638 c 0,1.74568 1.44865,3.48227 3.47315,3.48227 h 9.84977 v 1.15771 c 0,2.60642 2.02752,4.63091 4.63088,4.63091 h 17.67501 c 2.90339,0 4.9188,-2.02449 4.9188,-4.63091 v -3.47315 h -4.049 c -2.89734,0 -5.50979,-2.32455 -5.50979,-5.5098 V 239.9762 c 0,-2.89431 2.61245,-5.21278 5.50979,-5.21278 h 4.049 v -3.47316 c 0,-2.6155 -2.01541,-4.64 -4.9188,-4.64 H 304.7684 c -2.60336,0 -4.63088,2.0245 -4.63088,4.64 v 1.15771 h -9.84977 c -2.0245,0 -3.47315,1.44866 -3.47315,3.47317 v 2.60639"
     sodipodi:nodetypes="ccccsscsssscsssscsssscssc" /><path
     inkscape:connector-curvature="0"
     id="path68-6"
     style="fill:#f2f2f2;fill-opacity:1;fill-rule:evenodd;stroke:none;stroke-width:0.42552924"
     d="m 267.88238,215.82118 c -0.2849,-0.86678 -0.57583,-2.02754 -0.57583,-3.47317 v -8.98297 c 0,-4.35206 -2.89432,-8.40108 -6.94636,-8.40108 h -54.75547 c -4.346,0 -7.5343,3.77018 -7.5343,7.82222 0,4.05203 3.1883,7.82523 7.5343,7.82523 h 41.9993 c 2.89434,0 5.21279,2.02755 5.21279,3.7611 0,0.58189 -0.28186,1.16075 -0.58188,1.44867"
     sodipodi:nodetypes="cssssssssc" /></svg>