<?xml version="1.0" encoding="UTF-8" standalone="no"?>
<!-- Created with Inkscape (http://www.inkscape.org/) -->

<svg
   xmlns:dc="http://purl.org/dc/elements/1.1/"
   xmlns:cc="http://creativecommons.org/ns#"
   xmlns:rdf="http://www.w3.org/1999/02/22-rdf-syntax-ns#"
   xmlns:svg="http://www.w3.org/2000/svg"
   xmlns="http://www.w3.org/2000/svg"
   xmlns:sodipodi="http://sodipodi.sourceforge.net/DTD/sodipodi-0.dtd"
   xmlns:inkscape="http://www.inkscape.org/namespaces/inkscape"
   id="svg2"
   version="1.1"
   inkscape:version="0.92.1 r15371"
   width="512"
   height="512"
   sodipodi:docname="deepin-deb-installer.svg"
   viewBox="0 0 512 512">
  <metadata
     id="metadata8">
    <rdf:RDF>
      <cc:Work
         rdf:about="">
        <dc:format>image/svg+xml</dc:format>
        <dc:type
           rdf:resource="http://purl.org/dc/dcmitype/StillImage" />
        <dc:title />
      </cc:Work>
    </rdf:RDF>
  </metadata>
  <defs
     id="defs6">
    <inkscape:perspective
       sodipodi:type="inkscape:persp3d"
       inkscape:vp_x="0 : 256 : 1"
       inkscape:vp_y="0 : 1000 : 0"
       inkscape:vp_z="512 : 256 : 1"
       inkscape:persp3d-origin="256 : 170.66667 : 1"
       id="perspective4141" />
  </defs>
  <sodipodi:namedview
     pagecolor="#ffffff"
     bordercolor="#666666"
     borderopacity="1"
     objecttolerance="10"
     gridtolerance="10"
     guidetolerance="10"
     inkscape:pageopacity="0"
     inkscape:pageshadow="2"
     inkscape:window-width="1366"
     inkscape:window-height="740"
     id="namedview4"
     showgrid="false"
     inkscape:zoom="0.75390625"
     inkscape:cx="303.74997"
     inkscape:cy="144.13165"
     inkscape:window-x="0"
     inkscape:window-y="0"
     inkscape:window-maximized="1"
     inkscape:current-layer="svg2"
     showguides="false"
     inkscape:guide-bbox="true"
     inkscape:document-units="px" />
  <rect
     style="fill:#d5e6f5;fill-opacity:1;fill-rule:evenodd;stroke:none;stroke-width:3.99781251"
     id="rect2985"
     width="450"
     height="449.9866"
     x="31"
     y="31.013393"
     ry="50.526115" />
  <rect
     style="fill:#16aefe;fill-opacity:1;fill-rule:evenodd;stroke:none;stroke-width:1.02150035"
     id="rect3755"
     width="116.42728"
     height="67.496727"
     x="47.909771"
     y="358.88748"
     ry="3.3906817" />
  <path
     style="fill:#16aefe;fill-opacity:1;stroke-width:1.29176831"
     d="m 284.64907,411.79967 c -17.325,-2.8858 -42.15911,-12.69549 -57.54544,-22.73163 -33.79142,-22.04083 -55.86028,-46.50956 -69.51815,-77.07776 -4.53745,-10.15544 -7.01675,-18.03607 -14.10867,-44.84478 -1.76341,-6.66622 -3.95792,-14.00739 -4.87684,-16.31377 -1.54995,-3.89083 -1.61806,-5.2033 -0.94239,-18.18035 0.64147,-12.32926 2.7265,-29.01163 3.84565,-30.76636 0.21723,-0.34055 0.72807,-0.42129 1.13614,-0.17908 1.37983,0.81908 2.65575,-2.96783 3.90949,-11.60559 0.68697,-4.73239 1.76619,-9.69511 2.39843,-11.02827 0.63266,-1.33286 1.70321,-4.27571 2.38006,-6.53894 1.55759,-5.20888 3.68137,-9.21275 10.24702,-19.31755 2.88753,-4.44409 5.8891,-9.28452 6.67005,-10.75653 0.9189,-1.73171 1.92295,-2.58032 2.8448,-2.40416 0.88809,0.16882 2.35379,-0.95414 3.8888,-2.97985 6.67545,-8.81026 38.11692,-34.8037 41.02631,-33.91751 0.79413,0.24221 4.11191,-0.84993 7.37301,-2.42572 5.89806,-2.850411 8.49714,-3.509795 8.49714,-2.155932 0,0.390461 -0.85285,1.27707 -1.89448,1.970532 -1.82872,1.21689 -1.79203,1.23743 1.05249,0.57688 1.62072,-0.37579 4.35059,-0.91304 6.06599,-1.191928 2.11951,-0.344974 2.98132,-0.85287 2.6889,-1.58374 -0.25687,-0.641472 0.35377,-1.277083 1.51183,-1.57536 2.89838,-0.74424 7.415,-0.622398 7.415,0.199639 0,0.9879 -2.5825,1.985646 -4.63098,1.790548 -1.39744,-0.132111 -1.46879,-0.01453 -0.4213,0.670828 1.0437,0.686993 1.05544,0.833773 0.0734,0.844053 -0.65615,0.006 -0.97762,0.21873 -0.7134,0.47268 0.26421,0.25248 2.01954,-0.29359 3.9014,-1.215443 1.88201,-0.92185 5.3288,-2.067693 7.65956,-2.547407 2.86916,-0.5901 4.23785,-1.275617 4.23785,-2.120979 0,-1.087725 1.33286,-1.1802 10.31426,-0.716338 5.67302,0.293567 14.23358,1.146436 19.02353,1.896393 8.70851,1.363683 8.70925,1.363683 11.95465,-0.428645 3.8926,-2.149898 10.15367,-2.429671 11.79906,-0.526969 0.60184,0.695787 2.25852,1.84295 3.68152,2.548885 2.32135,1.15231 2.47488,1.153763 1.49374,0.01465 -1.8638,-2.156377 -0.013,-2.10205 7.1838,0.211374 23.20135,7.456839 42.11594,20.737169 56.15092,39.424969 3.32835,4.43162 3.53004,6.4255 0.37726,3.72775 l -1.80422,-1.54364 1.37837,2.58588 c 0.75745,1.4224 1.37836,3.02066 1.37836,3.55203 0,0.53139 2.23108,4.45805 4.95787,8.72628 6.14585,9.61937 7.86521,12.86006 7.45274,14.04732 -0.17615,0.50936 -2.89958,-2.87903 -6.05045,-7.52892 -3.15101,-4.64988 -7.81382,-10.91493 -10.36182,-13.92224 -3.80512,-4.49092 -4.80167,-5.25892 -5.57806,-4.2992 -0.51963,0.64293 -1.78951,1.28587 -2.82162,1.42826 l -1.87628,0.25983 1.85619,3.49199 c 1.02019,1.92064 1.99164,3.10229 2.15708,2.6261 0.88663,-2.55093 5.01204,0.80294 6.88817,5.59817 0.60771,1.5554 2.22593,4.75852 3.59462,7.11804 1.36809,2.35953 2.31593,4.4554 2.10541,4.65739 -0.20989,0.20257 -1.45909,-0.44478 -2.77272,-1.43709 l -2.38976,-1.80391 1.62983,2.68524 c 0.89688,1.47686 2.39753,3.28357 3.33567,4.01474 1.17139,0.91304 1.72978,2.35394 1.78204,4.59485 0.10282,4.13702 2.56606,9.02442 3.90905,7.73572 2.0922,-2.00794 2.52246,-0.75302 1.99591,5.82218 -0.38753,4.84455 -0.18203,8.03755 0.73836,11.42724 1.39744,5.14606 1.09653,6.41625 -0.9468,4.01105 -1.2991,-1.52954 -1.31231,-1.52851 -0.73103,0.0586 1.24773,3.4029 2.17941,8.49332 1.92019,10.49144 -0.48441,3.72835 -1.9422,2.17809 -2.44423,-2.59789 l -0.49027,-4.66151 -0.14681,4.96095 c -0.0734,2.7284 -0.74569,8.00071 -1.48359,11.71611 -0.74572,3.75288 -1.12442,8.30031 -0.85141,10.23118 0.51231,3.63249 0.14974,3.77329 -3.01391,1.17142 -1.28736,-1.05837 -1.50945,-0.84553 -2.39387,2.30681 -0.74423,2.65222 -0.73835,4.1621 0.0294,6.38349 0.55047,1.60031 0.87047,3.77062 0.71045,4.82297 -0.36843,2.42866 -2.39577,3.18596 -2.39577,0.89542 0,-2.88003 -1.14202,-1.85515 -4.6308,4.15786 -9.42238,16.23669 -24.3309,28.80243 -41.20466,34.72958 -9.94789,3.49421 -16.62013,4.78992 -27.83862,5.40616 l -10.10393,0.55485 4.99223,1.4779 c 4.02545,1.19195 6.38936,1.36957 12.20875,0.91891 7.62403,-0.59157 16.57578,-2.17866 20.63484,-3.65979 1.61998,-0.59157 2.71403,-0.61799 3.27389,-0.0734 1.31965,1.2668 -10.40602,6.2474 -17.36671,7.37594 -11.84397,1.92032 -27.69827,-0.15559 -41.69346,-5.45753 -9.49548,-3.59786 -23.58624,-12.96751 -21.42694,-14.24812 0.40955,-0.2422 3.0898,0.98203 5.95723,2.72222 3.66522,2.22404 5.21341,2.8096 5.21341,1.972 0,-1.5824 0.54167,-1.50651 3.454,0.48295 2.62976,1.79686 10.71795,5.13342 16.54333,6.82446 6.35019,1.8434 3.88807,-0.39047 -4.63094,-4.20219 -26.93557,-12.0508 -38.11766,-24.1038 -43.69058,-47.09407 -2.04362,-8.43034 0.1468,-26.9125 3.87322,-32.70063 0.94389,-1.46643 1.71732,-3.27034 1.71732,-4.00826 0,-3.20211 5.56411,-11.66239 11.27354,-17.14136 10.06075,-9.65474 20.5205,-13.66287 34.09881,-13.06632 6.56404,0.28918 9.36733,0.84259 14.83001,2.92995 6.19618,2.36802 13.99783,7.32516 11.60851,7.37595 -0.56221,0.0121 -3.02463,-0.77945 -5.47295,-1.75842 -3.72175,-1.48844 -6.10812,-1.78643 -14.55549,-1.81814 -11.8619,-0.0441 -17.6597,1.57066 -26.1018,7.27085 -11.96844,8.08129 -18.62381,17.3893 -20.98083,29.34337 -1.58152,8.02124 -1.62995,10.24395 -0.39632,18.20046 0.71046,4.58458 1.21543,5.93006 2.10497,5.60273 0.74717,-0.27451 1.16993,0.13211 1.16993,1.11266 0,2.84144 6.44293,14.36805 10.91124,19.5207 10.75495,12.40283 28.15204,20.31748 44.65925,20.31748 8.56746,0 15.49306,-1.57813 21.86804,-4.98295 2.56004,-1.3681 5.79135,-3.03887 7.18058,-3.71454 4.90179,-2.38448 7.94285,-5.10803 11.49829,-10.29739 1.97654,-2.88503 4.12526,-5.24558 4.77495,-5.24558 0.96003,0 0.91891,0.41689 -0.22165,2.22198 -3.75828,5.95222 5.06193,-4.87038 9.62949,-11.81537 l 5.11597,-7.77888 -0.55781,-5.10994 c -0.53579,-4.91045 -0.45799,-5.21006 1.98975,-7.67614 2.35776,-2.37493 2.56957,-3.07776 2.84129,-9.42663 0.24367,-5.68211 0.0734,-6.8616 -0.96883,-6.86804 -0.97028,-0.005 -1.38864,-1.50212 -1.80698,-6.47202 -0.55341,-6.57713 -6.13397,-28.70908 -7.43321,-29.47958 -0.39194,-0.23195 -1.48039,-2.36084 -2.41809,-4.72918 -3.16481,-7.99319 -8.71586,-15.67918 -17.3711,-24.05214 -12.45404,-12.04786 -28.14203,-21.35103 -42.96087,-25.4763 -12.60524,-3.50904 -34.01,-2.23533 -49.25644,2.93098 -7.44098,2.52142 -14.77246,5.86004 -16.0096,7.29051 -0.56221,0.64881 -1.37545,0.97029 -1.80849,0.71342 -0.45651,-0.27011 -0.33026,-0.99526 0.29948,-1.72319 2.80869,-3.24774 -6.51166,2.69627 -12.51174,7.97942 -3.62766,3.19416 -6.72785,5.90466 -6.88949,6.02327 -0.16147,0.11747 0.5446,0.005 1.56905,-0.25103 1.70498,-0.42715 1.7772,-0.31413 0.85287,1.34463 -0.59304,1.06275 -3.67948,2.97397 -7.463,4.62081 -6.35708,2.76718 -10.46856,5.80838 -13.73539,10.16001 -1.3035,1.73741 -1.37984,2.11143 -0.3479,1.73154 0.72369,-0.26717 1.31671,-0.10282 1.31671,0.37138 0,2.30771 -2.18468,4.88403 -5.42111,6.39289 -7.17031,3.34302 -19.7663,21.19984 -26.51356,37.58744 -3.00686,7.30286 -2.95913,7.04904 -1.32404,7.04904 1.72317,0 1.60325,1.87806 -0.76332,11.96641 -3.44797,14.69509 -3.45208,14.22492 0.3024,34.89851 4.57502,25.18921 7.2478,33.60339 12.32969,38.81726 1.19196,1.22278 2.35103,3.82481 2.86742,6.43856 0.61654,3.12106 1.65243,5.1807 3.59021,7.14095 1.7668,1.78717 2.356,2.88339 1.67724,3.1209 -1.33139,0.46534 2.83719,6.43048 6.64053,9.50163 1.91342,1.54499 3.33142,2.06434 4.86759,1.7825 3.36651,-0.61799 6.79423,1.24332 12.06138,6.54746 5.4734,5.512 6.02181,6.994 2.39959,6.48376 -2.33633,-0.32882 -2.38977,-0.26863 -1.24039,1.41653 0.66204,0.96882 3.10066,3.29693 5.42098,5.17452 3.25907,2.6371 4.09827,3.77797 3.68917,5.01497 -0.58864,1.77881 1.08919,3.43829 4.88565,4.83104 2.35393,0.86312 3.11225,2.72604 1.34019,3.29266 -0.53579,0.17176 2.7792,3.44621 7.36744,7.27717 5.1691,4.3161 8.64629,6.68178 9.14185,6.21968 1.30936,-1.21982 2.98705,-0.84846 3.01715,0.6679 0.0293,1.65477 1.51898,3.39307 6.86497,8.02969 3.37838,2.93026 4.22184,3.29905 6.29262,2.7516 1.8961,-0.50055 3.08863,-0.1789 5.7592,1.55284 5.32806,3.45664 8.55879,4.83625 11.32507,4.83625 2.72194,0 3.10961,0.75013 1.69617,3.28523 -0.74865,1.34176 -0.58863,1.56291 1.13176,1.56291 1.10094,0 4.20526,0.72662 6.89727,1.616 6.12087,2.02084 8.67417,2.15841 7.14007,0.38468 -2.26617,-2.62034 0.13208,-1.90444 8.23393,2.45243 11.31361,6.08861 17.03685,6.78411 39.5659,4.80873 3.33552,-0.29206 4.42044,-0.11759 4.42044,0.69587 0,0.7017 -2.89428,1.75526 -8.20943,2.98903 -6.98709,1.62233 -10.71646,1.9361 -25.04913,2.10804 -11.29396,0.13202 -19.00856,-0.16005 -23.42505,-0.89546 z M 273.13155,290.6708 c 0,-0.17174 -1.04224,-0.92037 -2.31534,-1.66402 l -2.31548,-1.35341 1.98769,1.66403 c 1.9397,1.62379 2.64313,1.98387 2.64313,1.3534 z m 115.92801,-84.68209 c -0.26862,-0.64442 -0.46826,-0.45358 -0.50935,0.4888 -0.0294,0.85139 0.16293,1.32848 0.44183,1.05984 0.28038,-0.26862 0.30973,-0.96589 0.0734,-1.54864 z M 197.45979,120.69258 c 1.04661,-1.28148 1.01727,-1.30937 -0.31854,-0.30531 -0.81029,0.61065 -1.4735,1.24625 -1.4735,1.41358 0,0.66497 0.69139,0.23633 1.79145,-1.10827 z m 9.5756,-7.47414 c 0.83818,-0.88955 1.33434,-1.61602 1.10241,-1.61602 -0.23192,0 -1.10681,0.72662 -1.94499,1.61602 -0.83818,0.88956 -1.33434,1.61602 -1.1024,1.61602 0.23192,0 1.10681,-0.72662 1.94498,-1.61602 z m 10.59846,-5.67993 c 2.77553,-0.90131 4.35265,-1.0613 4.93804,-0.4991 0.58571,0.56221 2.75703,0.22899 6.79938,-1.04367 3.26667,-1.02755 5.78928,-2.01281 5.6058,-2.18895 -0.1835,-0.17616 -2.87316,0.49321 -5.9769,1.48802 -4.2631,1.36662 -5.79721,1.56904 -6.27268,0.83084 -0.80294,-1.24773 -8.46471,1.21103 -11.75795,3.77383 l -2.25016,1.75078 2.41823,-1.39304 c 1.32994,-0.76624 4.25328,-1.98961 6.49624,-2.71828 z m 24.27438,-2.05111 c 2.44511,-0.69725 4.29995,-1.40772 4.12161,-1.57816 -0.39341,-0.37725 -9.10384,2.01633 -9.10384,2.50191 0,0.48882 0.0734,0.47707 4.98223,-0.92332 z m 13.96262,-4.40506 3.36797,-0.5901 -2.94697,-0.0734 c -1.62088,-0.0441 -3.89422,0.48588 -5.05197,1.16697 -1.36223,0.80149 -1.51121,1.03636 -0.42128,0.66204 0.92623,-0.31706 3.1996,-0.84258 5.05193,-1.16699 z m 6.68736,-1.524717 c 0.2598,-0.403661 -0.28626,-0.543124 -1.21398,-0.309733 -1.9661,0.493229 -2.21448,1.04222 -0.47119,1.04222 0.66791,0 1.42534,-0.330266 1.68517,-0.732487 z m 27.18524,0.24366 c -0.28038,-0.268607 -1.00551,-0.296509 -1.61381,-0.05873 -0.67232,0.258347 -0.47268,0.449187 0.50934,0.488817 0.8881,0.0293 1.38424,-0.1556 1.10534,-0.424232 z m -5.0345,-0.876327 c -0.81029,-0.20257 -2.13655,-0.20257 -2.94697,0 -0.81029,0.202569 -0.14679,0.369922 1.47349,0.369922 1.62085,0 2.28391,-0.165875 1.47348,-0.369922 z m -8.39761,-0.83818 c -1.72436,-0.173214 -4.75558,-0.176145 -6.73595,-0.0048 -1.98035,0.170296 -0.56955,0.312677 3.13517,0.31562 3.70485,0.0024 5.32514,-0.132124 3.60078,-0.309746 z m -10.98571,-0.709 c -0.28035,-0.268619 -1.00549,-0.297986 -1.61381,-0.05873 -0.67229,0.25835 -0.47265,0.449172 0.50938,0.488809 0.88807,0.02931 1.38423,-0.155605 1.10534,-0.424224 z M 259.6262,291.58911 c -8.57656,-5.89702 -11.75427,-8.94734 -11.75427,-11.28278 0,-1.23892 0.2921,-2.25294 0.64879,-2.25294 1.21397,0 15.55222,14.3626 15.23866,15.26508 -0.18202,0.52258 -1.91165,-0.20111 -4.13334,-1.72936 z M 255.21292,276.616 c -4.45406,-4.31945 -5.88147,-6.64259 -4.08122,-6.64259 1.08185,0 9.37011,9.10677 9.37011,10.29534 0,0.55928 -0.10282,1.01726 -0.23636,1.01726 -0.13208,0 -2.40368,-2.1013 -5.05194,-4.66956 z m 49.28286,-17.68199 c -2.35158,-0.9101 -0.88366,-2.59792 2.94697,-3.38648 2.19966,-0.45358 5.69536,-1.55245 7.76805,-2.44332 2.07268,-0.89102 3.91829,-1.47598 4.1012,-1.30058 0.18347,0.17616 -0.756,1.97155 -2.08457,3.99096 -2.40255,3.64922 -2.44555,3.67125 -7.04819,3.60929 -2.54711,-0.0293 -5.10466,-0.24514 -5.68346,-0.46972 z m 25.25965,-18.07437 c -2.27276,-0.87634 -2.36686,-2.36848 -0.46974,-7.44891 1.62982,-4.36394 3.32029,-5.22473 2.37994,-1.21248 -0.33908,1.44442 -0.78973,3.535 -1.00406,4.64607 l -0.38898,2.02 1.68265,-1.83901 c 0.99525,-1.08771 1.91738,-3.64231 2.2572,-6.253 0.31561,-2.42763 0.9101,-4.21481 1.32113,-3.97143 1.0422,0.61799 0.93065,7.00648 -0.19525,11.30159 -0.98495,3.75182 -1.8701,4.18912 -5.58347,2.75672 z M 130.50431,230.71859 c -0.28036,-0.70313 -0.51083,-3.4603 -0.51083,-6.12736 0,-3.51902 0.28919,-4.75778 1.05249,-4.51544 1.25065,0.39634 1.98403,11.9209 0.75892,11.9209 -0.43304,0 -1.01874,-0.57543 -1.29911,-1.27854 z m 202.55891,-18.89992 c -1.30791,-1.69823 -1.71143,-3.03874 -1.3402,-4.45747 0.76186,-2.91351 2.75525,-2.49926 4.22582,0.8778 2.28787,5.25454 0.30237,7.71696 -2.88548,3.57908 z M 130.33095,198.9903 c -0.0586,-4.58179 -4.4e-4,-4.72329 2.11321,-4.64593 1.79216,0.0587 2.22476,0.51817 2.43144,2.54683 0.2334,2.28742 -2.35908,6.82504 -3.89921,6.82504 -0.31853,0 -0.60918,-2.1267 -0.64588,-4.72594 z M 348.58431,99.65906 c 0.11747,-7.231065 1.38718,-9.680573 2.37656,-4.617899 0.68991,3.527678 -0.18791,9.757059 -1.52371,10.821279 -0.72661,0.57836 -0.94387,-0.99818 -0.85285,-6.20338 z M 237.9487,95.32579 c 0.33909,-0.974687 11.95349,-5.539748 14.09603,-5.539748 2.51718,0 -1.99826,2.960042 -7.20626,4.723875 -5.80676,1.96656 -7.35305,2.149765 -6.88977,0.816164 z"
     id="path4181"
     inkscape:connector-curvature="0" />
  <path
     inkscape:connector-curvature="0"
     d="m 89.304562,394.50439 c -0.38727,0 -10.91939,6e-4 -10.91939,6e-4 0,0 0.002,-1.56098 0.002,-1.79914 0,-0.61257 0.58484,-1.21309 1.21939,-1.2155 0.58848,-0.002 8.5,0 9.1097,0 0.54909,0 1.18666,0.61258 1.18363,1.20586 -0.002,0.47028 -0.01,0.75788 -0.01,1.20585 0,0 0,0.60233 -0.58606,0.60233 m 3.0103,8.43256 c 0.62546,0 0.6291,-0.55651 0.6291,-0.61258 -10e-4,-0.20921 -0.004,-1.57907 -0.004,-1.79009 0,-0.60293 -0.61516,-0.61198 -0.61516,-0.61198 0,0 -11.96666,-0.01 -12.73697,-0.01 -1.22121,0 -1.20242,-1.17571 -1.20242,-1.17571 -0.0158,-0.0766 6.1e-4,-1.22635 0,-1.22635 h 12.12606 c 3.36667,0 3.02546,-2.41172 3.02546,-2.41172 v -2.39 c 0,0 0.32848,-4.24221 -4.23273,-4.24221 h -10.21577 c -4.64243,0 -4.32788,4.18553 -4.32788,4.18553 0,2.26701 0.001,3.07735 0.001,6.05943 0,4.22532 4.24848,4.20603 4.24848,4.20603 z"
     id="Fill-1"
     style="fill:#d5e6f5;fill-opacity:1" />
  <path
     inkscape:connector-curvature="0"
     d="m 69.890922,399.33391 c 0,0 0.01,0.58785 -0.60606,0.58785 -0.6606,0 -3.88666,0.008 -5.86909,0.002 -1.98242,-0.006 -4.41394,-0.43893 -4.41515,-4.17528 -10e-4,-3.73574 2.70061,-4.25366 4.38667,-4.25366 1.68545,0 6.5006,0.007 6.5006,0.007 0,0 0.003,7.29725 0.003,7.83265 m 3.03337,-16.29414 c -0.26,0.001 -2.15697,0.001 -2.41637,0 0,0 -0.60666,0 -0.60666,0.62223 0,0.0494 -0.003,4.80413 -0.003,4.80413 -2.55091,-6e-4 -5.19394,10e-4 -7.84909,0 -5.70367,-0.002 -6.70791,4.91206 -6.70306,7.24419 0.006,2.33092 1.02545,7.21645 6.79272,7.21102 5.76788,-0.005 5.9297,0.007 8.37091,0.007 3.02364,0 3.02727,-2.99716 3.02727,-2.99716 v -16.28868 c 0,-0.60293 -0.61272,-0.60293 -0.61272,-0.60293"
     id="Fill-3"
     style="fill:#d5e6f5;fill-opacity:1" />
  <path
     inkscape:connector-curvature="0"
     d="m 137.17311,386.65764 h -2.42425 c -0.33454,0 -0.60606,-0.27012 -0.60606,-0.60293 v -2.41172 c 0,-0.33281 0.27152,-0.60292 0.60606,-0.60292 h 2.42425 c 0.33454,0 0.60606,0.27011 0.60606,0.60292 v 2.41172 c 0,0.33281 -0.27152,0.60293 -0.60606,0.60293"
     id="Fill-6"
     style="fill:#d5e6f5;fill-opacity:1" />
  <path
     inkscape:connector-curvature="0"
     d="m 137.17311,402.93671 h -2.42425 c -0.33454,0 -0.60606,-0.27012 -0.60606,-0.60293 v -13.26443 c 0,-0.33282 0.27152,-0.60293 0.60606,-0.60293 h 2.42425 c 0.33454,0 0.60606,0.27011 0.60606,0.60293 v 13.26443 c 0,0.33281 -0.27152,0.60293 -0.60606,0.60293"
     id="Fill-9"
     style="fill:#d5e6f5;fill-opacity:1" />
  <path
     inkscape:connector-curvature="0"
     d="m 148.68832,388.4704 c -4.45212,-0.006 -9.69697,-10e-4 -9.69697,-10e-4 v 13.8553 c 0,0.27313 0.17576,0.67649 0.72545,0.60655 0.59273,-0.002 1.52424,-0.005 2.11697,-0.007 0.83515,0.11878 0.81091,-0.60896 0.81091,-0.60896 l -0.0182,-10.82441 c 0,0 4.43454,-0.004 6.05697,-0.004 0.10121,0 2.44788,0.0452 2.44788,3.00922 l -0.0176,7.83927 c -6.1e-4,0.33342 0.27091,0.60414 0.60666,0.60414 l 2.42303,-0.002 c 0.33455,0 0.60546,-0.27011 0.60546,-0.60293 v -8.11241 c 0,-3.34204 -1.60849,-5.74531 -6.06061,-5.75134"
     id="Fill-11"
     style="fill:#d5e6f5;fill-opacity:1" />
  <path
     inkscape:connector-curvature="0"
     d="m 118.38608,392.0609 c 0,0 -0.01,-0.58785 0.60606,-0.58785 0.6606,0 3.88666,-0.008 5.86909,-0.002 1.98242,0.006 4.41394,0.43893 4.41515,4.17528 0.001,3.73574 -2.70061,4.25366 -4.38667,4.25366 -1.68606,0 -6.5006,-0.007 -6.5006,-0.007 0,0 -0.003,-7.29725 -0.003,-7.83265 m -3.0291,16.29415 c 0.26,-10e-4 2.15455,-10e-4 2.41394,0 0,0 0.60606,0 0.60606,-0.62223 0,-0.0494 0.002,-4.80413 0.002,-4.80413 2.55152,6e-4 5.19394,-0.001 7.8497,0 5.70303,0.002 6.70727,-4.91206 6.70243,-7.24419 -0.006,-2.33092 -1.02546,-7.21645 -6.79273,-7.21102 -5.76788,0.005 -5.92485,-0.007 -8.36667,-0.007 -3.02363,0 -3.02242,2.99716 -3.02242,2.99716 v 16.28869 c 0,0.60292 0.60788,0.60292 0.60788,0.60292"
     id="Fill-16"
     style="fill:#d5e6f5;fill-opacity:1" />
  <path
     inkscape:connector-curvature="0"
     d="m 109.30456,394.50439 c -0.38727,0 -10.919388,6e-4 -10.919388,6e-4 0,0 0.002,-1.56098 0.002,-1.79914 0,-0.61257 0.58484,-1.21309 1.21939,-1.2155 0.588478,-0.002 8.499998,0 9.109698,0 0.54909,0 1.18666,0.61258 1.18363,1.20586 -0.002,0.47028 -0.009,0.75788 -0.009,1.20585 0,0 0,0.60233 -0.58666,0.60233 m 3.0103,8.43256 c 0.62545,0 0.62909,-0.55651 0.62909,-0.61258 -10e-4,-0.20921 -0.004,-1.57907 -0.004,-1.79009 0,-0.60293 -0.61515,-0.61198 -0.61515,-0.61198 0,0 -11.96667,-0.01 -12.736968,-0.01 -1.22121,0 -1.20243,-1.17571 -1.20243,-1.17571 -0.0158,-0.0766 6.1e-4,-1.22635 0,-1.22635 h 12.126058 c 3.36667,0 3.02546,-2.41172 3.02546,-2.41172 v -2.39 c 0,0 0.32848,-4.24221 -4.23273,-4.24221 H 99.088102 c -4.64243,0 -4.32788,4.18553 -4.32788,4.18553 0,2.26701 0.001,3.07735 0.001,6.05943 0,4.22532 4.24848,4.20603 4.24848,4.20603 z"
     id="Fill-21"
     style="fill:#d5e6f5;fill-opacity:1" />
</svg>
