<?xml version="1.0" encoding="UTF-8" standalone="no"?>
<!-- Created with Inkscape (http://www.inkscape.org/) -->

<svg
   xmlns:dc="http://purl.org/dc/elements/1.1/"
   xmlns:cc="http://creativecommons.org/ns#"
   xmlns:rdf="http://www.w3.org/1999/02/22-rdf-syntax-ns#"
   xmlns:svg="http://www.w3.org/2000/svg"
   xmlns="http://www.w3.org/2000/svg"
   xmlns:xlink="http://www.w3.org/1999/xlink"
   xmlns:sodipodi="http://sodipodi.sourceforge.net/DTD/sodipodi-0.dtd"
   xmlns:inkscape="http://www.inkscape.org/namespaces/inkscape"
   id="svg2"
   version="1.1"
   inkscape:version="0.92.2pre0 (973e216, 2017-07-25)"
   width="500"
   height="500"
   sodipodi:docname="deepin-clone.svg">
  <metadata
     id="metadata8">
    <rdf:RDF>
      <cc:Work
         rdf:about="">
        <dc:format>image/svg+xml</dc:format>
        <dc:type
           rdf:resource="http://purl.org/dc/dcmitype/StillImage" />
        <dc:title />
      </cc:Work>
    </rdf:RDF>
  </metadata>
  <defs
     id="defs6">
    <linearGradient
       inkscape:collect="always"
       xlink:href="#linearGradient-3"
       id="linearGradient128"
       x1="40.606743"
       y1="0"
       x2="40.606743"
       y2="80.573624"
       gradientTransform="matrix(3.0593427,0,0,2.8209673,115.12236,97.532254)"
       gradientUnits="userSpaceOnUse" />
    <linearGradient
       id="linearGradient-3"
       y2="1"
       x2="0.5"
       y1="0"
       x1="0.5">
      <stop
         id="stop81"
         offset="0%"
         stop-color="#FFFFFF" />
      <stop
         id="stop83"
         offset="100%"
         stop-color="#E9F2F4" />
    </linearGradient>
    <linearGradient
       inkscape:collect="always"
       xlink:href="#linearGradient-3"
       id="linearGradient130"
       x1="71.438316"
       y1="35.508331"
       x2="71.438316"
       y2="78.198936"
       gradientTransform="matrix(2.6494195,0,0,3.257433,57.374853,26.992254)"
       gradientUnits="userSpaceOnUse" />
  </defs>
  <sodipodi:namedview
     pagecolor="#ffffff"
     bordercolor="#666666"
     borderopacity="1"
     objecttolerance="10"
     gridtolerance="10"
     guidetolerance="10"
     inkscape:pageopacity="0"
     inkscape:pageshadow="2"
     inkscape:window-width="1366"
     inkscape:window-height="740"
     id="namedview4"
     showgrid="false"
     inkscape:zoom="0.7721606"
     inkscape:cx="254.16297"
     inkscape:cy="194.76619"
     inkscape:window-x="0"
     inkscape:window-y="0"
     inkscape:window-maximized="1"
     inkscape:current-layer="svg2" />
  <g
     id="Calque.__202"
     transform="matrix(0.46702559,0,0,0.4763699,5.63116,-2.8228282)">
    <g
       id="shape">
      <path
         id="path"
         d="M 919.15,109.8 Q 918.7,89.9 904.5,75.7 C 894.75,65.95 882.95,61.05 869.15,61.05 l -674.2,0 c -13.8,0 -25.6,4.9 -35.35,14.65 -9.45,9.45 -14.35,20.85 -14.65,34.1 l 0,843.25 c 0,13.8 4.9,25.6 14.65,35.35 9.75,9.75 21.55,14.65 35.35,14.65 l 674.2,0 c 13.8,0 25.6,-4.9 35.35,-14.65 9.75,-9.75 14.65,-21.55 14.65,-35.35 l 0,-843.25 z"
         inkscape:connector-curvature="0"
         style="fill:#000000;fill-opacity:0.09803922" />
    </g>
  </g>
  <path
     id="path1"
     d="m 431.82676,31.978822 c -4.64461,-4.64461 -10.26577,-6.97882 -16.83968,-6.97882 l -321.168584,0 c -6.573906,0 -12.195066,2.33421 -16.839676,6.97882 -4.5017,4.50169 -6.83591,9.93231 -6.97882,16.24421 l 0,-0.0119 0,345.165718 q 0.21818,9.45976 6.97882,16.2204 c 4.64461,4.6446 10.26577,6.97882 16.839676,6.97882 l 321.168584,0 c 6.57391,0 12.19507,-2.33422 16.83968,-6.97882 4.50169,-4.5017 6.8359,-9.9085 6.97882,-16.2204 l 0,-345.165718 0,0.0119 c -0.14292,-6.3119 -2.47713,-11.74252 -6.97882,-16.24421 z"
     inkscape:connector-curvature="0"
     style="fill:#ebebeb;fill-opacity:1" />
  <path
     id="path2"
     d="M 76.97882,409.59724 Q 70.21818,402.8366 70,393.37684 l 0,56.54511 c 0,6.5739 2.33421,12.19507 6.97882,16.83968 4.64461,4.6446 10.26577,6.9788 16.839676,6.9788 l 321.168584,0 c 6.57391,0 12.19507,-2.3342 16.83968,-6.9788 4.6446,-4.64461 6.97882,-10.26578 6.97882,-16.83968 l 0,-56.54511 c -0.14292,6.3119 -2.47713,11.7187 -6.97882,16.2204 -4.64461,4.6446 -10.26577,6.97882 -16.83968,6.97882 l -321.168584,0 c -6.573906,0 -12.195066,-2.33422 -16.839676,-6.97882 z"
     inkscape:connector-curvature="0"
     style="fill:#5d6a7b;fill-opacity:0.98823529" />
  <g
     transform="matrix(0.4763699,0,0,0.4763699,4.2767,-2.8228282)"
     id="Calque.__204"
     style="fill:#394050">
    <g
       id="Symbole.__2026_1"
       overflow="visible"
       style="fill:#394050;overflow:visible">
      <g
         id="Calque.__208"
         style="fill:#394050">
        <g
           id="shape17"
           style="fill:#394050">
          <path
             inkscape:connector-curvature="0"
             id="path11"
             d="m 518,918 q 0,-8.3 -5.85,-14.15 C 508.25,899.95 503.55,898 498,898 l -302,0 c -5.55,0 -10.25,1.95 -14.15,5.85 -3.9,3.9 -5.85,8.6 -5.85,14.15 l 0,8.2 c 0,5.55 1.95,10.25 5.85,14.15 3.9,3.9 8.6,5.85 14.15,5.85 l 302,0 c 5.55,0 10.25,-1.95 14.15,-5.85 3.9,-3.9 5.85,-8.6 5.85,-14.15 l 0,-8.2 z"
             style="fill:#394050;fill-opacity:1" />
        </g>
      </g>
    </g>
  </g>
  <g
     transform="matrix(0.4763699,0,0,0.4763699,4.2767,-2.8228282)"
     id="Calque.__205">
    <g
       id="shape6">
      <path
         style="fill:#000000;fill-opacity:0.2"
         inkscape:connector-curvature="0"
         id="path3"
         d="M 849.65,912.15 Q 843.1,905.6 833.8,905.6 c -6.2,0 -11.5,2.2 -15.9,6.55 -4.35,4.4 -6.55,9.7 -6.55,15.9 0,6.2 2.2,11.5 6.55,15.85 4.4,4.4 9.7,6.6 15.9,6.6 6.2,0 11.5,-2.2 15.85,-6.6 4.4,-4.35 6.6,-9.65 6.6,-15.85 0,-6.2 -2.2,-11.5 -6.6,-15.9 z m -64.85,15.9 c 0,-6.2 -2.2,-11.5 -6.6,-15.9 -4.35,-4.35 -9.65,-6.55 -15.85,-6.55 -6.2,0 -11.5,2.2 -15.9,6.55 -4.35,4.4 -6.55,9.7 -6.55,15.9 0,6.2 2.2,11.5 6.55,15.85 4.4,4.4 9.7,6.6 15.9,6.6 6.2,0 11.5,-2.2 15.85,-6.6 4.4,-4.35 6.6,-9.65 6.6,-15.85 z" />
    </g>
  </g>
  <path
     id="path6"
     d="m 335.35528,303.00665 q 37.75232,-37.75232 37.75232,-91.15338 c 0,-35.60865 -12.57617,-65.97723 -37.75232,-91.15338 -25.17614,-25.176148 -55.54472,-37.752318 -91.15338,-37.752318 -35.60865,0 -65.97723,12.57617 -91.15337,37.752318 -25.17615,25.17615 -37.75232,55.54473 -37.75232,91.15338 0,35.60865 12.57617,65.97723 37.75232,91.15338 25.17614,25.17615 55.54472,37.75231 91.15337,37.75231 35.60866,0 65.97724,-12.57616 91.15338,-37.75231 z"
     inkscape:connector-curvature="0"
     style="fill:#0084ff;fill-opacity:1" />
  <path
     id="path7"
     d="m 399.21116,445.20306 c 2.9535,0 5.47826,-1.04801 7.55047,-3.14404 2.09602,-2.07221 3.14404,-4.59697 3.14404,-7.55046 0,-2.95349 -1.04802,-5.47826 -3.14404,-7.57428 -2.07221,-2.07221 -4.59697,-3.12023 -7.55047,-3.12023 -2.95349,0 -5.47825,1.04802 -7.57428,3.12023 -2.07221,2.09602 -3.12022,4.62079 -3.12022,7.57428 0,2.95349 1.04801,5.47825 3.12022,7.55046 2.09603,2.09603 4.62079,3.14404 7.57428,3.14404 z m -23.34212,-10.6945 c 0,-2.95349 -1.04802,-5.47826 -3.14404,-7.57428 -2.07221,-2.07221 -4.59697,-3.12023 -7.55047,-3.12023 -2.95349,0 -5.47825,1.04802 -7.57428,3.12023 -2.07221,2.09602 -3.12022,4.62079 -3.12022,7.57428 0,2.95349 1.04801,5.47825 3.12022,7.55046 2.09603,2.09603 4.62079,3.14404 7.57428,3.14404 2.9535,0 5.47826,-1.04801 7.55047,-3.14404 2.09602,-2.07221 3.14404,-4.59697 3.14404,-7.55046 z"
     inkscape:connector-curvature="0"
     style="fill:#ffcc00;fill-opacity:1" />
  <path
     id="Combined-Shape"
     d="m 150.23711,210.20023 c 2.05439,-52.93666 45.54867,-95.22063 98.90281,-95.22063 54.6645,0 98.97874,44.38631 98.97874,99.13958 0,54.75322 -44.31424,99.13951 -98.97874,99.13951 -28.14709,0 -54.38102,-11.82067 -73.02055,-32.21093 -2.7011,-2.95481 -7.28228,-3.15692 -10.23227,-0.45143 -2.95008,2.70555 -3.15182,7.29411 -0.45071,10.24893 21.35527,23.36114 51.45054,36.92165 83.70353,36.92165 62.66418,0 113.46349,-50.88185 113.46349,-113.64779 0,-62.76588 -50.79931,-113.64773 -113.46349,-113.64773 -61.35461,0 -111.33518,48.7775 -113.39724,109.72884 h -19.64165 l 27.40557,54.86446 27.40556,-54.86446 z"
     inkscape:connector-curvature="0"
     style="fill:#006be7;fill-rule:nonzero;stroke:none;stroke-width:2.93773818" />
  <path
     id="path92"
     d="m 150.23711,207.26107 c 2.05439,-52.93667 45.54867,-95.22063 98.90281,-95.22063 54.6645,0 98.97874,44.3863 98.97874,99.13951 0,54.75329 -44.31424,99.13958 -98.97874,99.13958 -28.14709,0 -54.38102,-11.82067 -73.02055,-32.21094 -2.7011,-2.9548 -7.28228,-3.15692 -10.23227,-0.45142 -2.95008,2.70555 -3.15182,7.2941 -0.45071,10.24891 21.35527,23.36116 51.45054,36.92167 83.70353,36.92167 62.66418,0 113.46349,-50.88185 113.46349,-113.6478 0,-62.76588 -50.79931,-113.647716 -113.46349,-113.647716 -61.35469,0 -111.33518,48.777496 -113.39724,109.728836 h -19.64165 l 27.40557,54.86445 27.40556,-54.86445 z"
     inkscape:connector-curvature="0"
     style="fill:url(#linearGradient128);fill-rule:nonzero;stroke:none;stroke-width:2.93773818" />
  <path
     id="path95"
     d="m 275.43242,147.18503 c 10.59894,3.53692 20.07786,9.5257 27.76512,17.29399 -2.14876,0.0574 -4.39822,0.0574 -6.69003,-0.0216 0,0 -20.26784,0.96774 -31.63292,6.76375 0,0 -8.47507,3.8639 -16.94663,10.41528 0,0 -1.79797,0.919 -1.71105,4.29561 0.0768,3.36618 -1.7249,12.34034 -7.7274,17.60023 0,0 -4.28447,2.25226 -2.14223,5.4757 0,0 2.89344,4.29561 6.96922,-0.21602 0,0 10.50959,-11.05582 11.15293,-28.87188 0,0 3.32463,-2.9032 8.57591,-3.75956 0,0 0.9668,26.72756 -12.0049,40.14704 0,0 -12.33877,13.7397 -16.30331,-6.65581 0,0 -4.82705,-19.43121 20.05569,-42.50716 0,0 11.1718,-11.40749 20.6396,-19.96238 z m -85.34016,35.36332 c 9.14303,-18.25563 25.9681,-31.98867 46.23105,-36.951 -8.65565,16.15136 -13.05611,37.35944 -12.63475,51.17738 0,0 -0.79643,24.2803 16.09115,32.89246 0,0 15.1766,6.55827 25.51918,-14.6483 0,0 7.10839,-11.96788 4.21494,-39.01567 0,0 2.7682,0.48014 3.0812,0.91204 0.31291,0.42847 6.11379,20.82369 2.03796,37.9992 0,0 -3.75246,20.18314 -22.20145,24.79906 -18.4421,4.61589 -32.81531,-6.55139 -42.5737,-17.0711 -5.87136,-6.32917 -14.04142,-21.27697 -19.76558,-40.09407 z m 6.92342,74.25118 v 0 c 21.67774,3.6148 51.13741,4.55649 72.03911,-10.2144 19.32543,-13.65969 16.8354,-35.53465 16.8354,-35.53465 -0.32009,-16.6394 -10.82602,-33.16749 -10.82602,-33.16749 40.85223,35.63557 16.70678,75.2256 16.70678,75.2256 -6.65012,13.09708 -17.45318,23.40156 -29.35344,30.94328 -3.03943,0.40047 -6.13993,0.60716 -9.28866,0.60716 -22.89544,0 -43.24071,-10.92908 -56.11317,-27.85964 z"
     inkscape:connector-curvature="0"
     style="fill:#006be7;fill-rule:evenodd;stroke:none;stroke-width:2.93773818" />
  <path
     id="path97"
     d="m 275.43242,144.24586 c 10.59894,3.53693 20.07786,9.52571 27.76512,17.294 -2.14876,0.0574 -4.39822,0.0574 -6.69003,-0.0216 0,0 -20.26784,0.96775 -31.63292,6.76375 0,0 -8.47507,3.86391 -16.94663,10.41529 0,0 -1.79797,0.919 -1.71105,4.29559 0.0768,3.3662 -1.7249,12.34036 -7.7274,17.60025 0,0 -4.28447,2.25227 -2.14223,5.4757 0,0 2.89344,4.29561 6.96922,-0.21602 0,0 10.50959,-11.05582 11.15293,-28.87188 0,0 3.32463,-2.9032 8.57591,-3.75956 0,0 0.9668,26.72757 -12.0049,40.14703 0,0 -12.33877,13.73971 -16.30331,-6.6558 0,0 -4.82705,-19.43121 20.05569,-42.50716 0,0 11.1718,-11.40757 20.6396,-19.96239 z m -85.34016,35.36333 c 9.14303,-18.25564 25.9681,-31.98867 46.23105,-36.951 -8.65565,16.15135 -13.05611,37.35944 -12.63475,51.17738 0,0 -0.79643,24.2803 16.09115,32.89246 0,0 15.1766,6.55826 25.51918,-14.6483 0,0 7.10839,-11.96788 4.21494,-39.01567 0,0 2.7682,0.48014 3.0812,0.91204 0.31291,0.42847 6.11379,20.82369 2.03796,37.9992 0,0 -3.75246,20.18314 -22.20145,24.79905 -18.4421,4.61584 -32.81531,-6.55138 -42.5737,-17.07109 -5.87136,-6.32919 -14.04142,-21.27698 -19.76558,-40.09407 z m 6.92342,74.25117 v 0 c 21.67774,3.61481 51.13741,4.55648 72.03911,-10.2144 19.32543,-13.65968 16.8354,-35.53464 16.8354,-35.53464 -0.32009,-16.6394 -10.82602,-33.16749 -10.82602,-33.16749 40.85223,35.63555 16.70678,75.22559 16.70678,75.22559 -6.65012,13.09709 -17.45318,23.40157 -29.35344,30.94328 -3.03943,0.40048 -6.13993,0.60717 -9.28866,0.60717 -22.89544,0 -43.24071,-10.92909 -56.11317,-27.85964 z"
     inkscape:connector-curvature="0"
     style="fill:url(#linearGradient130);fill-rule:evenodd;stroke:none;stroke-width:2.93773818" />
</svg>
