<?xml version="1.0" encoding="UTF-8" ?>
<!DOCTYPE svg PUBLIC "-//W3C//DTD SVG 1.1//EN" "http://www.w3.org/Graphics/SVG/1.1/DTD/svg11.dtd">
<svg width="256pt" height="256pt" viewBox="0 0 256 256" version="1.1" xmlns="http://www.w3.org/2000/svg">
<g id="#000000ff">
</g>
<g id="#ffffffff">
<path fill="#ffffff" opacity="1.00" d=" M 112.48 10.74 C 137.43 7.40 163.44 12.29 185.32 24.77 C 209.98 38.61 229.27 61.71 238.37 88.49 C 246.84 113.03 246.76 140.42 238.15 164.91 C 228.61 192.46 208.26 216.02 182.46 229.57 C 148.61 247.75 105.68 247.47 72.07 228.85 C 48.15 215.84 29.04 194.21 19.19 168.82 C 9.47 144.13 8.63 116.11 16.73 90.86 C 24.15 67.46 39.26 46.64 59.08 32.17 C 74.71 20.71 93.26 13.24 112.48 10.74 M 111.57 21.84 C 89.26 25.30 68.19 36.20 52.47 52.40 C 33.57 71.54 22.42 98.15 22.34 125.08 C 21.95 148.62 29.82 172.19 44.23 190.81 C 59.33 210.57 81.59 224.74 105.94 229.85 C 129.81 234.99 155.44 231.58 177.05 220.17 C 200.46 208.00 218.96 186.76 227.77 161.89 C 236.63 137.23 235.89 109.25 225.59 85.15 C 215.81 61.92 197.42 42.46 174.77 31.39 C 155.37 21.76 132.95 18.47 111.57 21.84 Z" />
</g>
<g id="#302e31ff">
<path fill="#302e31" opacity="1.00" d=" M 111.57 21.84 C 132.95 18.47 155.37 21.76 174.77 31.39 C 197.42 42.46 215.81 61.92 225.59 85.15 C 235.89 109.25 236.63 137.23 227.77 161.89 C 218.96 186.76 200.46 208.00 177.05 220.17 C 155.44 231.58 129.81 234.99 105.94 229.85 C 81.59 224.74 59.33 210.57 44.23 190.81 C 29.82 172.19 21.95 148.62 22.34 125.08 C 22.42 98.15 33.57 71.54 52.47 52.40 C 68.19 36.20 89.26 25.30 111.57 21.84 M 71.25 67.88 C 68.28 81.00 70.47 94.93 76.40 106.91 C 80.14 107.25 83.89 107.55 87.58 108.21 C 99.26 110.64 109.98 117.57 116.81 127.37 C 125.94 139.94 128.01 157.09 122.58 171.59 C 117.69 184.90 106.57 195.70 93.12 200.16 C 83.11 203.72 72.16 203.21 62.07 200.27 C 73.27 205.35 86.00 207.31 98.10 204.77 C 113.85 201.80 128.35 191.85 136.38 177.95 C 130.61 166.69 129.03 153.27 132.71 141.10 C 137.19 125.95 149.73 113.52 164.91 109.16 C 177.07 105.48 190.64 107.07 201.70 113.29 C 213.13 119.61 221.52 130.81 224.84 143.41 C 224.56 133.91 220.45 124.79 215.19 117.00 C 204.98 102.10 187.48 92.81 169.48 92.20 C 161.10 107.10 144.26 116.99 127.08 116.22 C 104.95 116.46 84.52 98.79 81.06 77.03 C 78.32 62.68 82.81 47.19 92.73 36.48 C 95.14 33.60 98.32 31.55 100.94 28.89 C 85.87 36.51 74.67 51.36 71.25 67.88 Z" />
</g>
<g id="#c4c2c4ff">
<path fill="#c4c2c4" opacity="1.00" d=" M 71.25 67.88 C 74.67 51.36 85.87 36.51 100.94 28.89 C 98.32 31.55 95.14 33.60 92.73 36.48 C 82.81 47.19 78.32 62.68 81.06 77.03 C 84.52 98.79 104.95 116.46 127.08 116.22 C 144.26 116.99 161.10 107.10 169.48 92.20 C 187.48 92.81 204.98 102.10 215.19 117.00 C 220.45 124.79 224.56 133.91 224.84 143.41 C 221.52 130.81 213.13 119.61 201.70 113.29 C 190.64 107.07 177.07 105.48 164.91 109.16 C 149.73 113.52 137.19 125.95 132.71 141.10 C 129.03 153.27 130.61 166.69 136.38 177.95 C 128.35 191.85 113.85 201.80 98.10 204.77 C 86.00 207.31 73.27 205.35 62.07 200.27 C 72.16 203.21 83.11 203.72 93.12 200.16 C 106.57 195.70 117.69 184.90 122.58 171.59 C 128.01 157.09 125.94 139.94 116.81 127.37 C 109.98 117.57 99.26 110.64 87.58 108.21 C 83.89 107.55 80.14 107.25 76.40 106.91 C 70.47 94.93 68.28 81.00 71.25 67.88 Z" />
</g>
</svg>
